{
.appVersion = "1267";
copyright = "Copyright 2010 Google Inc. All Rights Reserved.";
customParameters = (
{
name = glyphOrder;
value = (
.notdef,
.null,
nonmarkingreturn,
space,
exclam,
quotedbl,
numbersign,
dollar,
percent,
ampersand,
quotesingle,
parenleft,
parenright,
asterisk,
plus,
comma,
hyphen,
period,
slash,
zero,
one,
two,
three,
four,
five,
six,
seven,
eight,
nine,
colon,
semicolon,
less,
equal,
greater,
question,
at,
A,
B,
C,
D,
E,
F,
G,
H,
I,
J,
K,
L,
M,
N,
O,
P,
Q,
R,
S,
T,
U,
V,
W,
X,
Y,
Z,
bracketleft,
backslash,
bracketright,
asciicircum,
underscore,
grave,
a,
b,
c,
d,
e,
f,
g,
h,
i,
j,
k,
l,
m,
n,
o,
p,
q,
r,
s,
t,
u,
v,
w,
x,
y,
z,
braceleft,
bar,
braceright,
asciitilde,
Adieresis,
Aring,
Ccedilla,
Eacute,
Ntilde,
Odieresis,
Udieresis,
aacute,
agrave,
acircumflex,
adieresis,
atilde,
aring,
ccedilla,
eacute,
egrave,
ecircumflex,
edieresis,
iacute,
igrave,
icircumflex,
idieresis,
ntilde,
oacute,
ograve,
ocircumflex,
odieresis,
otilde,
uacute,
ugrave,
ucircumflex,
udieresis,
dagger,
degree,
cent,
sterling,
section,
bullet,
paragraph,
germandbls,
registered,
copyright,
trademark,
acute,
dieresis,
notequal,
AE,
Oslash,
infinity,
plusminus,
lessequal,
greaterequal,
yen,
mu1,
partialdiff,
summation,
product,
integral,
ordfeminine,
ordmasculine,
Ohm,
ae,
oslash,
questiondown,
exclamdown,
logicalnot,
radical,
florin,
approxequal,
uni2206,
guillemotleft,
guillemotright,
ellipsis,
Agrave,
Atilde,
Otilde,
OE,
oe,
endash,
emdash,
quotedblleft,
quotedblright,
quoteleft,
quoteright,
divide,
lozenge,
ydieresis,
Ydieresis,
fraction,
Euro,
guilsinglleft,
guilsinglright,
fi,
fl,
daggerdbl,
periodcentered,
quotesinglbase,
quotedblbase,
perthousand,
Acircumflex,
Ecircumflex,
Aacute,
Edieresis,
Egrave,
Iacute,
Icircumflex,
Idieresis,
Igrave,
Oacute,
Ocircumflex,
Ograve,
Uacute,
Ucircumflex,
Ugrave,
dotlessi,
circumflex,
tilde,
macron,
breve,
dotaccent,
ring,
cedilla,
hungarumlaut,
ogonek,
caron,
Lslash,
lslash,
Scaron,
scaron,
Zcaron,
zcaron,
brokenbar,
Eth,
eth,

glyphs = (
{
glyphname = .notdef;
lastChange = "2020-03-13 21:33:20 +0000";
layers = (
{
layerId = "489D640B-457E-495A-B1F8-D23C81511CE7";
paths = (
{
closed = 1;
nodes = (
"205 1409 LINE",
"205 0 LINE",
"1330 0 LINE",
"1330 1409 LINE",
"205 1409 LINE"
);
},
{
closed = 1;
nodes = (
"281 1333 LINE",
"1254 1333 LINE",
"1254 76 LINE",
"281 76 LINE",
"281 1333 LINE"
);
}
);
width = 1536;
}
);
note = .notdef;
},
{
glyphname = exclam;
lastChange = "2020-03-13 21:33:20 +0000";
layers = (
{
layerId = "489D640B-457E-495A-B1F8-D23C81511CE7";
paths = (
{
closed = 1;
nodes = (
"359 397 LINE",
"383 1409 LINE",
"187 1409 LINE",
"211 397 LINE",
"359 397 LINE"
);
},
{
closed = 1;
nodes = (
"185 0 LINE",
"379 0 LINE",
"379 201 LINE",
"185 201 LINE",
"185 0 LINE"
);
}
);
width = 569;
}
);
note = exclam;
unicode = 0021;
},
{
glyphname = quotedbl;
lastChange = "2020-03-13 21:33:20 +0000";
layers = (
{
layerId = "489D640B-457E-495A-B1F8-D23C81511CE7";
paths = (
{
closed = 1;
nodes = (
"618 966 LINE",
"640 1409 LINE",
"456 1409 LINE",
"476 966 LINE",
"618 966 LINE"
);
},
{
closed = 1;
nodes = (
"249 966 LINE",
"271 1409 LINE",
"87 1409 LINE",
"108 966 LINE",
"249 966 LINE"
);
}
);
width = 727;
}
);
note = quotedbl;
unicode = 0022;
},
{
glyphname = numbersign;
lastChange = "2020-03-13 21:33:20 +0000";
layers = (
{
layerId = "489D640B-457E-495A-B1F8-D23C81511CE7";
paths = (
{
closed = 1;
nodes = (
"896 885 LINE",
"1129 885 LINE",
"1129 993 LINE",
"918 993 LINE",
"1006 1401 LINE",
"896 1401 LINE",
"808 993 LINE",
"445 993 LINE",
"533 1401 LINE",
"423 1401 LINE",
"334 993 LINE",
"60 993 LINE",
"60 885 LINE",
"312 885 LINE",
"234 516 LINE",
"9 516 LINE",
"9 408 LINE",
"210 408 LINE",
"126 0 LINE",
"236 0 LINE",
"320 408 LINE",
"683 408 LINE",
"597 0 LINE",
"707 0 LINE",
"795 408 LINE",
"1078 408 LINE",
"1078 516 LINE",
"818 516 LINE",
"896 885 LINE"
);
},
{
closed = 1;
nodes = (
"425 885 LINE",
"785 885 LINE",
"707 516 LINE",
"345 516 LINE",
"425 885 LINE"
);
}
);
width = 1139;
}
);
note = numbersign;
unicode = 0023;
},
{
glyphname = dollar;
lastChange = "2020-03-13 21:33:20 +0000";
layers = (
{
layerId = "489D640B-457E-495A-B1F8-D23C81511CE7";
paths = (
{
closed = 1;
nodes = (
"518 20 LINE",
"518 -142 LINE",
"642 -142 LINE",
"642 20 LINE",
"938 34.667 OFFCURVE",
"1106 176 OFFCURVE",
"1106 396 CURVE SMOOTH",
"1106 504 OFFCURVE",
"1074.667 582.333 OFFCURVE",
"1016 641 CURVE SMOOTH",
"986.667 670.333 OFFCURVE",
"946.833 696.667 OFFCURVE",
"896.5 720 CURVE SMOOTH",
"846.167 743.333 OFFCURVE",
"761.333 769 OFFCURVE",
"642 797 CURVE",
"642 1242 LINE",
"798 1227.333 OFFCURVE",
"874.333 1157.333 OFFCURVE",
"901 1032 CURVE",
"1075 1065 LINE",
"1019 1278.333 OFFCURVE",
"891.333 1373 OFFCURVE",
"642 1385 CURVE",
"642 1516 LINE",
"518 1516 LINE",
"518 1385 LINE",
"242 1373 OFFCURVE",
"86 1252.667 OFFCURVE",
"86 1046 CURVE SMOOTH",
"86 948.667 OFFCURVE",
"109.167 884.167 OFFCURVE",
"164.5 823.5 CURVE SMOOTH",
"192.167 793.167 OFFCURVE",
"228.5 766.333 OFFCURVE",
"273.5 743 CURVE SMOOTH",
"318.5 719.667 OFFCURVE",
"400 693.333 OFFCURVE",
"518 664 CURVE",
"518 168 LINE",
"328.667 180 OFFCURVE",
"225.333 257.333 OFFCURVE",
"192 416 CURVE",
"22 379 LINE",
"68.667 151.667 OFFCURVE",
"234 32 OFFCURVE",
"518 20 CURVE"
);
},
{
closed = 1;
nodes = (
"934 394 LINE",
"934 258 OFFCURVE",
"830 179 OFFCURVE",
"642 167 CURVE",
"642 635 LINE",
"736.667 610.333 OFFCURVE",
"800.333 588.833 OFFCURVE",
"833 570.5 CURVE SMOOTH",
"898.333 533.833 OFFCURVE",
"934 480.667 OFFCURVE",
"934 394 CURVE"
);
},
{
closed = 1;
nodes = (
"258 1048 LINE",
"258 1169.333 OFFCURVE",
"344.667 1234.667 OFFCURVE",
"518 1244 CURVE",
"518 823 LINE",
"370 860.333 OFFCURVE",
"316.333 893.333 OFFCURVE",
"283 948 CURVE SMOOTH",
"266.333 975.333 OFFCURVE",
"258 1008.667 OFFCURVE",
"258 1048 CURVE"
);
}
);
width = 1139;
}
);
note = dollar;
unicode = 0024;
},
{
glyphname = percent;
lastChange = "2020-03-13 21:33:20 +0000";
layers = (
{
layerId = "489D640B-457E-495A-B1F8-D23C81511CE7";
paths = (
{
closed = 1;
nodes = (
"1748 434 LINE",
"1748 730 OFFCURVE",
"1650.667 885 OFFCURVE",
"1432 885 CURVE SMOOTH",
"1210.667 885 OFFCURVE",
"1113 738 OFFCURVE",
"1113 434 CURVE SMOOTH",
"1113 139.333 OFFCURVE",
"1220 -12 OFFCURVE",
"1428 -12 CURVE SMOOTH",
"1638.667 -12 OFFCURVE",
"1748 147.333 OFFCURVE",
"1748 434 CURVE"
);
},
{
closed = 1;
nodes = (
"527 0 LINE",
"1451 1409 LINE",
"1294 1409 LINE",
"372 0 LINE",
"527 0 LINE"
);
},
{
closed = 1;
nodes = (
"394 1421 LINE",
"171.333 1421 OFFCURVE",
"73 1272.333 OFFCURVE",
"73 975 CURVE SMOOTH",
"73 683 OFFCURVE",
"179.333 524 OFFCURVE",
"390 524 CURVE SMOOTH",
"600.667 524 OFFCURVE",
"707 685.667 OFFCURVE",
"707 975 CURVE SMOOTH",
"707 1271 OFFCURVE",
"606 1421 OFFCURVE",
"394 1421 CURVE"
);
},
{
closed = 1;
nodes = (
"1600 434 LINE",
"1600 208.667 OFFCURVE",
"1547.333 98 OFFCURVE",
"1430 98 CURVE SMOOTH",
"1308.667 98 OFFCURVE",
"1260 206 OFFCURVE",
"1260 434 CURVE SMOOTH",
"1260 676.667 OFFCURVE",
"1310.667 774 OFFCURVE",
"1432 774 CURVE SMOOTH",
"1553.333 774 OFFCURVE",
"1600 672.667 OFFCURVE",
"1600 434 CURVE"
);
},
{
closed = 1;
nodes = (
"560 975 LINE",
"560 748.333 OFFCURVE",
"508 637 OFFCURVE",
"392 637 CURVE SMOOTH",
"269.333 637 OFFCURVE",
"220 744.333 OFFCURVE",
"220 975 CURVE SMOOTH",
"220 1213.667 OFFCURVE",
"268.667 1313 OFFCURVE",
"394 1313 CURVE SMOOTH",
"514 1313 OFFCURVE",
"560 1209.667 OFFCURVE",
"560 975 CURVE"
);
}
);
width = 1821;
}
);
note = percent;
unicode = 0025;
},
{
glyphname = ampersand;
lastChange = "2020-03-13 21:33:20 +0000";
layers = (
{
layerId = "489D640B-457E-495A-B1F8-D23C81511CE7";
paths = (
{
closed = 1;
nodes = (
"1193 -12 LINE",
"1249.667 -12 OFFCURVE",
"1296.667 -4.667 OFFCURVE",
"1334 10 CURVE",
"1334 145 LINE",
"1303.333 134.333 OFFCURVE",
"1264.333 129 OFFCURVE",
"1217 129 CURVE SMOOTH",
"1142.333 129 OFFCURVE",
"1073 161.667 OFFCURVE",
"1009 227 CURVE",
"1108.333 373.667 OFFCURVE",
"1179 530 OFFCURVE",
"1221 696 CURVE",
"1076 739 LINE",
"1037.333 576.333 OFFCURVE",
"980.333 439.667 OFFCURVE",
"905 329 CURVE",
"783.667 467 OFFCURVE",
"686 604.333 OFFCURVE",
"612 741 CURVE",
"913.333 861 OFFCURVE",
"1021 975.667 OFFCURVE",
"1021 1133 CURVE SMOOTH",
"1021 1309 OFFCURVE",
"886.333 1417 OFFCURVE",
"685 1417 CURVE SMOOTH",
"461 1417 OFFCURVE",
"334 1302 OFFCURVE",
"334 1102 CURVE SMOOTH",
"334 1008.667 OFFCURVE",
"371 882.667 OFFCURVE",
"415 800 CURVE",
"186.333 699.333 OFFCURVE",
"72 556.333 OFFCURVE",
"72 371 CURVE SMOOTH",
"72 125.667 OFFCURVE",
"236.333 -20 OFFCURVE",
"523 -20 CURVE SMOOTH",
"663 -20 OFFCURVE",
"795 28.333 OFFCURVE",
"895 115 CURVE",
"975.667 30.333 OFFCURVE",
"1075 -12 OFFCURVE",
"1193 -12 CURVE"
);
},
{
closed = 1;
nodes = (
"869 1133 LINE",
"869 1061 OFFCURVE",
"826.5 1002 OFFCURVE",
"744.5 950 CURVE SMOOTH",
"703.5 924 OFFCURVE",
"639.333 893.333 OFFCURVE",
"552 858 CURVE",
"508.667 944.667 OFFCURVE",
"487 1026 OFFCURVE",
"487 1102 CURVE SMOOTH",
"487 1223.333 OFFCURVE",
"555 1296 OFFCURVE",
"683 1296 CURVE SMOOTH",
"797.667 1296 OFFCURVE",
"869 1229 OFFCURVE",
"869 1133 CURVE"
);
},
{
closed = 1;
nodes = (
"795 217 LINE",
"724.333 149 OFFCURVE",
"623.667 111 OFFCURVE",
"529 111 CURVE SMOOTH",
"350.333 111 OFFCURVE",
"240 211.667 OFFCURVE",
"240 373 CURVE SMOOTH",
"240 507 OFFCURVE",
"318.667 607.333 OFFCURVE",
"476 674 CURVE",
"556.667 525.333 OFFCURVE",
"663 373 OFFCURVE",
"795 217 CURVE"
);
}
);
width = 1366;
}
);
note = ampersand;
unicode = 0026;
},
{
glyphname = quotesingle;
lastChange = "2020-03-13 21:33:20 +0000";
layers = (
{
layerId = "489D640B-457E-495A-B1F8-D23C81511CE7";
paths = (
{
closed = 1;
nodes = (
"266 966 LINE",
"288 1409 LINE",
"104 1409 LINE",
"125 966 LINE",
"266 966 LINE"
);
}
);
width = 391;
}
);
note = quotesingle;
unicode = 0027;
},
{
glyphname = parenleft;
lastChange = "2020-03-13 21:33:20 +0000";
layers = (
{
layerId = "489D640B-457E-495A-B1F8-D23C81511CE7";
paths = (
{
closed = 1;
nodes = (
"127 532 LINE",
"127 528 LINE SMOOTH",
"127 145.333 OFFCURVE",
"244 -152 OFFCURVE",
"496 -424 CURVE",
"670 -424 LINE",
"418 -142.667 OFFCURVE",
"308 160.667 OFFCURVE",
"308 530 CURVE SMOOTH",
"308 900.667 OFFCURVE",
"420.667 1206.667 OFFCURVE",
"670 1484 CURVE",
"496 1484 LINE",
"245.333 1213.333 OFFCURVE",
"127 917.333 OFFCURVE",
"127 532 CURVE"
);
}
);
width = 682;
}
);
note = parenleft;
unicode = 0028;
},
{
glyphname = parenright;
lastChange = "2020-03-13 21:33:20 +0000";
layers = (
{
layerId = "489D640B-457E-495A-B1F8-D23C81511CE7";
paths = (
{
closed = 1;
nodes = (
"555 528 LINE",
"555 532 LINE SMOOTH",
"555 914.667 OFFCURVE",
"438 1212 OFFCURVE",
"186 1484 CURVE",
"12 1484 LINE",
"261.333 1205.333 OFFCURVE",
"374 902 OFFCURVE",
"374 530 CURVE SMOOTH",
"374 158 OFFCURVE",
"262.667 -144 OFFCURVE",
"12 -424 CURVE",
"186 -424 LINE",
"436.667 -153.333 OFFCURVE",
"555 142.667 OFFCURVE",
"555 528 CURVE"
);
}
);
width = 682;
}
);
note = parenright;
unicode = 0029;
},
{
glyphname = asterisk;
lastChange = "2020-03-13 21:33:20 +0000";
layers = (
{
layerId = "489D640B-457E-495A-B1F8-D23C81511CE7";
paths = (
{
closed = 1;
nodes = (
"456 1114 LINE",
"469 1409 LINE",
"333 1409 LINE",
"345 1112 LINE",
"78 1219 LINE",
"33 1085 LINE",
"313 1012 LINE",
"124 764 LINE",
"243 692 LINE",
"399 948 LINE",
"549 690 LINE",
"668 762 LINE",
"483 1012 LINE",
"765 1085 LINE",
"720 1217 LINE",
"456 1114 LINE"
);
}
);
width = 797;
}
);
note = asterisk;
unicode = 002A;
},
{
glyphname = plus;
lastChange = "2020-03-13 21:33:20 +0000";
layers = (
{
layerId = "489D640B-457E-495A-B1F8-D23C81511CE7";
paths = (
{
closed = 1;
nodes = (
"671 608 LINE",
"1095 608 LINE",
"1095 754 LINE",
"671 754 LINE",
"671 1182 LINE",
"524 1182 LINE",
"524 754 LINE",
"100 754 LINE",
"100 608 LINE",
"524 608 LINE",
"524 180 LINE",
"671 180 LINE",
"671 608 LINE"
);
}
);
width = 1196;
}
);
note = plus;
unicode = 002B;
},
{
glyphname = comma;
lastChange = "2020-03-13 21:33:20 +0000";
layers = (
{
layerId = "489D640B-457E-495A-B1F8-D23C81511CE7";
paths = (
{
closed = 1;
nodes = (
"385 219 LINE",
"190 219 LINE",
"190 0 LINE",
"278 0 LINE",
"278 -84 OFFCURVE",
"246.667 -171.333 OFFCURVE",
"184 -262 CURVE",
"307 -262 LINE",
"360.333 -175.333 OFFCURVE",
"385 -90.333 OFFCURVE",
"385 51 CURVE SMOOTH",
"385 219 LINE"
);
}
);
width = 569;
}
);
note = comma;
unicode = 002C;
},
{
glyphname = hyphen;
lastChange = "2020-03-13 21:33:20 +0000";
layers = (
{
layerId = "489D640B-457E-495A-B1F8-D23C81511CE7";
paths = (
{
closed = 1;
nodes = (
"91 464 LINE",
"591 464 LINE",
"591 624 LINE",
"91 624 LINE",
"91 464 LINE"
);
}
);
width = 682;
}
);
note = hyphen;
unicode = "002D,00AD";
},
{
glyphname = period;
lastChange = "2020-03-13 21:33:20 +0000";
layers = (
{
layerId = "489D640B-457E-495A-B1F8-D23C81511CE7";
paths = (
{
closed = 1;
nodes = (
"187 0 LINE",
"382 0 LINE",
"382 219 LINE",
"187 219 LINE",
"187 0 LINE"
);
}
);
width = 569;
}
);
note = period;
unicode = 002E;
},
{
glyphname = slash;
lastChange = "2020-03-13 21:33:20 +0000";
layers = (
{
layerId = "489D640B-457E-495A-B1F8-D23C81511CE7";
paths = (
{
closed = 1;
nodes = (
"0 -20 LINE",
"162 -20 LINE",
"569 1484 LINE",
"411 1484 LINE",
"0 -20 LINE"
);
}
);
width = 569;
}
);
note = slash;
unicode = 002F;
},
{
glyphname = zero;
lastChange = "2020-03-13 21:33:20 +0000";
layers = (
{
layerId = "489D640B-457E-495A-B1F8-D23C81511CE7";
paths = (
{
closed = 1;
nodes = (
"1059 705 LINE",
"1059 1183.667 OFFCURVE",
"905 1430 OFFCURVE",
"573 1430 CURVE SMOOTH",
"231.667 1430 OFFCURVE",
"80 1189 OFFCURVE",
"80 705 CURVE SMOOTH",
"80 231.667 OFFCURVE",
"243 -20 OFFCURVE",
"567 -20 CURVE SMOOTH",
"891 -20 OFFCURVE",
"1059 234.333 OFFCURVE",
"1059 705 CURVE"
);
},
{
closed = 1;
nodes = (
"876 705 LINE",
"876 313 OFFCURVE",
"781 127 OFFCURVE",
"569 127 CURVE SMOOTH",
"355.667 127 OFFCURVE",
"262 305 OFFCURVE",
"262 705 CURVE SMOOTH",
"262 1117 OFFCURVE",
"351.667 1284 OFFCURVE",
"573 1284 CURVE SMOOTH",
"789 1284 OFFCURVE",
"876 1111.667 OFFCURVE",
"876 705 CURVE"
);
}
);
width = 1139;
}
);
note = zero;
unicode = 0030;
},
{
glyphname = one;
lastChange = "2020-03-13 21:33:20 +0000";
layers = (
{
layerId = "489D640B-457E-495A-B1F8-D23C81511CE7";
paths = (
{
closed = 1;
nodes = (
"156 0 LINE",
"1039 0 LINE",
"1039 153 LINE",
"696 153 LINE",
"696 1409 LINE",
"530 1409 LINE",
"197 1180 LINE",
"197 1010 LINE",
"515 1237 LINE",
"515 153 LINE",
"156 153 LINE",
"156 0 LINE"
);
}
);
width = 1139;
}
);
note = one;
unicode = 0031;
},
{
glyphname = two;
lastChange = "2020-03-13 21:33:20 +0000";
layers = (
{
layerId = "489D640B-457E-495A-B1F8-D23C81511CE7";
paths = (
{
closed = 1;
nodes = (
"103 0 LINE",
"1036 0 LINE",
"1036 153 LINE",
"301 153 LINE",
"341 246.333 OFFCURVE",
"428.667 342.667 OFFCURVE",
"582 468 CURVE SMOOTH",
"721.333 581.333 OFFCURVE",
"815.667 665 OFFCURVE",
"865 719 CURVE SMOOTH",
"963.667 827 OFFCURVE",
"1014 934.667 OFFCURVE",
"1014 1044 CURVE SMOOTH",
"1014 1290.667 OFFCURVE",
"856 1430 OFFCURVE",
"572 1430 CURVE SMOOTH",
"313.333 1430 OFFCURVE",
"137.667 1286.333 OFFCURVE",
"111 1061 CURVE",
"295 1044 LINE",
"312.333 1194.667 OFFCURVE",
"418.667 1282 OFFCURVE",
"572 1282 CURVE SMOOTH",
"733.333 1282 OFFCURVE",
"829 1192.667 OFFCURVE",
"829 1038 CURVE SMOOTH",
"829 923.333 OFFCURVE",
"771.333 836.667 OFFCURVE",
"686 754 CURVE SMOOTH",
"643.333 712.667 OFFCURVE",
"595.5 671.333 OFFCURVE",
"542.5 630 CURVE SMOOTH",
"436.5 547.333 OFFCURVE",
"325.5 452.833 OFFCURVE",
"227.5 333.5 CURVE SMOOTH",
"178.5 273.833 OFFCURVE",
"137 205 OFFCURVE",
"103 127 CURVE",
"103 0 LINE"
);
}
);
width = 1139;
}
);
note = two;
unicode = 0032;
},
{
glyphname = three;
lastChange = "2020-03-13 21:33:20 +0000";
layers = (
{
layerId = "489D640B-457E-495A-B1F8-D23C81511CE7";
paths = (
{
closed = 1;
nodes = (
"1049 389 LINE",
"1049 569 OFFCURVE",
"925.667 696.333 OFFCURVE",
"715 719 CURVE",
"715 723 LINE",
"907 763 OFFCURVE",
"1010 877 OFFCURVE",
"1010 1057 CURVE SMOOTH",
"1010 1291.667 OFFCURVE",
"845.667 1430 OFFCURVE",
"563 1430 CURVE SMOOTH",
"304.333 1430 OFFCURVE",
"128.667 1293.667 OFFCURVE",
"102 1063 CURVE",
"283 1049 LINE",
"299 1197 OFFCURVE",
"402.333 1282 OFFCURVE",
"561 1282 CURVE SMOOTH",
"735.667 1282 OFFCURVE",
"825 1188.667 OFFCURVE",
"825 1038 CURVE SMOOTH",
"825 886 OFFCURVE",
"711.333 795 OFFCURVE",
"514 795 CURVE SMOOTH",
"416 795 LINE",
"416 639 LINE",
"518 639 LINE SMOOTH",
"740.667 639 OFFCURVE",
"862 548.333 OFFCURVE",
"862 395 CURVE SMOOTH",
"862 219 OFFCURVE",
"752.333 129 OFFCURVE",
"571 129 CURVE SMOOTH",
"390.333 129 OFFCURVE",
"288 212.333 OFFCURVE",
"264 379 CURVE",
"78 362 LINE",
"110 110 OFFCURVE",
"285.667 -20 OFFCURVE",
"571 -20 CURVE SMOOTH",
"877.667 -20 OFFCURVE",
"1049 129 OFFCURVE",
"1049 389 CURVE"
);
}
);
width = 1139;
}
);
note = three;
unicode = 0033;
},
{
glyphname = four;
lastChange = "2020-03-13 21:33:20 +0000";
layers = (
{
background = {
paths = (
{
closed = 1;
nodes = (
"1079 319 LINE",
"1079 461 LINE",
"881 461 LINE",
"881 1409 LINE",
"692 1409 LINE",
"47 459 LINE",
"47 319 LINE",
"711 319 LINE",
"711 0 LINE",
"881 0 LINE",
"881 319 LINE"
);
},
{
closed = 1;
nodes = (
"711 461 LINE",
"213 461 LINE",
"236 492 OFFCURVE",
"260 524 OFFCURVE",
"283 555 CURVE SMOOTH",
"644 1087 LINE SMOOTH",
"657 1106 OFFCURVE",
"709 1200 OFFCURVE",
"711 1206 QCURVE"
);
}
);
};
layerId = "489D640B-457E-495A-B1F8-D23C81511CE7";
paths = (
{
closed = 1;
nodes = (
"881 319 LINE",
"1079 319 LINE",
"1079 461 LINE",
"881 461 LINE",
"881 1409 LINE",
"692 1409 LINE",
"47 459 LINE",
"47 319 LINE",
"711 319 LINE",
"711 0 LINE",
"881 0 LINE",
"881 319 LINE"
);
},
{
closed = 1;
nodes = (
"711 461 LINE",
"213 461 LINE",
"266.333 532.333 OFFCURVE",
"302.333 581.667 OFFCURVE",
"321 609 CURVE SMOOTH",
"644 1087 LINE SMOOTH",
"661.333 1112.333 OFFCURVE",
"680.333 1147.333 OFFCURVE",
"711 1206 CURVE",
"711 461 LINE"
);
}
);
width = 1139;
}
);
note = four;
unicode = 0034;
},
{
glyphname = five;
lastChange = "2020-03-13 21:33:20 +0000";
layers = (
{
layerId = "489D640B-457E-495A-B1F8-D23C81511CE7";
paths = (
{
closed = 1;
nodes = (
"1053 459 LINE",
"1053 720.333 OFFCURVE",
"875.333 899 OFFCURVE",
"598 899 CURVE SMOOTH",
"482 899 OFFCURVE",
"385 869 OFFCURVE",
"307 809 CURVE",
"334 1256 LINE",
"971 1256 LINE",
"971 1409 LINE",
"170 1409 LINE",
"123 651 LINE",
"299 651 LINE",
"383 724.333 OFFCURVE",
"463.667 752 OFFCURVE",
"561 752 CURVE SMOOTH",
"747.667 752 OFFCURVE",
"866 632.333 OFFCURVE",
"866 455 CURVE SMOOTH",
"866 251 OFFCURVE",
"750.333 127 OFFCURVE",
"557 127 CURVE SMOOTH",
"399.667 127 OFFCURVE",
"302 196.667 OFFCURVE",
"264 336 CURVE",
"82 315 LINE",
"124.667 97.667 OFFCURVE",
"290.333 -20 OFFCURVE",
"553 -20 CURVE SMOOTH",
"866.333 -20 OFFCURVE",
"1053 161.667 OFFCURVE",
"1053 459 CURVE"
);
}
);
width = 1139;
}
);
note = five;
unicode = 0035;
},
{
glyphname = six;
lastChange = "2020-03-13 21:33:20 +0000";
layers = (
{
layerId = "489D640B-457E-495A-B1F8-D23C81511CE7";
paths = (
{
closed = 1;
nodes = (
"1049 461 LINE",
"1049 735.667 OFFCURVE",
"885 911 OFFCURVE",
"625 911 CURVE SMOOTH",
"471.667 911 OFFCURVE",
"348.333 846.333 OFFCURVE",
"283 725 CURVE",
"283 1087.667 OFFCURVE",
"400.667 1284 OFFCURVE",
"606 1284 CURVE SMOOTH",
"725.333 1284 OFFCURVE",
"802.667 1226.667 OFFCURVE",
"838 1112 CURVE",
"1010 1143 LINE",
"954.667 1334.333 OFFCURVE",
"820.667 1430 OFFCURVE",
"608 1430 CURVE SMOOTH",
"285.333 1430 OFFCURVE",
"104 1160 OFFCURVE",
"104 672 CURVE SMOOTH",
"104 221.333 OFFCURVE",
"276.667 -20 OFFCURVE",
"594 -20 CURVE SMOOTH",
"878 -20 OFFCURVE",
"1049 163.667 OFFCURVE",
"1049 461 CURVE"
);
},
{
closed = 1;
nodes = (
"866 453 LINE",
"866 249 OFFCURVE",
"761.333 125 OFFCURVE",
"588 125 CURVE SMOOTH",
"420 125 OFFCURVE",
"301 278.667 OFFCURVE",
"301 496 CURVE SMOOTH",
"301 668 OFFCURVE",
"414 772 OFFCURVE",
"582 772 CURVE SMOOTH",
"760.667 772 OFFCURVE",
"866 657 OFFCURVE",
"866 453 CURVE"
);
}
);
width = 1139;
}
);
note = six;
unicode = 0036;
},
{
glyphname = seven;
lastChange = "2020-03-13 21:33:20 +0000";
layers = (
{
layerId = "489D640B-457E-495A-B1F8-D23C81511CE7";
paths = (
{
closed = 1;
nodes = (
"1036 1263 LINE",
"1036 1409 LINE",
"105 1409 LINE",
"105 1256 LINE",
"862 1256 LINE",
"504.667 737.333 OFFCURVE",
"365 360 OFFCURVE",
"365 0 CURVE",
"553 0 LINE",
"553 260 OFFCURVE",
"612.333 496.667 OFFCURVE",
"731 746 CURVE SMOOTH",
"790.333 870.667 OFFCURVE",
"892 1043 OFFCURVE",
"1036 1263 CURVE"
);
}
);
width = 1139;
}
);
note = seven;
unicode = 0037;
},
{
glyphname = eight;
lastChange = "2020-03-13 21:33:20 +0000";
layers = (
{
layerId = "489D640B-457E-495A-B1F8-D23C81511CE7";
paths = (
{
closed = 1;
nodes = (
"1050 393 LINE",
"1050 578.333 OFFCURVE",
"945 709.667 OFFCURVE",
"765 739 CURVE",
"765 743 LINE",
"919.667 773.667 OFFCURVE",
"1015 905.667 OFFCURVE",
"1015 1067 CURVE SMOOTH",
"1015 1289.667 OFFCURVE",
"843.333 1430 OFFCURVE",
"566 1430 CURVE SMOOTH",
"295.333 1430 OFFCURVE",
"122 1283.667 OFFCURVE",
"122 1069 CURVE SMOOTH",
"122 907.667 OFFCURVE",
"216.667 777 OFFCURVE",
"370 741 CURVE",
"370 737 LINE",
"206 710.333 OFFCURVE",
"89 575 OFFCURVE",
"89 391 CURVE SMOOTH",
"89 128.333 OFFCURVE",
"268.667 -20 OFFCURVE",
"570 -20 CURVE SMOOTH",
"879.333 -20 OFFCURVE",
"1050 133 OFFCURVE",
"1050 393 CURVE"
);
},
{
closed = 1;
nodes = (
"828 1057 LINE",
"828 882.333 OFFCURVE",
"737.333 809 OFFCURVE",
"568 809 CURVE SMOOTH",
"401.333 809 OFFCURVE",
"306 895.667 OFFCURVE",
"306 1057 CURVE SMOOTH",
"306 1215.667 OFFCURVE",
"396.667 1296 OFFCURVE",
"566 1296 CURVE SMOOTH",
"740.667 1296 OFFCURVE",
"828 1216.333 OFFCURVE",
"828 1057 CURVE"
);
},
{
closed = 1;
nodes = (
"863 410 LINE",
"863 204.667 OFFCURVE",
"768 115 OFFCURVE",
"572 115 CURVE SMOOTH",
"374 115 OFFCURVE",
"275 212 OFFCURVE",
"275 406 CURVE SMOOTH",
"275 572.667 OFFCURVE",
"383.333 674 OFFCURVE",
"566 674 CURVE SMOOTH",
"754 674 OFFCURVE",
"863 584.667 OFFCURVE",
"863 410 CURVE"
);
}
);
width = 1139;
}
);
note = eight;
unicode = 0038;
},
{
glyphname = nine;
lastChange = "2020-03-13 21:33:20 +0000";
layers = (
{
layerId = "489D640B-457E-495A-B1F8-D23C81511CE7";
paths = (
{
closed = 1;
nodes = (
"1042 733 LINE",
"1042 1198.333 OFFCURVE",
"878.333 1430 OFFCURVE",
"565 1430 CURVE SMOOTH",
"270.333 1430 OFFCURVE",
"96 1250.667 OFFCURVE",
"96 956 CURVE SMOOTH",
"96 669.333 OFFCURVE",
"260.667 481 OFFCURVE",
"514 481 CURVE SMOOTH",
"668.667 481 OFFCURVE",
"810.667 560 OFFCURVE",
"864 680 CURVE",
"858.667 324 OFFCURVE",
"741.667 125 OFFCURVE",
"535 125 CURVE SMOOTH",
"412.333 125 OFFCURVE",
"333 183.667 OFFCURVE",
"297 301 CURVE",
"125 274 LINE",
"182.333 67.333 OFFCURVE",
"312 -20 OFFCURVE",
"532 -20 CURVE SMOOTH",
"858.667 -20 OFFCURVE",
"1042 249 OFFCURVE",
"1042 733 CURVE"
);
},
{
closed = 1;
nodes = (
"846 907 LINE",
"846 796.333 OFFCURVE",
"791.333 705.833 OFFCURVE",
"702 658.5 CURVE SMOOTH",
"657.333 634.833 OFFCURVE",
"609 623 OFFCURVE",
"557 623 CURVE SMOOTH",
"386.333 623 OFFCURVE",
"279 750.667 OFFCURVE",
"279 956 CURVE SMOOTH",
"279 1157.333 OFFCURVE",
"385.667 1284 OFFCURVE",
"559 1284 CURVE SMOOTH",
"733.667 1284 OFFCURVE",
"846 1133.667 OFFCURVE",
"846 907 CURVE"
);
}
);
width = 1139;
}
);
note = nine;
unicode = 0039;
},
{
glyphname = colon;
lastChange = "2020-03-13 21:33:20 +0000";
layers = (
{
layerId = "489D640B-457E-495A-B1F8-D23C81511CE7";
paths = (
{
closed = 1;
nodes = (
"187 875 LINE",
"382 875 LINE",
"382 1082 LINE",
"187 1082 LINE",
"187 875 LINE"
);
},
{
closed = 1;
nodes = (
"187 0 LINE",
"382 0 LINE",
"382 207 LINE",
"187 207 LINE",
"187 0 LINE"
);
}
);
width = 569;
}
);
note = colon;
unicode = 003A;
},
{
glyphname = semicolon;
lastChange = "2020-03-13 21:33:20 +0000";
layers = (
{
layerId = "489D640B-457E-495A-B1F8-D23C81511CE7";
paths = (
{
closed = 1;
nodes = (
"385 207 LINE",
"190 207 LINE",
"190 0 LINE",
"278 0 LINE",
"278 -84 OFFCURVE",
"246.667 -171.333 OFFCURVE",
"184 -262 CURVE",
"307 -262 LINE",
"360.333 -175.333 OFFCURVE",
"385 -90.333 OFFCURVE",
"385 51 CURVE SMOOTH",
"385 207 LINE"
);
},
{
closed = 1;
nodes = (
"190 875 LINE",
"385 875 LINE",
"385 1082 LINE",
"190 1082 LINE",
"190 875 LINE"
);
}
);
width = 569;
}
);
note = semicolon;
unicode = "003B,037E";
},
{
glyphname = less;
lastChange = "2020-03-13 21:33:20 +0000";
layers = (
{
layerId = "489D640B-457E-495A-B1F8-D23C81511CE7";
paths = (
{
closed = 1;
nodes = (
"101 571 LINE",
"1096 154 LINE",
"1096 307 LINE",
"238 674 LINE",
"1096 1040 LINE",
"1096 1194 LINE",
"101 776 LINE",
"101 571 LINE"
);
}
);
width = 1196;
}
);
note = less;
unicode = 003C;
},
{
glyphname = equal;
lastChange = "2020-03-13 21:33:20 +0000";
layers = (
{
layerId = "489D640B-457E-495A-B1F8-D23C81511CE7";
paths = (
{
closed = 1;
nodes = (
"100 856 LINE",
"1095 856 LINE",
"1095 1004 LINE",
"100 1004 LINE",
"100 856 LINE"
);
},
{
closed = 1;
nodes = (
"100 344 LINE",
"1095 344 LINE",
"1095 492 LINE",
"100 492 LINE",
"100 344 LINE"
);
}
);
width = 1196;
}
);
note = equal;
unicode = 003D;
},
{
glyphname = greater;
lastChange = "2020-03-13 21:33:20 +0000";
layers = (
{
layerId = "489D640B-457E-495A-B1F8-D23C81511CE7";
paths = (
{
closed = 1;
nodes = (
"101 154 LINE",
"1096 571 LINE",
"1096 776 LINE",
"101 1194 LINE",
"101 1040 LINE",
"959 674 LINE",
"101 307 LINE",
"101 154 LINE"
);
}
);
width = 1196;
}
);
note = greater;
unicode = 003E;
},
{
glyphname = question;
lastChange = "2020-03-13 21:33:20 +0000";
layers = (
{
layerId = "489D640B-457E-495A-B1F8-D23C81511CE7";
paths = (
{
closed = 1;
nodes = (
"1063 1032 LINE",
"1063 1281.333 OFFCURVE",
"881.333 1430 OFFCURVE",
"584 1430 CURVE SMOOTH",
"298.667 1430 OFFCURVE",
"118.667 1284 OFFCURVE",
"84 1020 CURVE",
"268 1008 LINE",
"286.667 1170.667 OFFCURVE",
"399.333 1270 OFFCURVE",
"586 1270 CURVE SMOOTH",
"772.667 1270 OFFCURVE",
"881 1176 OFFCURVE",
"881 1024 CURVE SMOOTH",
"881 870.01 OFFCURVE",
"781.022 802.741 OFFCURVE",
"667 721.5 CURVE SMOOTH",
"613.667 683.5 OFFCURVE",
"559.333 643.333 OFFCURVE",
"518 590 CURVE SMOOTH",
"476.667 536.667 OFFCURVE",
"448.667 469 OFFCURVE",
"446 377 CURVE",
"621 377 LINE",
"622.333 467.667 OFFCURVE",
"668 542.667 OFFCURVE",
"764 612 CURVE SMOOTH",
"844 671 LINE SMOOTH",
"968 761.667 OFFCURVE",
"1011.667 819.333 OFFCURVE",
"1041 898 CURVE SMOOTH",
"1055.667 937.333 OFFCURVE",
"1063 982 OFFCURVE",
"1063 1032 CURVE"
);
},
{
closed = 1;
nodes = (
"438 0 LINE",
"633 0 LINE",
"633 201 LINE",
"438 201 LINE",
"438 0 LINE"
);
}
);
width = 1139;
}
);
note = question;
unicode = 003F;
},
{
glyphname = at;
lastChange = "2020-03-13 21:33:20 +0000";
layers = (
{
layerId = "489D640B-457E-495A-B1F8-D23C81511CE7";
paths = (
{
closed = 1;
nodes = (
"1902 755 LINE",
"1902 1045.667 OFFCURVE",
"1775.333 1272.833 OFFCURVE",
"1542 1393.5 CURVE SMOOTH",
"1425.333 1453.833 OFFCURVE",
"1286.667 1484 OFFCURVE",
"1126 1484 CURVE SMOOTH",
"760.667 1484 OFFCURVE",
"451.5 1305.333 OFFCURVE",
"285.5 1000 CURVE SMOOTH",
"202.5 847.333 OFFCURVE",
"161 677.667 OFFCURVE",
"161 491 CURVE SMOOTH",
"161 184.333 OFFCURVE",
"291.833 -60.167 OFFCURVE",
"532.5 -187.5 CURVE SMOOTH",
"652.833 -251.167 OFFCURVE",
"793.333 -283 OFFCURVE",
"954 -283 CURVE SMOOTH",
"1186 -283 OFFCURVE",
"1418.667 -221 OFFCURVE",
"1612 -105 CURVE",
"1557 7 LINE",
"1343.667 -109 OFFCURVE",
"1147.333 -155 OFFCURVE",
"954 -155 CURVE SMOOTH",
"690 -155 OFFCURVE",
"485.167 -46.167 OFFCURVE",
"380.5 150.5 CURVE SMOOTH",
"328.167 248.833 OFFCURVE",
"302 362.333 OFFCURVE",
"302 491 CURVE SMOOTH",
"302 824.333 OFFCURVE",
"452 1108.333 OFFCURVE",
"700 1251 CURVE SMOOTH",
"824 1322.333 OFFCURVE",
"966.667 1358 OFFCURVE",
"1128 1358 CURVE SMOOTH",
"1386.667 1358 OFFCURVE",
"1586.333 1255.167 OFFCURVE",
"1689 1070.5 CURVE SMOOTH",
"1740.333 978.167 OFFCURVE",
"1766 872.333 OFFCURVE",
"1766 753 CURVE SMOOTH",
"1766 557 OFFCURVE",
"1710.5 387 OFFCURVE",
"1620.5 295 CURVE SMOOTH",
"1575.5 249 OFFCURVE",
"1526.333 226 OFFCURVE",
"1473 226 CURVE SMOOTH",
"1419 226 OFFCURVE",
"1392 257.333 OFFCURVE",
"1392 320 CURVE SMOOTH",
"1392 379.333 OFFCURVE",
"1404.333 463.667 OFFCURVE",
"1429 573 CURVE SMOOTH",
"1545 1079 LINE",
"1389 1079 LINE",
"1350 919 LINE",
"1344 919 LINE",
"1289.333 1040.333 OFFCURVE",
"1189 1101 OFFCURVE",
"1043 1101 CURVE SMOOTH",
"855 1101 OFFCURVE",
"691.5 982 OFFCURVE",
"605.5 794 CURVE SMOOTH",
"562.5 700 OFFCURVE",
"541 598.333 OFFCURVE",
"541 489 CURVE SMOOTH",
"541 247.667 OFFCURVE",
"661.667 104 OFFCURVE",
"871 104 CURVE SMOOTH",
"1021.667 104 OFFCURVE",
"1157 186 OFFCURVE",
"1245 350 CURVE",
"1251 350 LINE",
"1248 280 LINE SMOOTH",
"1248 162.667 OFFCURVE",
"1323 104 OFFCURVE",
"1455 104 CURVE SMOOTH",
"1624.333 104 OFFCURVE",
"1767.833 217.833 OFFCURVE",
"1844.5 418.5 CURVE SMOOTH",
"1882.833 518.833 OFFCURVE",
"1902 631 OFFCURVE",
"1902 755 CURVE"
);
},
{
closed = 1;
nodes = (
"1296 747 LINE",
"1296 711.667 OFFCURVE",
"1288.333 663.333 OFFCURVE",
"1273 602 CURVE SMOOTH",
"1219.667 392.667 OFFCURVE",
"1066.667 235 OFFCURVE",
"900 235 CURVE SMOOTH",
"768 235 OFFCURVE",
"706 331 OFFCURVE",
"706 491 CURVE SMOOTH",
"706 665.667 OFFCURVE",
"769.833 825.833 OFFCURVE",
"874.5 910.5 CURVE SMOOTH",
"926.833 952.833 OFFCURVE",
"986.667 974 OFFCURVE",
"1054 974 CURVE SMOOTH",
"1200.667 974 OFFCURVE",
"1296 883 OFFCURVE",
"1296 747 CURVE"
);
}
);
width = 2079;
}
);
note = at;
unicode = 0040;
},
{
glyphname = A;
lastChange = "2020-03-13 21:33:20 +0000";
layers = (
{
layerId = "489D640B-457E-495A-B1F8-D23C81511CE7";
paths = (
{
closed = 1;
nodes = (
"1167 0 LINE",
"1362 0 LINE",
"796 1409 LINE",
"579 1409 LINE",
"4 0 LINE",
"202 0 LINE",
"364 412 LINE",
"1006 412 LINE",
"1167 0 LINE"
);
},
{
closed = 1;
nodes = (
"685 1265 LINE",
"712 1182 LINE SMOOTH",
"730.667 1124 OFFCURVE",
"749.333 1072 OFFCURVE",
"768 1026 CURVE SMOOTH",
"949 561 LINE",
"422 561 LINE",
"602 1024 LINE SMOOTH",
"634.667 1110.667 OFFCURVE",
"659.333 1181.667 OFFCURVE",
"676 1237 CURVE SMOOTH",
"685 1265 LINE"
);
}
);
width = 1366;
}
);
note = A;
unicode = 0041;
},
{
glyphname = B;
lastChange = "2020-03-13 21:33:20 +0000";
layers = (
{
layerId = "489D640B-457E-495A-B1F8-D23C81511CE7";
paths = (
{
closed = 1;
nodes = (
"1258 397 LINE",
"1258 585 OFFCURVE",
"1132 716.333 OFFCURVE",
"908 743 CURVE",
"1078.667 781.667 OFFCURVE",
"1176 900.333 OFFCURVE",
"1176 1067 CURVE SMOOTH",
"1176 1295 OFFCURVE",
"1010.667 1409 OFFCURVE",
"680 1409 CURVE SMOOTH",
"168 1409 LINE",
"168 0 LINE",
"740 0 LINE SMOOTH",
"1065.333 0 OFFCURVE",
"1258 146.333 OFFCURVE",
"1258 397 CURVE"
);
},
{
closed = 1;
nodes = (
"984 1044 LINE",
"984 885.333 OFFCURVE",
"884 810 OFFCURVE",
"680 810 CURVE SMOOTH",
"359 810 LINE",
"359 1256 LINE",
"680 1256 LINE SMOOTH",
"877.333 1256 OFFCURVE",
"984 1196 OFFCURVE",
"984 1044 CURVE"
);
},
{
closed = 1;
nodes = (
"1065 412 LINE",
"1065 240 OFFCURVE",
"963.333 153 OFFCURVE",
"730 153 CURVE SMOOTH",
"359 153 LINE",
"359 661 LINE",
"715 661 LINE SMOOTH",
"948.333 661 OFFCURVE",
"1065 578 OFFCURVE",
"1065 412 CURVE"
);
}
);
width = 1366;
}
);
note = B;
unicode = 0042;
},
{
glyphname = C;
lastChange = "2020-03-13 21:33:20 +0000";
layers = (
{
layerId = "489D640B-457E-495A-B1F8-D23C81511CE7";
paths = (
{
closed = 1;
nodes = (
"792 1274 LINE",
"990.667 1274 OFFCURVE",
"1141.667 1185 OFFCURVE",
"1207 1021 CURVE",
"1388 1081 LINE",
"1293.333 1311.667 OFFCURVE",
"1090 1430 OFFCURVE",
"790 1430 CURVE SMOOTH",
"360.667 1430 OFFCURVE",
"104 1160.333 OFFCURVE",
"104 711 CURVE SMOOTH",
"104 411 OFFCURVE",
"215.167 186.5 OFFCURVE",
"422.5 68.5 CURVE SMOOTH",
"526.167 9.5 OFFCURVE",
"649 -20 OFFCURVE",
"791 -20 CURVE SMOOTH",
"1068.333 -20 OFFCURVE",
"1285 109.333 OFFCURVE",
"1401 352 CURVE",
"1245 430 LINE",
"1145.667 234.667 OFFCURVE",
"997.333 137 OFFCURVE",
"800 137 CURVE SMOOTH",
"492 137 OFFCURVE",
"298 365.667 OFFCURVE",
"298 711 CURVE SMOOTH",
"298 1060.333 OFFCURVE",
"480 1274 OFFCURVE",
"792 1274 CURVE"
);
}
);
width = 1479;
}
);
note = C;
unicode = 0043;
},
{
glyphname = D;
lastChange = "2020-03-13 21:33:20 +0000";
layers = (
{
layerId = "489D640B-457E-495A-B1F8-D23C81511CE7";
paths = (
{
closed = 1;
nodes = (
"1381 719 LINE",
"1381 1160.333 OFFCURVE",
"1111.333 1409 OFFCURVE",
"634 1409 CURVE SMOOTH",
"168 1409 LINE",
"168 0 LINE",
"695 0 LINE SMOOTH",
"967 0 OFFCURVE",
"1182.667 119.5 OFFCURVE",
"1296 337.5 CURVE SMOOTH",
"1352.667 446.5 OFFCURVE",
"1381 573.667 OFFCURVE",
"1381 719 CURVE"
);
},
{
closed = 1;
nodes = (
"1189 719 LINE",
"1189 487 OFFCURVE",
"1102.167 311.667 OFFCURVE",
"945.5 221 CURVE SMOOTH",
"867.167 175.667 OFFCURVE",
"776.333 153 OFFCURVE",
"673 153 CURVE SMOOTH",
"359 153 LINE",
"359 1256 LINE",
"630 1256 LINE SMOOTH",
"992.667 1256 OFFCURVE",
"1189 1068.333 OFFCURVE",
"1189 719 CURVE"
);
}
);
width = 1479;
}
);
note = D;
unicode = 0044;
},
{
glyphname = E;
lastChange = "2020-03-13 21:33:20 +0000";
layers = (
{
layerId = "489D640B-457E-495A-B1F8-D23C81511CE7";
paths = (
{
closed = 1;
nodes = (
"168 0 LINE",
"1278 0 LINE",
"1278 156 LINE",
"359 156 LINE",
"359 647 LINE",
"1177 647 LINE",
"1177 801 LINE",
"359 801 LINE",
"359 1253 LINE",
"1237 1253 LINE",
"1237 1409 LINE",
"168 1409 LINE",
"168 0 LINE"
);
}
);
width = 1366;
}
);
note = E;
unicode = 0045;
},
{
glyphname = F;
lastChange = "2020-03-13 21:33:20 +0000";
layers = (
{
layerId = "489D640B-457E-495A-B1F8-D23C81511CE7";
paths = (
{
closed = 1;
nodes = (
"359 1253 LINE",
"1169 1253 LINE",
"1169 1409 LINE",
"168 1409 LINE",
"168 0 LINE",
"359 0 LINE",
"359 571 LINE",
"1145 571 LINE",
"1145 729 LINE",
"359 729 LINE",
"359 1253 LINE"
);
}
);
width = 1251;
}
);
note = F;
unicode = 0046;
},
{
glyphname = G;
lastChange = "2020-03-13 21:33:20 +0000";
layers = (
{
layerId = "489D640B-457E-495A-B1F8-D23C81511CE7";
paths = (
{
closed = 1;
nodes = (
"103 711 LINE",
"103 412.333 OFFCURVE",
"218.667 185.333 OFFCURVE",
"432 68 CURVE SMOOTH",
"538.667 9.333 OFFCURVE",
"665.667 -20 OFFCURVE",
"813 -20 CURVE SMOOTH",
"1066.333 -20 OFFCURVE",
"1290.667 67 OFFCURVE",
"1440 219 CURVE",
"1440 705 LINE",
"843 705 LINE",
"843 545 LINE",
"1264 545 LINE",
"1264 291 LINE",
"1165.333 195 OFFCURVE",
"997 135 OFFCURVE",
"813 135 CURVE SMOOTH",
"490.333 135 OFFCURVE",
"297 355 OFFCURVE",
"297 711 CURVE SMOOTH",
"297 1068.333 OFFCURVE",
"473.667 1274 OFFCURVE",
"799 1274 CURVE SMOOTH",
"1008.333 1274 OFFCURVE",
"1147 1204 OFFCURVE",
"1227 1044 CURVE",
"1409 1098 LINE",
"1303.667 1330 OFFCURVE",
"1116 1430 OFFCURVE",
"804 1430 CURVE SMOOTH",
"360 1430 OFFCURVE",
"103 1168.333 OFFCURVE",
"103 711 CURVE"
);
}
);
width = 1593;
}
);
note = G;
unicode = 0047;
},
{
glyphname = H;
lastChange = "2020-03-13 21:33:20 +0000";
layers = (
{
layerId = "489D640B-457E-495A-B1F8-D23C81511CE7";
paths = (
{
closed = 1;
nodes = (
"1121 0 LINE",
"1312 0 LINE",
"1312 1409 LINE",
"1121 1409 LINE",
"1121 813 LINE",
"359 813 LINE",
"359 1409 LINE",
"168 1409 LINE",
"168 0 LINE",
"359 0 LINE",
"359 653 LINE",
"1121 653 LINE",
"1121 0 LINE"
);
}
);
width = 1479;
}
);
note = H;
unicode = 0048;
},
{
glyphname = I;
lastChange = "2020-03-13 21:33:20 +0000";
layers = (
{
layerId = "489D640B-457E-495A-B1F8-D23C81511CE7";
paths = (
{
closed = 1;
nodes = (
"189 0 LINE",
"380 0 LINE",
"380 1409 LINE",
"189 1409 LINE",
"189 0 LINE"
);
}
);
width = 569;
}
);
note = I;
unicode = 0049;
},
{
glyphname = J;
lastChange = "2020-03-13 21:33:20 +0000";
layers = (
{
layerId = "489D640B-457E-495A-B1F8-D23C81511CE7";
paths = (
{
closed = 1;
nodes = (
"457 -20 LINE",
"714.333 -20 OFFCURVE",
"872 146.667 OFFCURVE",
"872 420 CURVE SMOOTH",
"872 1409 LINE",
"411 1409 LINE",
"411 1253 LINE",
"682 1253 LINE",
"682 416 LINE SMOOTH",
"682 232 OFFCURVE",
"596.667 135 OFFCURVE",
"458 135 CURVE SMOOTH",
"331.333 135 OFFCURVE",
"243 226.333 OFFCURVE",
"219 381 CURVE",
"32 350 LINE",
"76.667 103.333 OFFCURVE",
"218.333 -20 OFFCURVE",
"457 -20 CURVE"
);
}
);
width = 1024;
}
);
note = J;
unicode = 004A;
},
{
glyphname = K;
lastChange = "2020-03-13 21:33:20 +0000";
layers = (
{
layerId = "489D640B-457E-495A-B1F8-D23C81511CE7";
paths = (
{
closed = 1;
nodes = (
"1106 0 LINE",
"1343 0 LINE",
"663 797 LINE",
"1263 1409 LINE",
"1038 1409 LINE",
"359 703 LINE",
"359 1409 LINE",
"168 1409 LINE",
"168 0 LINE",
"359 0 LINE",
"359 540 LINE",
"543 680 LINE",
"1106 0 LINE"
);
}
);
width = 1366;
}
);
note = K;
unicode = 004B;
},
{
glyphname = L;
lastChange = "2020-03-13 21:33:20 +0000";
layers = (
{
layerId = "489D640B-457E-495A-B1F8-D23C81511CE7";
paths = (
{
closed = 1;
nodes = (
"168 0 LINE",
"1071 0 LINE",
"1071 156 LINE",
"359 156 LINE",
"359 1409 LINE",
"168 1409 LINE",
"168 0 LINE"
);
}
);
width = 1139;
}
);
note = L;
unicode = 004C;
},
{
glyphname = M;
lastChange = "2020-03-13 21:33:20 +0000";
layers = (
{
layerId = "489D640B-457E-495A-B1F8-D23C81511CE7";
paths = (
{
closed = 1;
nodes = (
"1366 0 LINE",
"1538 0 LINE",
"1538 1409 LINE",
"1293 1409 LINE",
"925 432 LINE SMOOTH",
"913 404 OFFCURVE",
"867.667 261.333 OFFCURVE",
"857 208 CURVE",
"849 248 OFFCURVE",
"820.667 353.333 OFFCURVE",
"794 432 CURVE",
"419 1409 LINE",
"168 1409 LINE",
"168 0 LINE",
"338 0 LINE",
"338 940 LINE",
"334 1129 LINE",
"331 1240 LINE",
"364 1130 LINE",
"420 960 LINE",
"789 0 LINE",
"923 0 LINE",
"1287 960 LINE SMOOTH",
"1313 1027.333 OFFCURVE",
"1342.333 1120.667 OFFCURVE",
"1375 1240 CURVE",
"1369 1144 OFFCURVE",
"1366 1044 OFFCURVE",
"1366 940 CURVE SMOOTH",
"1366 0 LINE"
);
}
);
width = 1706;
}
);
note = M;
unicode = 004D;
},
{
glyphname = N;
lastChange = "2020-03-13 21:33:20 +0000";
layers = (
{
layerId = "489D640B-457E-495A-B1F8-D23C81511CE7";
paths = (
{
closed = 1;
nodes = (
"1082 0 LINE",
"1312 0 LINE",
"1312 1409 LINE",
"1140 1409 LINE",
"1140 485 LINE SMOOTH",
"1140 426.333 OFFCURVE",
"1144 331.667 OFFCURVE",
"1152 201 CURVE",
"390 1409 LINE",
"168 1409 LINE",
"168 0 LINE",
"338 0 LINE",
"338 936 LINE",
"333 1103 LINE",
"328 1200 LINE",
"1082 0 LINE"
);
}
);
width = 1479;
}
);
note = N;
unicode = 004E;
},
{
glyphname = O;
lastChange = "2020-03-13 21:33:20 +0000";
layers = (
{
layerId = "489D640B-457E-495A-B1F8-D23C81511CE7";
paths = (
{
closed = 1;
nodes = (
"1495 711 LINE",
"1495 1007 OFFCURVE",
"1380.667 1230.5 OFFCURVE",
"1170 1344.5 CURVE SMOOTH",
"1064.667 1401.5 OFFCURVE",
"940.333 1430 OFFCURVE",
"797 1430 CURVE SMOOTH",
"357 1430 OFFCURVE",
"97 1161.667 OFFCURVE",
"97 711 CURVE SMOOTH",
"97 415 OFFCURVE",
"210.5 185.333 OFFCURVE",
"420.5 68 CURVE SMOOTH",
"525.5 9.333 OFFCURVE",
"650.333 -20 OFFCURVE",
"795 -20 CURVE SMOOTH",
"1081.667 -20 OFFCURVE",
"1297.833 102.667 OFFCURVE",
"1410.5 324 CURVE SMOOTH",
"1466.833 434.667 OFFCURVE",
"1495 563.667 OFFCURVE",
"1495 711 CURVE"
);
},
{
closed = 1;
nodes = (
"1300 711 LINE",
"1300 344.333 OFFCURVE",
"1120.333 135 OFFCURVE",
"795 135 CURVE SMOOTH",
"479 135 OFFCURVE",
"291 357.667 OFFCURVE",
"291 711 CURVE SMOOTH",
"291 1067 OFFCURVE",
"474.333 1274 OFFCURVE",
"797 1274 CURVE SMOOTH",
"1117 1274 OFFCURVE",
"1300 1061.667 OFFCURVE",
"1300 711 CURVE"
);
}
);
width = 1593;
}
);
note = O;
unicode = 004F;
},
{
glyphname = P;
lastChange = "2020-03-13 21:33:20 +0000";
layers = (
{
layerId = "489D640B-457E-495A-B1F8-D23C81511CE7";
paths = (
{
closed = 1;
nodes = (
"1258 985 LINE",
"1258 1254.333 OFFCURVE",
"1077 1409 OFFCURVE",
"761 1409 CURVE SMOOTH",
"168 1409 LINE",
"168 0 LINE",
"359 0 LINE",
"359 549 LINE",
"773 549 LINE SMOOTH",
"1071.667 549 OFFCURVE",
"1258 718.333 OFFCURVE",
"1258 985 CURVE"
);
},
{
closed = 1;
nodes = (
"1066 983 LINE",
"1066 794.333 OFFCURVE",
"959.333 700 OFFCURVE",
"746 700 CURVE SMOOTH",
"359 700 LINE",
"359 1256 LINE",
"738 1256 LINE SMOOTH",
"956.667 1256 OFFCURVE",
"1066 1165 OFFCURVE",
"1066 983 CURVE"
);
}
);
width = 1366;
}
);
note = P;
unicode = 0050;
},
{
glyphname = Q;
lastChange = "2020-03-13 21:33:20 +0000";
layers = (
{
layerId = "489D640B-457E-495A-B1F8-D23C81511CE7";
paths = (
{
closed = 1;
nodes = (
"1495 711 LINE",
"1495 1007 OFFCURVE",
"1380.667 1230.5 OFFCURVE",
"1170 1344.5 CURVE SMOOTH",
"1064.667 1401.5 OFFCURVE",
"940.333 1430 OFFCURVE",
"797 1430 CURVE SMOOTH",
"357 1430 OFFCURVE",
"97 1161.667 OFFCURVE",
"97 711 CURVE SMOOTH",
"97 427 OFFCURVE",
"200.167 205.167 OFFCURVE",
"391.5 84.5 CURVE SMOOTH",
"487.167 24.167 OFFCURVE",
"601 -9.333 OFFCURVE",
"733 -16 CURVE",
"815.667 -282.667 OFFCURVE",
"939.667 -387 OFFCURVE",
"1141 -387 CURVE SMOOTH",
"1197.667 -387 OFFCURVE",
"1257 -379.667 OFFCURVE",
"1319 -365 CURVE",
"1319 -231 LINE",
"1279 -239.667 OFFCURVE",
"1240.667 -244 OFFCURVE",
"1204 -244 CURVE SMOOTH",
"1068 -244 OFFCURVE",
"982.667 -174 OFFCURVE",
"928 -6 CURVE",
"1284 40.667 OFFCURVE",
"1495 313.667 OFFCURVE",
"1495 711 CURVE"
);
},
{
closed = 1;
nodes = (
"1300 711 LINE",
"1300 344.333 OFFCURVE",
"1120.333 135 OFFCURVE",
"795 135 CURVE SMOOTH",
"479 135 OFFCURVE",
"291 357.667 OFFCURVE",
"291 711 CURVE SMOOTH",
"291 1067 OFFCURVE",
"474.333 1274 OFFCURVE",
"797 1274 CURVE SMOOTH",
"1117 1274 OFFCURVE",
"1300 1061.667 OFFCURVE",
"1300 711 CURVE"
);
}
);
width = 1593;
}
);
note = Q;
unicode = 0051;
},
{
glyphname = R;
lastChange = "2020-03-13 21:33:20 +0000";
layers = (
{
layerId = "489D640B-457E-495A-B1F8-D23C81511CE7";
paths = (
{
closed = 1;
nodes = (
"1164 0 LINE",
"1384 0 LINE",
"984 607 LINE",
"1198.667 644.333 OFFCURVE",
"1328 796.667 OFFCURVE",
"1328 1006 CURVE SMOOTH",
"1328 1259.333 OFFCURVE",
"1148.333 1409 OFFCURVE",
"831 1409 CURVE SMOOTH",
"168 1409 LINE",
"168 0 LINE",
"359 0 LINE",
"359 585 LINE",
"798 585 LINE",
"1164 0 LINE"
);
},
{
closed = 1;
nodes = (
"1136 1004 LINE",
"1136 834.667 OFFCURVE",
"1021.333 736 OFFCURVE",
"820 736 CURVE SMOOTH",
"359 736 LINE",
"359 1256 LINE",
"812 1256 LINE SMOOTH",
"1021.333 1256 OFFCURVE",
"1136 1168 OFFCURVE",
"1136 1004 CURVE"
);
}
);
width = 1479;
}
);
note = R;
unicode = 0052;
},
{
glyphname = S;
lastChange = "2020-03-13 21:33:20 +0000";
layers = (
{
layerId = "489D640B-457E-495A-B1F8-D23C81511CE7";
paths = (
{
closed = 1;
nodes = (
"1272 389 LINE",
"1272 491.667 OFFCURVE",
"1241.667 566 OFFCURVE",
"1191 622 CURVE SMOOTH",
"1165.667 650 OFFCURVE",
"1135.833 673.667 OFFCURVE",
"1101.5 693 CURVE SMOOTH",
"1032.833 731.667 OFFCURVE",
"953.5 759.833 OFFCURVE",
"867.5 780.5 CURVE SMOOTH",
"824.5 790.833 OFFCURVE",
"781.333 801 OFFCURVE",
"738 811 CURVE SMOOTH",
"608.667 839.667 OFFCURVE",
"522.333 863.833 OFFCURVE",
"479 883.5 CURVE SMOOTH",
"392.333 922.833 OFFCURVE",
"345 976.333 OFFCURVE",
"345 1063 CURVE SMOOTH",
"345 1211 OFFCURVE",
"466.667 1286 OFFCURVE",
"692 1286 CURVE SMOOTH",
"897.333 1286 OFFCURVE",
"1009.667 1222.333 OFFCURVE",
"1051 1073 CURVE",
"1239 1106 LINE",
"1171 1342 OFFCURVE",
"1014 1430 OFFCURVE",
"694 1430 CURVE SMOOTH",
"350 1430 OFFCURVE",
"159 1294.333 OFFCURVE",
"159 1053 CURVE SMOOTH",
"159 947.667 OFFCURVE",
"195.333 867.167 OFFCURVE",
"262 806.5 CURVE SMOOTH",
"328.667 745.833 OFFCURVE",
"429.333 699.333 OFFCURVE",
"652 650 CURVE SMOOTH",
"780 620.667 OFFCURVE",
"887 599.333 OFFCURVE",
"963 562 CURVE SMOOTH",
"1039 524.667 OFFCURVE",
"1083 471 OFFCURVE",
"1083 379 CURVE SMOOTH",
"1083 215 OFFCURVE",
"943.667 129 OFFCURVE",
"697 129 CURVE SMOOTH",
"458.333 129 OFFCURVE",
"320.667 205.667 OFFCURVE",
"278 375 CURVE",
"93 338 LINE",
"147.667 99.333 OFFCURVE",
"346.667 -20 OFFCURVE",
"690 -20 CURVE SMOOTH",
"1059.333 -20 OFFCURVE",
"1272 129 OFFCURVE",
"1272 389 CURVE"
);
}
);
width = 1366;
}
);
note = S;
unicode = 0053;
},
{
glyphname = T;
lastChange = "2020-03-13 21:33:20 +0000";
layers = (
{
layerId = "489D640B-457E-495A-B1F8-D23C81511CE7";
paths = (
{
closed = 1;
nodes = (
"720 1253 LINE",
"1204 1253 LINE",
"1204 1409 LINE",
"46 1409 LINE",
"46 1253 LINE",
"530 1253 LINE",
"530 0 LINE",
"720 0 LINE",
"720 1253 LINE"
);
}
);
width = 1251;
}
);
note = T;
unicode = 0054;
},
{
glyphname = U;
lastChange = "2020-03-13 21:33:20 +0000";
layers = (
{
layerId = "489D640B-457E-495A-B1F8-D23C81511CE7";
paths = (
{
closed = 1;
nodes = (
"731 -20 LINE",
"971 -20 OFFCURVE",
"1151.833 69.667 OFFCURVE",
"1248.5 235 CURVE SMOOTH",
"1296.833 317.667 OFFCURVE",
"1321 416 OFFCURVE",
"1321 530 CURVE SMOOTH",
"1321 1409 LINE",
"1131 1409 LINE",
"1131 541 LINE SMOOTH",
"1131 275.667 OFFCURVE",
"983.333 135 OFFCURVE",
"730 135 CURVE SMOOTH",
"483.333 135 OFFCURVE",
"349 270.667 OFFCURVE",
"349 528 CURVE SMOOTH",
"349 1409 LINE",
"158 1409 LINE",
"158 512 LINE SMOOTH",
"158 290.667 OFFCURVE",
"257 127 OFFCURVE",
"429 43 CURVE SMOOTH",
"515 1 OFFCURVE",
"615.667 -20 OFFCURVE",
"731 -20 CURVE"
);
}
);
width = 1479;
}
);
note = U;
unicode = 0055;
},
{
glyphname = V;
lastChange = "2020-03-13 21:33:20 +0000";
layers = (
{
layerId = "489D640B-457E-495A-B1F8-D23C81511CE7";
paths = (
{
closed = 1;
nodes = (
"782 0 LINE",
"1357 1409 LINE",
"1156 1409 LINE",
"768 417 LINE",
"684 168 LINE",
"600 417 LINE",
"210 1409 LINE",
"9 1409 LINE",
"584 0 LINE",
"782 0 LINE"
);
}
);
width = 1366;
}
);
note = V;
unicode = 0056;
},
{
glyphname = W;
lastChange = "2020-03-13 21:33:20 +0000";
layers = (
{
layerId = "489D640B-457E-495A-B1F8-D23C81511CE7";
paths = (
{
closed = 1;
nodes = (
"1511 0 LINE",
"1926 1409 LINE",
"1727 1409 LINE",
"1551 778.333 OFFCURVE",
"1457.333 438.833 OFFCURVE",
"1446 390.5 CURVE SMOOTH",
"1434.667 342.167 OFFCURVE",
"1420 279.667 OFFCURVE",
"1402 203 CURVE SMOOTH",
"1393 168 LINE",
"1371.667 267.333 OFFCURVE",
"1342.333 388.667 OFFCURVE",
"1305 532 CURVE SMOOTH",
"1060 1409 LINE",
"877 1409 LINE",
"713 828.333 OFFCURVE",
"620.5 494.667 OFFCURVE",
"599.5 408 CURVE SMOOTH",
"578.5 321.333 OFFCURVE",
"560 241.333 OFFCURVE",
"544 168 CURVE",
"518.667 286.667 OFFCURVE",
"491 402 OFFCURVE",
"461 514 CURVE SMOOTH",
"208 1409 LINE",
"9 1409 LINE",
"424 0 LINE",
"652 0 LINE",
"822 616 OFFCURVE",
"913 950 OFFCURVE",
"925 1002 CURVE SMOOTH",
"937 1054 OFFCURVE",
"951.667 1118.667 OFFCURVE",
"969 1196 CURVE",
"999.667 1051.333 OFFCURVE",
"1023 951 OFFCURVE",
"1039 895 CURVE SMOOTH",
"1283 0 LINE",
"1511 0 LINE"
);
}
);
width = 1933;
}
);
note = W;
unicode = 0057;
},
{
glyphname = X;
lastChange = "2020-03-13 21:33:20 +0000";
layers = (
{
layerId = "489D640B-457E-495A-B1F8-D23C81511CE7";
paths = (
{
closed = 1;
nodes = (
"1112 0 LINE",
"1323 0 LINE",
"800 739 LINE",
"1282 1409 LINE",
"1071 1409 LINE",
"690 856 LINE",
"298 1409 LINE",
"87 1409 LINE",
"582 732 LINE",
"46 0 LINE",
"257 0 LINE",
"689 616 LINE",
"1112 0 LINE"
);
}
);
width = 1366;
}
);
note = X;
unicode = 0058;
},
{
glyphname = Y;
lastChange = "2020-03-13 21:33:20 +0000";
layers = (
{
layerId = "489D640B-457E-495A-B1F8-D23C81511CE7";
paths = (
{
closed = 1;
nodes = (
"777 584 LINE",
"1321 1409 LINE",
"1111 1409 LINE",
"684 738 LINE",
"255 1409 LINE",
"45 1409 LINE",
"587 584 LINE",
"587 0 LINE",
"777 0 LINE",
"777 584 LINE"
);
}
);
width = 1366;
}
);
note = Y;
unicode = 0059;
},
{
glyphname = Z;
lastChange = "2020-03-13 21:33:20 +0000";
layers = (
{
layerId = "489D640B-457E-495A-B1F8-D23C81511CE7";
paths = (
{
closed = 1;
nodes = (
"1187 0 LINE",
"1187 156 LINE",
"282 156 LINE",
"1140 1270 LINE",
"1140 1409 LINE",
"138 1409 LINE",
"138 1253 LINE",
"923 1253 LINE",
"65 143 LINE",
"65 0 LINE",
"1187 0 LINE"
);
}
);
width = 1251;
}
);
note = Z;
unicode = 005A;
},
{
glyphname = bracketleft;
lastChange = "2020-03-13 21:33:20 +0000";
layers = (
{
layerId = "489D640B-457E-495A-B1F8-D23C81511CE7";
paths = (
{
closed = 1;
nodes = (
"146 -425 LINE",
"553 -425 LINE",
"553 -296 LINE",
"320 -296 LINE",
"320 1355 LINE",
"553 1355 LINE",
"553 1484 LINE",
"146 1484 LINE",
"146 -425 LINE"
);
}
);
width = 569;
}
);
note = bracketleft;
unicode = 005B;
},
{
glyphname = backslash;
lastChange = "2020-03-13 21:33:20 +0000";
layers = (
{
layerId = "489D640B-457E-495A-B1F8-D23C81511CE7";
paths = (
{
closed = 1;
nodes = (
"407 -20 LINE",
"569 -20 LINE",
"158 1484 LINE",
"0 1484 LINE",
"407 -20 LINE"
);
}
);
width = 569;
}
);
note = backslash;
unicode = 005C;
},
{
glyphname = bracketright;
lastChange = "2020-03-13 21:33:20 +0000";
layers = (
{
layerId = "489D640B-457E-495A-B1F8-D23C81511CE7";
paths = (
{
closed = 1;
nodes = (
"16 -425 LINE",
"423 -425 LINE",
"423 1484 LINE",
"16 1484 LINE",
"16 1355 LINE",
"249 1355 LINE",
"249 -296 LINE",
"16 -296 LINE",
"16 -425 LINE"
);
}
);
width = 569;
}
);
note = bracketright;
unicode = 005D;
},
{
glyphname = asciicircum;
lastChange = "2020-03-13 21:33:20 +0000";
layers = (
{
layerId = "489D640B-457E-495A-B1F8-D23C81511CE7";
paths = (
{
closed = 1;
nodes = (
"787 673 LINE",
"951 673 LINE",
"581 1409 LINE",
"378 1409 LINE",
"10 673 LINE",
"172 673 LINE",
"478 1306 LINE",
"787 673 LINE"
);
}
);
width = 961;
}
);
note = asciicircum;
unicode = 005E;
},
{
glyphname = underscore;
lastChange = "2020-03-13 21:33:20 +0000";
layers = (
{
layerId = "489D640B-457E-495A-B1F8-D23C81511CE7";
paths = (
{
closed = 1;
nodes = (
"-31 -407 LINE",
"1162 -407 LINE",
"1162 -277 LINE",
"-31 -277 LINE",
"-31 -407 LINE"
);
}
);
width = 1139;
}
);
note = underscore;
unicode = 005F;
},
{
glyphname = grave;
lastChange = "2020-03-13 21:33:20 +0000";
layers = (
{
layerId = "489D640B-457E-495A-B1F8-D23C81511CE7";
paths = (
{
closed = 1;
nodes = (
"436 1201 LINE",
"530 1201 LINE",
"530 1221 LINE",
"313 1508 LINE",
"106 1508 LINE",
"106 1479 LINE",
"436 1201 LINE"
);
}
);
width = 682;
}
);
note = grave;
unicode = 0060;
},
{
glyphname = a;
lastChange = "2020-03-13 21:33:20 +0000";
layers = (
{
layerId = "489D640B-457E-495A-B1F8-D23C81511CE7";
paths = (
{
closed = 1;
nodes = (
"414 -20 LINE",
"588.667 -20 OFFCURVE",
"705 41.667 OFFCURVE",
"797 207 CURVE",
"803 207 LINE",
"811 57.667 OFFCURVE",
"866.667 -10 OFFCURVE",
"1000 -10 CURVE SMOOTH",
"1047.333 -10 OFFCURVE",
"1093.667 -4.667 OFFCURVE",
"1139 6 CURVE",
"1139 118 LINE",
"1117 113.333 OFFCURVE",
"1097.333 111 OFFCURVE",
"1080 111 CURVE SMOOTH",
"1001.333 111 OFFCURVE",
"979 165.333 OFFCURVE",
"979 272 CURVE SMOOTH",
"979 738 LINE SMOOTH",
"979 974 OFFCURVE",
"841 1102 OFFCURVE",
"569 1102 CURVE SMOOTH",
"310.333 1102 OFFCURVE",
"165.667 1004.667 OFFCURVE",
"135 810 CURVE",
"323 793 LINE",
"337.667 913 OFFCURVE",
"403.667 965 OFFCURVE",
"565 965 CURVE SMOOTH",
"725 965 OFFCURVE",
"797 895 OFFCURVE",
"797 719 CURVE SMOOTH",
"797 660 LINE",
"554 656 LINE SMOOTH",
"226 648 OFFCURVE",
"87 526 OFFCURVE",
"87 302 CURVE SMOOTH",
"87 102 OFFCURVE",
"196.667 -20 OFFCURVE",
"414 -20 CURVE"
);
},
{
closed = 1;
nodes = (
"455 115 LINE",
"337.667 115 OFFCURVE",
"272 181.667 OFFCURVE",
"272 299 CURVE SMOOTH",
"272 407 OFFCURVE",
"320.167 472 OFFCURVE",
"407.5 504 CURVE SMOOTH",
"451.167 520 OFFCURVE",
"515.333 528.667 OFFCURVE",
"600 530 CURVE SMOOTH",
"797 534 LINE",
"797 445 LINE SMOOTH",
"797 334.333 OFFCURVE",
"733.667 220 OFFCURVE",
"631 160 CURVE SMOOTH",
"579.667 130 OFFCURVE",
"521 115 OFFCURVE",
"455 115 CURVE"
);
}
);
width = 1139;
}
);
note = a;
unicode = 0061;
},
{
glyphname = b;
lastChange = "2020-03-13 21:33:20 +0000";
layers = (
{
layerId = "489D640B-457E-495A-B1F8-D23C81511CE7";
paths = (
{
closed = 1;
nodes = (
"1053 546 LINE",
"1053 919.333 OFFCURVE",
"928.333 1102 OFFCURVE",
"655 1102 CURVE SMOOTH",
"492.333 1102 OFFCURVE",
"384.667 1046.667 OFFCURVE",
"318 908 CURVE",
"314 908 LINE",
"316.667 966.667 OFFCURVE",
"318 1017.667 OFFCURVE",
"318 1061 CURVE SMOOTH",
"318 1484 LINE",
"138 1484 LINE",
"138 223 LINE SMOOTH",
"138 110.333 OFFCURVE",
"136 36 OFFCURVE",
"132 0 CURVE",
"306 0 LINE",
"308.667 13.333 OFFCURVE",
"316 126.667 OFFCURVE",
"316 168 CURVE",
"318 168 LINE",
"386 36 OFFCURVE",
"491 -20 OFFCURVE",
"655 -20 CURVE SMOOTH",
"920.333 -20 OFFCURVE",
"1053 168.667 OFFCURVE",
"1053 546 CURVE"
);
},
{
closed = 1;
nodes = (
"864 540 LINE",
"864 238.667 OFFCURVE",
"788.333 113 OFFCURVE",
"607 113 CURVE SMOOTH",
"403 113 OFFCURVE",
"318 245 OFFCURVE",
"318 529 CURVE SMOOTH",
"318 830.333 OFFCURVE",
"406.333 963 OFFCURVE",
"609 963 CURVE SMOOTH",
"789 963 OFFCURVE",
"864 842.667 OFFCURVE",
"864 540 CURVE"
);
}
);
width = 1139;
}
);
note = b;
unicode = 0062;
},
{
glyphname = c;
lastChange = "2020-03-13 21:33:20 +0000";
layers = (
{
layerId = "489D640B-457E-495A-B1F8-D23C81511CE7";
paths = (
{
closed = 1;
nodes = (
"275 546 LINE",
"275 846 OFFCURVE",
"355.333 961 OFFCURVE",
"546 961 CURVE SMOOTH",
"686 961 OFFCURVE",
"760.333 885 OFFCURVE",
"779 765 CURVE",
"964 779 LINE",
"926.667 980.333 OFFCURVE",
"772.333 1102 OFFCURVE",
"551 1102 CURVE SMOOTH",
"252.333 1102 OFFCURVE",
"87 906 OFFCURVE",
"87 542 CURVE SMOOTH",
"87 175.333 OFFCURVE",
"250.333 -20 OFFCURVE",
"553 -20 CURVE SMOOTH",
"782.333 -20 OFFCURVE",
"942 114 OFFCURVE",
"970 322 CURVE",
"788 334 LINE",
"768 190 OFFCURVE",
"676 122 OFFCURVE",
"548 122 CURVE SMOOTH",
"365.333 122 OFFCURVE",
"275 258 OFFCURVE",
"275 546 CURVE"
);
}
);
width = 1024;
}
);
note = c;
unicode = 0063;
},
{
glyphname = d;
lastChange = "2020-03-13 21:33:20 +0000";
layers = (
{
layerId = "489D640B-457E-495A-B1F8-D23C81511CE7";
paths = (
{
closed = 1;
nodes = (
"821 174 LINE",
"825 174 LINE",
"825 118 OFFCURVE",
"831 21.333 OFFCURVE",
"835 0 CURVE",
"1007 0 LINE",
"1003 36 OFFCURVE",
"1001 110.333 OFFCURVE",
"1001 223 CURVE SMOOTH",
"1001 1484 LINE",
"821 1484 LINE",
"821 1035 LINE",
"823 914 LINE",
"821 914 LINE",
"754.333 1044.667 OFFCURVE",
"648 1102 OFFCURVE",
"484 1102 CURVE SMOOTH",
"218.667 1102 OFFCURVE",
"86 913.333 OFFCURVE",
"86 536 CURVE SMOOTH",
"86 162.667 OFFCURVE",
"210.667 -20 OFFCURVE",
"484 -20 CURVE SMOOTH",
"646.667 -20 OFFCURVE",
"754.333 35.333 OFFCURVE",
"821 174 CURVE"
);
},
{
closed = 1;
nodes = (
"275 542 LINE",
"275 843.333 OFFCURVE",
"350.667 969 OFFCURVE",
"532 969 CURVE SMOOTH",
"733.333 969 OFFCURVE",
"821 840.667 OFFCURVE",
"821 554 CURVE SMOOTH",
"821 256.667 OFFCURVE",
"734 119 OFFCURVE",
"530 119 CURVE SMOOTH",
"350 119 OFFCURVE",
"275 239.333 OFFCURVE",
"275 542 CURVE"
);
}
);
width = 1139;
}
);
note = d;
unicode = 0064;
},
{
glyphname = e;
lastChange = "2020-03-13 21:33:20 +0000";
layers = (
{
layerId = "489D640B-457E-495A-B1F8-D23C81511CE7";
paths = (
{
closed = 1;
nodes = (
"276 503 LINE",
"1048 503 LINE",
"1048 527 LINE SMOOTH",
"1048 910.333 OFFCURVE",
"889 1102 OFFCURVE",
"571 1102 CURVE SMOOTH",
"260.333 1102 OFFCURVE",
"87 905.333 OFFCURVE",
"87 548 CURVE SMOOTH",
"87 172 OFFCURVE",
"258 -20 OFFCURVE",
"578 -20 CURVE SMOOTH",
"807.333 -20 OFFCURVE",
"954.333 65.333 OFFCURVE",
"1019 236 CURVE",
"861 281 LINE",
"827.667 185 OFFCURVE",
"734 115 OFFCURVE",
"578 115 CURVE SMOOTH",
"380.667 115 OFFCURVE",
"276 255 OFFCURVE",
"276 503 CURVE"
);
},
{
closed = 1;
nodes = (
"862 641 LINE",
"278 641 LINE",
"286 845 OFFCURVE",
"393.333 969 OFFCURVE",
"568 969 CURVE SMOOTH",
"748 969 OFFCURVE",
"842 869 OFFCURVE",
"862 641 CURVE"
);
}
);
width = 1139;
}
);
note = e;
unicode = 0065;
},
{
glyphname = f;
lastChange = "2020-03-13 21:33:20 +0000";
layers = (
{
layerId = "489D640B-457E-495A-B1F8-D23C81511CE7";
paths = (
{
closed = 1;
nodes = (
"361 951 LINE",
"572 951 LINE",
"572 1082 LINE",
"361 1082 LINE",
"361 1179 LINE SMOOTH",
"361 1301.667 OFFCURVE",
"400 1341 OFFCURVE",
"492 1341 CURVE SMOOTH",
"515.333 1341 OFFCURVE",
"542 1338.333 OFFCURVE",
"572 1333 CURVE",
"572 1470 LINE",
"537.333 1478 OFFCURVE",
"495 1482 OFFCURVE",
"445 1482 CURVE SMOOTH",
"266.333 1482 OFFCURVE",
"181 1401.333 OFFCURVE",
"181 1204 CURVE SMOOTH",
"181 1082 LINE",
"29 1082 LINE",
"29 951 LINE",
"181 951 LINE",
"181 0 LINE",
"361 0 LINE",
"361 951 LINE"
);
}
);
width = 569;
}
);
note = f;
unicode = 0066;
},
{
glyphname = g;
lastChange = "2020-03-13 21:33:20 +0000";
layers = (
{
layerId = "489D640B-457E-495A-B1F8-D23C81511CE7";
paths = (
{
closed = 1;
nodes = (
"548 -425 LINE",
"850 -425 OFFCURVE",
"1001 -273 OFFCURVE",
"1001 31 CURVE SMOOTH",
"1001 858 LINE SMOOTH",
"1001 971.333 OFFCURVE",
"1003 1046 OFFCURVE",
"1007 1082 CURVE",
"836 1082 LINE",
"830.667 1072.667 OFFCURVE",
"824 937 OFFCURVE",
"824 897 CURVE",
"822 897 LINE",
"760.667 1026.333 OFFCURVE",
"645.333 1099 OFFCURVE",
"492 1099 CURVE SMOOTH",
"218.667 1099 OFFCURVE",
"86 921.667 OFFCURVE",
"86 539 CURVE SMOOTH",
"86 161.667 OFFCURVE",
"206.667 -8 OFFCURVE",
"472 -8 CURVE SMOOTH",
"630.667 -8 OFFCURVE",
"752 62.333 OFFCURVE",
"820 201 CURVE",
"822 201 LINE",
"822 27 LINE SMOOTH",
"822 -183 OFFCURVE",
"732.333 -288 OFFCURVE",
"553 -288 CURVE SMOOTH",
"419.667 -288 OFFCURVE",
"336 -232 OFFCURVE",
"312 -132 CURVE",
"131 -158 LINE",
"171 -328.667 OFFCURVE",
"312 -425 OFFCURVE",
"548 -425 CURVE"
);
},
{
closed = 1;
nodes = (
"822 541 LINE",
"822 369 OFFCURVE",
"772 241.667 OFFCURVE",
"684 175 CURVE SMOOTH",
"640 141.667 OFFCURVE",
"589.667 125 OFFCURVE",
"533 125 CURVE SMOOTH",
"342.333 125 OFFCURVE",
"272 245 OFFCURVE",
"272 541 CURVE SMOOTH",
"272 839.667 OFFCURVE",
"352 965 OFFCURVE",
"536 965 CURVE SMOOTH",
"646.667 965 OFFCURVE",
"738 895.833 OFFCURVE",
"786 768.5 CURVE SMOOTH",
"810 704.833 OFFCURVE",
"822 629 OFFCURVE",
"822 541 CURVE"
);
}
);
width = 1139;
}
);
note = g;
unicode = 0067;
},
{
glyphname = h;
lastChange = "2020-03-13 21:33:20 +0000";
layers = (
{
layerId = "489D640B-457E-495A-B1F8-D23C81511CE7";
paths = (
{
closed = 1;
nodes = (
"317 897 LINE",
"314 897 LINE",
"315.333 910.333 OFFCURVE",
"322 1016.667 OFFCURVE",
"322 1098 CURVE SMOOTH",
"322 1484 LINE",
"142 1484 LINE",
"142 0 LINE",
"322 0 LINE",
"322 638 LINE SMOOTH",
"322 836.667 OFFCURVE",
"432.667 963 OFFCURVE",
"602 963 CURVE SMOOTH",
"715.333 963 OFFCURVE",
"776 929.5 OFFCURVE",
"804 855.5 CURVE SMOOTH",
"818 818.5 OFFCURVE",
"825 762 OFFCURVE",
"825 686 CURVE SMOOTH",
"825 0 LINE",
"1006 0 LINE",
"1006 721 LINE SMOOTH",
"1006 995.667 OFFCURVE",
"897.667 1102 OFFCURVE",
"663 1102 CURVE SMOOTH",
"496.333 1102 OFFCURVE",
"394.333 1038.333 OFFCURVE",
"317 897 CURVE"
);
}
);
width = 1139;
}
);
note = h;
unicode = 0068;
},
{
glyphname = i;
lastChange = "2020-03-13 21:33:20 +0000";
layers = (
{
layerId = "489D640B-457E-495A-B1F8-D23C81511CE7";
paths = (
{
closed = 1;
nodes = (
"137 1312 LINE",
"317 1312 LINE",
"317 1484 LINE",
"137 1484 LINE",
"137 1312 LINE"
);
},
{
closed = 1;
nodes = (
"137 0 LINE",
"317 0 LINE",
"317 1082 LINE",
"137 1082 LINE",
"137 0 LINE"
);
}
);
width = 455;
}
);
note = i;
unicode = 0069;
},
{
glyphname = j;
lastChange = "2020-03-13 21:33:20 +0000";
layers = (
{
layerId = "489D640B-457E-495A-B1F8-D23C81511CE7";
paths = (
{
closed = 1;
nodes = (
"137 1312 LINE",
"317 1312 LINE",
"317 1484 LINE",
"137 1484 LINE",
"137 1312 LINE"
);
},
{
closed = 1;
nodes = (
"317 -134 LINE",
"317 1082 LINE",
"137 1082 LINE",
"137 -107 LINE SMOOTH",
"137 -245.667 OFFCURVE",
"104 -283 OFFCURVE",
"12 -283 CURVE",
"-50 -277 LINE",
"-50 -416 LINE",
"-16.667 -422 OFFCURVE",
"25.667 -425 OFFCURVE",
"77 -425 CURVE SMOOTH",
"237 -425 OFFCURVE",
"317 -338 OFFCURVE",
"317 -134 CURVE"
);
}
);
width = 455;
}
);
note = j;
unicode = 006A;
},
{
glyphname = k;
lastChange = "2020-03-13 21:33:20 +0000";
layers = (
{
layerId = "489D640B-457E-495A-B1F8-D23C81511CE7";
paths = (
{
closed = 1;
nodes = (
"816 0 LINE",
"1027 0 LINE",
"565 617 LINE",
"1004 1082 LINE",
"793 1082 LINE",
"318 557 LINE",
"318 1484 LINE",
"138 1484 LINE",
"138 0 LINE",
"318 0 LINE",
"318 385 LINE",
"450 494 LINE",
"816 0 LINE"
);
}
);
width = 1024;
}
);
note = k;
unicode = 006B;
},
{
glyphname = l;
lastChange = "2020-03-13 21:33:20 +0000";
layers = (
{
layerId = "489D640B-457E-495A-B1F8-D23C81511CE7";
paths = (
{
closed = 1;
nodes = (
"138 0 LINE",
"318 0 LINE",
"318 1484 LINE",
"138 1484 LINE",
"138 0 LINE"
);
}
);
width = 455;
}
);
note = l;
unicode = 006C;
},
{
glyphname = m;
lastChange = "2020-03-13 21:33:20 +0000";
layers = (
{
layerId = "489D640B-457E-495A-B1F8-D23C81511CE7";
paths = (
{
closed = 1;
nodes = (
"768 0 LINE",
"946 0 LINE",
"946 627 LINE SMOOTH",
"946 841.667 OFFCURVE",
"1037.667 963 OFFCURVE",
"1195 963 CURVE SMOOTH",
"1344.333 963 OFFCURVE",
"1393 895.333 OFFCURVE",
"1393 686 CURVE SMOOTH",
"1393 0 LINE",
"1571 0 LINE",
"1571 721 LINE SMOOTH",
"1571 991.667 OFFCURVE",
"1476.667 1102 OFFCURVE",
"1258 1102 CURVE SMOOTH",
"1107.333 1102 OFFCURVE",
"1004.667 1042.333 OFFCURVE",
"930 897 CURVE",
"927 897 LINE",
"889.667 1039.667 OFFCURVE",
"797 1102 OFFCURVE",
"633 1102 CURVE SMOOTH",
"489 1102 OFFCURVE",
"394.333 1050.333 OFFCURVE",
"317 897 CURVE",
"314 897 LINE",
"312.381 960.956 OFFCURVE",
"308.693 1039.753 OFFCURVE",
"308 1055 CURVE SMOOTH",
"307.333 1069.667 OFFCURVE",
"306.667 1078.667 OFFCURVE",
"306 1082 CURVE",
"136 1082 LINE",
"140 1054 OFFCURVE",
"142 977 OFFCURVE",
"142 851 CURVE SMOOTH",
"142 0 LINE",
"321 0 LINE",
"321 627 LINE SMOOTH",
"321 840.333 OFFCURVE",
"416.667 963 OFFCURVE",
"570 963 CURVE SMOOTH",
"719.333 963 OFFCURVE",
"768 895.333 OFFCURVE",
"768 686 CURVE SMOOTH",
"768 0 LINE"
);
}
);
width = 1706;
}
);
note = m;
unicode = 006D;
},
{
glyphname = n;
lastChange = "2020-03-13 21:33:20 +0000";
layers = (
{
layerId = "489D640B-457E-495A-B1F8-D23C81511CE7";
paths = (
{
closed = 1;
nodes = (
"825 0 LINE",
"1006 0 LINE",
"1006 721 LINE SMOOTH",
"1006 993 OFFCURVE",
"900.333 1102 OFFCURVE",
"663 1102 CURVE SMOOTH",
"501.667 1102 OFFCURVE",
"399.667 1046.333 OFFCURVE",
"317 897 CURVE",
"314 897 LINE",
"312.381 960.956 OFFCURVE",
"308.693 1039.753 OFFCURVE",
"308 1055 CURVE SMOOTH",
"307.333 1069.667 OFFCURVE",
"306.667 1078.667 OFFCURVE",
"306 1082 CURVE",
"136 1082 LINE",
"140 1054 OFFCURVE",
"142 977 OFFCURVE",
"142 851 CURVE SMOOTH",
"142 0 LINE",
"322 0 LINE",
"322 627 LINE SMOOTH",
"322 837.667 OFFCURVE",
"428.667 963 OFFCURVE",
"602 963 CURVE SMOOTH",
"720.667 963 OFFCURVE",
"776 930.667 OFFCURVE",
"804 852 CURVE SMOOTH",
"818 812.667 OFFCURVE",
"825 757.333 OFFCURVE",
"825 686 CURVE SMOOTH",
"825 0 LINE"
);
}
);
width = 1139;
}
);
note = n;
unicode = 006E;
},
{
glyphname = o;
lastChange = "2020-03-13 21:33:20 +0000";
layers = (
{
layerId = "489D640B-457E-495A-B1F8-D23C81511CE7";
paths = (
{
closed = 1;
nodes = (
"1053 542 LINE",
"1053 924.667 OFFCURVE",
"901.667 1102 OFFCURVE",
"571 1102 CURVE SMOOTH",
"247.667 1102 OFFCURVE",
"86 915.333 OFFCURVE",
"86 542 CURVE SMOOTH",
"86 178 OFFCURVE",
"249 -20 OFFCURVE",
"565 -20 CURVE SMOOTH",
"882.333 -20 OFFCURVE",
"1053 163.333 OFFCURVE",
"1053 542 CURVE"
);
},
{
closed = 1;
nodes = (
"864 542 LINE",
"864 247.333 OFFCURVE",
"779 113 OFFCURVE",
"563 113 CURVE SMOOTH",
"364.333 113 OFFCURVE",
"275 256.667 OFFCURVE",
"275 542 CURVE SMOOTH",
"275 835.333 OFFCURVE",
"363.333 969 OFFCURVE",
"574 969 CURVE SMOOTH",
"783.333 969 OFFCURVE",
"864 840.667 OFFCURVE",
"864 542 CURVE"
);
}
);
width = 1139;
}
);
note = o;
unicode = 006F;
},
{
glyphname = p;
lastChange = "2020-03-13 21:33:20 +0000";
layers = (
{
layerId = "489D640B-457E-495A-B1F8-D23C81511CE7";
paths = (
{
closed = 1;
nodes = (
"1053 546 LINE",
"1053 928.667 OFFCURVE",
"921.667 1101 OFFCURVE",
"655 1101 CURVE SMOOTH",
"483 1101 OFFCURVE",
"384 1041.333 OFFCURVE",
"320 908 CURVE",
"316 908 LINE",
"316 933.333 OFFCURVE",
"311.667 1020.833 OFFCURVE",
"309 1053.5 CURVE SMOOTH",
"307.667 1069.833 OFFCURVE",
"306.667 1079.333 OFFCURVE",
"306 1082 CURVE",
"132 1082 LINE",
"136 1046 OFFCURVE",
"138 972.333 OFFCURVE",
"138 861 CURVE SMOOTH",
"138 -425 LINE",
"318 -425 LINE",
"318 -2 LINE SMOOTH",
"318 106 OFFCURVE",
"316.667 162.667 OFFCURVE",
"314 168 CURVE",
"319 168 LINE",
"376.333 42.667 OFFCURVE",
"488.333 -20 OFFCURVE",
"655 -20 CURVE SMOOTH",
"920.333 -20 OFFCURVE",
"1053 168.667 OFFCURVE",
"1053 546 CURVE"
);
},
{
closed = 1;
nodes = (
"864 542 LINE",
"864 232.667 OFFCURVE",
"785.667 113 OFFCURVE",
"607 113 CURVE SMOOTH",
"403 113 OFFCURVE",
"318 244 OFFCURVE",
"318 528 CURVE SMOOTH",
"318 732 OFFCURVE",
"360.833 857 OFFCURVE",
"441.5 917 CURVE SMOOTH",
"481.833 947 OFFCURVE",
"537.667 962 OFFCURVE",
"609 962 CURVE SMOOTH",
"786.333 962 OFFCURVE",
"864 843.333 OFFCURVE",
"864 542 CURVE"
);
}
);
width = 1139;
}
);
note = p;
unicode = 0070;
},
{
glyphname = q;
lastChange = "2020-03-13 21:33:20 +0000";
layers = (
{
layerId = "489D640B-457E-495A-B1F8-D23C81511CE7";
paths = (
{
closed = 1;
nodes = (
"484 -20 LINE",
"653.333 -20 OFFCURVE",
"751 35.333 OFFCURVE",
"823 178 CURVE",
"825 178 LINE",
"821 14 LINE",
"821 -425 LINE",
"1001 -425 LINE",
"1001 801 LINE SMOOTH",
"1001 958.333 OFFCURVE",
"1003.333 1056.667 OFFCURVE",
"1008 1096 CURVE",
"835 1096 LINE",
"829.667 1089.333 OFFCURVE",
"823 954 OFFCURVE",
"823 914 CURVE",
"821 914 LINE",
"749 1048.667 OFFCURVE",
"648 1102 OFFCURVE",
"484 1102 CURVE SMOOTH",
"218.667 1102 OFFCURVE",
"86 913.333 OFFCURVE",
"86 536 CURVE SMOOTH",
"86 165.333 OFFCURVE",
"209.333 -20 OFFCURVE",
"484 -20 CURVE"
);
},
{
closed = 1;
nodes = (
"821 554 LINE",
"821 264.667 OFFCURVE",
"734 119 OFFCURVE",
"530 119 CURVE SMOOTH",
"351.333 119 OFFCURVE",
"275 239.333 OFFCURVE",
"275 542 CURVE SMOOTH",
"275 839.333 OFFCURVE",
"349.333 969 OFFCURVE",
"532 969 CURVE SMOOTH",
"733.333 969 OFFCURVE",
"821 835.333 OFFCURVE",
"821 554 CURVE"
);
}
);
width = 1139;
}
);
note = q;
unicode = 0071;
},
{
glyphname = r;
lastChange = "2020-03-13 21:33:20 +0000";
layers = (
{
layerId = "489D640B-457E-495A-B1F8-D23C81511CE7";
paths = (
{
closed = 1;
nodes = (
"142 0 LINE",
"322 0 LINE",
"322 564 LINE SMOOTH",
"322 804 OFFCURVE",
"402.667 937 OFFCURVE",
"552 937 CURVE SMOOTH",
"592 937 OFFCURVE",
"624 933.667 OFFCURVE",
"648 927 CURVE",
"648 1092 LINE",
"623.333 1098.667 OFFCURVE",
"599 1102 OFFCURVE",
"575 1102 CURVE SMOOTH",
"439 1102 OFFCURVE",
"375.333 1046.333 OFFCURVE",
"318 861 CURVE",
"314 861 LINE",
"314 885.667 OFFCURVE",
"311.333 959.333 OFFCURVE",
"306 1082 CURVE",
"136 1082 LINE",
"140 990 OFFCURVE",
"142 906 OFFCURVE",
"142 830 CURVE SMOOTH",
"142 0 LINE"
);
}
);
width = 682;
}
);
note = r;
unicode = 0072;
},
{
glyphname = s;
lastChange = "2020-03-13 21:33:20 +0000";
layers = (
{
layerId = "489D640B-457E-495A-B1F8-D23C81511CE7";
paths = (
{
closed = 1;
nodes = (
"950 299 LINE",
"950 381.667 OFFCURVE",
"922.167 445.667 OFFCURVE",
"873.5 495 CURVE SMOOTH",
"849.167 519.667 OFFCURVE",
"816 542.167 OFFCURVE",
"774 562.5 CURVE SMOOTH",
"732 582.833 OFFCURVE",
"663.333 605 OFFCURVE",
"568 629 CURVE SMOOTH",
"467.333 653.667 OFFCURVE",
"401.333 673 OFFCURVE",
"370 687 CURVE SMOOTH",
"307.333 715 OFFCURVE",
"275 752.667 OFFCURVE",
"275 814 CURVE SMOOTH",
"275 914 OFFCURVE",
"350.333 963 OFFCURVE",
"513 963 CURVE SMOOTH",
"659.667 963 OFFCURVE",
"749 910 OFFCURVE",
"769 814 CURVE",
"931 834 LINE",
"893.667 1019.333 OFFCURVE",
"751.667 1099 OFFCURVE",
"513 1099 CURVE SMOOTH",
"243.667 1099 OFFCURVE",
"100 993.333 OFFCURVE",
"100 796 CURVE SMOOTH",
"100 689.333 OFFCURVE",
"152.167 618.833 OFFCURVE",
"239.5 567.5 CURVE SMOOTH",
"283.167 541.833 OFFCURVE",
"356.667 515.667 OFFCURVE",
"460 489 CURVE SMOOTH",
"589 455 LINE SMOOTH",
"719.667 420.333 OFFCURVE",
"775 370.333 OFFCURVE",
"775 285 CURVE SMOOTH",
"775 173 OFFCURVE",
"693.667 117 OFFCURVE",
"511 117 CURVE SMOOTH",
"340.333 117 OFFCURVE",
"246.667 169 OFFCURVE",
"216 285 CURVE",
"57 254 LINE",
"101 66 OFFCURVE",
"241.667 -20 OFFCURVE",
"511 -20 CURVE SMOOTH",
"788.333 -20 OFFCURVE",
"950 95 OFFCURVE",
"950 299 CURVE"
);
}
);
width = 1024;
}
);
note = s;
unicode = 0073;
},
{
glyphname = t;
lastChange = "2020-03-13 21:33:20 +0000";
layers = (
{
layerId = "489D640B-457E-495A-B1F8-D23C81511CE7";
paths = (
{
closed = 1;
nodes = (
"554 8 LINE",
"554 141 LINE",
"508.667 131.667 OFFCURVE",
"474 127 OFFCURVE",
"450 127 CURVE SMOOTH",
"366 127 OFFCURVE",
"336 164 OFFCURVE",
"336 268 CURVE SMOOTH",
"336 951 LINE",
"536 951 LINE",
"536 1082 LINE",
"336 1082 LINE",
"336 1324 LINE",
"216 1324 LINE",
"163 1082 LINE",
"31 1082 LINE",
"31 951 LINE",
"156 951 LINE",
"156 229 LINE SMOOTH",
"156 65.667 OFFCURVE",
"228 -16 OFFCURVE",
"372 -16 CURVE SMOOTH",
"434 -16 OFFCURVE",
"494.667 -8 OFFCURVE",
"554 8 CURVE"
);
}
);
width = 569;
}
);
note = t;
unicode = 0074;
},
{
glyphname = u;
lastChange = "2020-03-13 21:33:20 +0000";
layers = (
{
layerId = "489D640B-457E-495A-B1F8-D23C81511CE7";
paths = (
{
closed = 1;
nodes = (
"314 1082 LINE",
"133 1082 LINE",
"133 361 LINE SMOOTH",
"133 89 OFFCURVE",
"238.667 -20 OFFCURVE",
"476 -20 CURVE SMOOTH",
"637.333 -20 OFFCURVE",
"739.333 35.667 OFFCURVE",
"822 185 CURVE",
"825 185 LINE",
"826.619 121.044 OFFCURVE",
"830.307 42.247 OFFCURVE",
"831 27 CURVE SMOOTH",
"831.667 12.333 OFFCURVE",
"832.333 3.333 OFFCURVE",
"833 0 CURVE",
"1003 0 LINE",
"999 28 OFFCURVE",
"997 105 OFFCURVE",
"997 231 CURVE SMOOTH",
"997 1082 LINE",
"817 1082 LINE",
"817 455 LINE SMOOTH",
"817 244.333 OFFCURVE",
"710.333 119 OFFCURVE",
"537 119 CURVE SMOOTH",
"418.333 119 OFFCURVE",
"363 151.333 OFFCURVE",
"335 230 CURVE SMOOTH",
"321 269.333 OFFCURVE",
"314 324.667 OFFCURVE",
"314 396 CURVE SMOOTH",
"314 1082 LINE"
);
}
);
width = 1139;
}
);
note = u;
unicode = 0075;
},
{
glyphname = v;
lastChange = "2020-03-13 21:33:20 +0000";
layers = (
{
layerId = "489D640B-457E-495A-B1F8-D23C81511CE7";
paths = (
{
closed = 1;
nodes = (
"613 0 LINE",
"1017 1082 LINE",
"826 1082 LINE",
"580 376 LINE",
"541 258 LINE",
"506 141 LINE",
"468.667 272.333 OFFCURVE",
"445.667 351.333 OFFCURVE",
"437 378 CURVE SMOOTH",
"199 1082 LINE",
"7 1082 LINE",
"400 0 LINE",
"613 0 LINE"
);
}
);
width = 1024;
}
);
note = v;
unicode = 0076;
},
{
glyphname = w;
lastChange = "2020-03-13 21:33:20 +0000";
layers = (
{
layerId = "489D640B-457E-495A-B1F8-D23C81511CE7";
paths = (
{
closed = 1;
nodes = (
"1174 0 LINE",
"1484 1082 LINE",
"1308 1082 LINE",
"1103 288 LINE",
"1072 149 LINE",
"1026 339 LINE",
"837 1082 LINE",
"644 1082 LINE",
"418 223 LINE",
"401 149 LINE",
"377 265 OFFCURVE",
"362.667 331 OFFCURVE",
"358 347 CURVE SMOOTH",
"175 1082 LINE",
"-3 1082 LINE",
"300 0 LINE",
"508 0 LINE",
"631.333 480 OFFCURVE",
"699.333 748.167 OFFCURVE",
"712 804.5 CURVE SMOOTH",
"724.667 860.833 OFFCURVE",
"734 904 OFFCURVE",
"740 934 CURVE",
"776 765 LINE",
"965 0 LINE",
"1174 0 LINE"
);
}
);
width = 1479;
}
);
note = w;
unicode = 0077;
},
{
glyphname = x;
lastChange = "2020-03-13 21:33:20 +0000";
layers = (
{
layerId = "489D640B-457E-495A-B1F8-D23C81511CE7";
paths = (
{
closed = 1;
nodes = (
"801 0 LINE",
"1002 0 LINE",
"612 558 LINE",
"979 1082 LINE",
"778 1082 LINE",
"510 661 LINE",
"240 1082 LINE",
"41 1082 LINE",
"408 556 LINE",
"23 0 LINE",
"217 0 LINE",
"510 444 LINE",
"801 0 LINE"
);
}
);
width = 1024;
}
);
note = x;
unicode = 0078;
},
{
glyphname = y;
lastChange = "2020-03-13 21:33:20 +0000";
layers = (
{
layerId = "489D640B-457E-495A-B1F8-D23C81511CE7";
paths = (
{
closed = 1;
nodes = (
"191 -425 LINE",
"309.667 -425 OFFCURVE",
"401.667 -370.167 OFFCURVE",
"479 -257.5 CURVE SMOOTH",
"517.667 -201.167 OFFCURVE",
"559.333 -115.333 OFFCURVE",
"604 0 CURVE SMOOTH",
"1020 1082 LINE",
"830 1082 LINE",
"593 393 LINE",
"523 196 LINE",
"519 213.333 OFFCURVE",
"446.333 424.5 OFFCURVE",
"437 450.5 CURVE SMOOTH",
"432.333 463.5 OFFCURVE",
"428.333 474.667 OFFCURVE",
"425 484 CURVE SMOOTH",
"197 1082 LINE",
"5 1082 LINE",
"434 5 LINE",
"417 -38 LINE SMOOTH",
"351.667 -202.667 OFFCURVE",
"263 -285 OFFCURVE",
"151 -285 CURVE SMOOTH",
"120.333 -285 OFFCURVE",
"92.333 -283 OFFCURVE",
"67 -279 CURVE",
"67 -414 LINE",
"100.333 -421.333 OFFCURVE",
"141.667 -425 OFFCURVE",
"191 -425 CURVE"
);
}
);
width = 1024;
}
);
note = y;
unicode = 0079;
},
{
glyphname = z;
lastChange = "2020-03-13 21:33:20 +0000";
layers = (
{
layerId = "489D640B-457E-495A-B1F8-D23C81511CE7";
paths = (
{
closed = 1;
nodes = (
"83 0 LINE",
"922 0 LINE",
"922 139 LINE",
"295 139 LINE",
"901 945 LINE",
"901 1082 LINE",
"117 1082 LINE",
"117 943 LINE",
"688 943 LINE",
"83 137 LINE",
"83 0 LINE"
);
}
);
width = 1024;
}
);
note = z;
unicode = 007A;
},
{
glyphname = braceleft;
lastChange = "2020-03-13 21:33:20 +0000";
layers = (
{
layerId = "489D640B-457E-495A-B1F8-D23C81511CE7";
paths = (
{
closed = 1;
nodes = (
"513 -425 LINE",
"648 -425 LINE",
"648 -296 LINE",
"585 -296 LINE SMOOTH",
"463.667 -296 OFFCURVE",
"417 -222.333 OFFCURVE",
"417 -81 CURVE SMOOTH",
"417 276 LINE SMOOTH",
"417 405.333 OFFCURVE",
"341.667 502 OFFCURVE",
"223 530 CURVE",
"223 532 LINE",
"340.333 560 OFFCURVE",
"417 658.667 OFFCURVE",
"417 784 CURVE SMOOTH",
"417 1140 LINE SMOOTH",
"417 1284 OFFCURVE",
"463.667 1355 OFFCURVE",
"585 1355 CURVE SMOOTH",
"648 1355 LINE",
"648 1484 LINE",
"513 1484 LINE SMOOTH",
"338.333 1484 OFFCURVE",
"249 1379 OFFCURVE",
"249 1191 CURVE SMOOTH",
"249 829 LINE SMOOTH",
"249 673 OFFCURVE",
"179.333 598.333 OFFCURVE",
"34 593 CURVE",
"34 466 LINE",
"180.667 459.333 OFFCURVE",
"249 385 OFFCURVE",
"249 229 CURVE SMOOTH",
"249 -132 LINE SMOOTH",
"249 -317.333 OFFCURVE",
"343.667 -425 OFFCURVE",
"513 -425 CURVE"
);
}
);
width = 684;
}
);
note = braceleft;
unicode = 007B;
},
{
glyphname = bar;
lastChange = "2020-03-13 21:33:20 +0000";
layers = (
{
layerId = "489D640B-457E-495A-B1F8-D23C81511CE7";
paths = (
{
closed = 1;
nodes = (
"183 -434 LINE",
"349 -434 LINE",
"349 1484 LINE",
"183 1484 LINE",
"183 -434 LINE"
);
}
);
width = 532;
}
);
note = bar;
unicode = 007C;
},
{
glyphname = braceright;
lastChange = "2020-03-13 21:33:20 +0000";
layers = (
{
layerId = "489D640B-457E-495A-B1F8-D23C81511CE7";
paths = (
{
closed = 1;
nodes = (
"94 -296 LINE",
"34 -296 LINE",
"34 -425 LINE",
"166 -425 LINE SMOOTH",
"335.333 -425 OFFCURVE",
"430 -316 OFFCURVE",
"430 -132 CURVE SMOOTH",
"430 229 LINE SMOOTH",
"430 385 OFFCURVE",
"497.667 460.667 OFFCURVE",
"647 466 CURVE",
"647 593 LINE",
"499 598.333 OFFCURVE",
"430 674.333 OFFCURVE",
"430 829 CURVE SMOOTH",
"430 1191 LINE SMOOTH",
"430 1379 OFFCURVE",
"340.667 1484 OFFCURVE",
"166 1484 CURVE SMOOTH",
"34 1484 LINE",
"34 1355 LINE",
"94 1355 LINE SMOOTH",
"215.333 1355 OFFCURVE",
"264 1284 OFFCURVE",
"264 1140 CURVE SMOOTH",
"264 784 LINE SMOOTH",
"264 654.667 OFFCURVE",
"342.333 558.667 OFFCURVE",
"457 532 CURVE",
"457 530 LINE",
"338.333 503.333 OFFCURVE",
"264 406.667 OFFCURVE",
"264 276 CURVE SMOOTH",
"264 -81 LINE SMOOTH",
"264 -222.333 OFFCURVE",
"215.333 -296 OFFCURVE",
"94 -296 CURVE"
);
}
);
width = 684;
}
);
note = braceright;
unicode = 007D;
},
{
glyphname = asciitilde;
lastChange = "2020-03-13 21:33:20 +0000";
layers = (
{
layerId = "489D640B-457E-495A-B1F8-D23C81511CE7";
paths = (
{
closed = 1;
nodes = (
"844 553 LINE",
"957.333 553 OFFCURVE",
"1026.667 577 OFFCURVE",
"1104 633 CURVE",
"1104 782 LINE",
"1028 720.667 OFFCURVE",
"946.667 690 OFFCURVE",
"860 690 CURVE SMOOTH",
"800 690 OFFCURVE",
"705.333 719 OFFCURVE",
"664 735 CURVE SMOOTH",
"577.333 765.667 OFFCURVE",
"512.833 785.333 OFFCURVE",
"470.5 794 CURVE SMOOTH",
"428.167 802.667 OFFCURVE",
"389.667 807 OFFCURVE",
"355 807 CURVE SMOOTH",
"253.667 807 OFFCURVE",
"166 779 OFFCURVE",
"92 723 CURVE",
"92 580 LINE",
"178.667 642.667 OFFCURVE",
"250.667 668 OFFCURVE",
"340 668 CURVE SMOOTH",
"398.667 668 OFFCURVE",
"471 653 OFFCURVE",
"557 623 CURVE SMOOTH",
"654.333 588.333 OFFCURVE",
"752 553 OFFCURVE",
"844 553 CURVE"
);
}
);
width = 1196;
}
);
note = asciitilde;
unicode = 007E;
},
{
glyphname = dagger;
lastChange = "2020-03-13 21:33:20 +0000";
layers = (
{
layerId = "489D640B-457E-495A-B1F8-D23C81511CE7";
paths = (
{
closed = 1;
nodes = (
"649 1000 LINE",
"1002 973 LINE",
"1002 1137 LINE",
"649 1108 LINE",
"677 1484 LINE",
"462 1484 LINE",
"490 1108 LINE",
"138 1137 LINE",
"138 973 LINE",
"490 1000 LINE",
"512 -138 LINE",
"627 -138 LINE",
"649 1000 LINE"
);
}
);
width = 1139;
}
);
note = dagger;
unicode = 2020;
},
{
glyphname = degree;
lastChange = "2020-03-13 21:33:20 +0000";
layers = (
{
layerId = "489D640B-457E-495A-B1F8-D23C81511CE7";
paths = (
{
closed = 1;
nodes = (
"696 1145 LINE",
"696 1303.667 OFFCURVE",
"569 1430 OFFCURVE",
"409 1430 CURVE SMOOTH",
"249 1430 OFFCURVE",
"122 1301 OFFCURVE",
"122 1145 CURVE SMOOTH",
"122 989 OFFCURVE",
"251.667 860 OFFCURVE",
"409 860 CURVE SMOOTH",
"566.333 860 OFFCURVE",
"696 986.333 OFFCURVE",
"696 1145 CURVE"
);
},
{
closed = 1;
nodes = (
"587 1145 LINE",
"587 1045 OFFCURVE",
"507.667 965 OFFCURVE",
"409 965 CURVE SMOOTH",
"311.667 965 OFFCURVE",
"231 1046.333 OFFCURVE",
"231 1145 CURVE SMOOTH",
"231 1243.667 OFFCURVE",
"309 1325 OFFCURVE",
"409 1325 CURVE SMOOTH",
"509 1325 OFFCURVE",
"587 1246.333 OFFCURVE",
"587 1145 CURVE"
);
}
);
width = 819;
}
);
note = degree;
unicode = 00B0;
},
{
glyphname = cent;
lastChange = "2020-03-13 21:33:20 +0000";
layers = (
{
layerId = "489D640B-457E-495A-B1F8-D23C81511CE7";
paths = (
{
closed = 1;
nodes = (
"596 277 LINE",
"413.333 277 OFFCURVE",
"323 413 OFFCURVE",
"323 701 CURVE SMOOTH",
"323 1001 OFFCURVE",
"403.333 1116 OFFCURVE",
"594 1116 CURVE SMOOTH",
"734 1116 OFFCURVE",
"808.333 1040 OFFCURVE",
"827 920 CURVE",
"1012 934 LINE",
"976 1119.333 OFFCURVE",
"852.667 1234 OFFCURVE",
"662 1254 CURVE",
"662 1409 LINE",
"538 1409 LINE",
"538 1254 LINE",
"272.667 1231.333 OFFCURVE",
"135 1034.333 OFFCURVE",
"135 697 CURVE SMOOTH",
"135 354.333 OFFCURVE",
"272.667 161 OFFCURVE",
"538 137 CURVE",
"538 -31 LINE",
"662 -31 LINE",
"662 137 LINE",
"858 155.667 OFFCURVE",
"992.667 285 OFFCURVE",
"1018 477 CURVE",
"836 489 LINE",
"816 345 OFFCURVE",
"724 277 OFFCURVE",
"596 277 CURVE"
);
}
);
width = 1139;
}
);
note = cent;
unicode = 00A2;
},
{
glyphname = sterling;
lastChange = "2020-03-13 21:33:20 +0000";
layers = (
{
layerId = "489D640B-457E-495A-B1F8-D23C81511CE7";
paths = (
{
closed = 1;
nodes = (
"1104 311 LINE",
"941 329 LINE",
"921.667 211.667 OFFCURVE",
"854 153 OFFCURVE",
"738 153 CURVE SMOOTH",
"255 153 LINE",
"357.667 207.667 OFFCURVE",
"424 340.333 OFFCURVE",
"424 499 CURVE SMOOTH",
"424 625 LINE",
"832 625 LINE",
"832 754 LINE",
"424 754 LINE",
"424 1042 LINE SMOOTH",
"424 1208.667 OFFCURVE",
"498 1282 OFFCURVE",
"650 1282 CURVE SMOOTH",
"744.667 1282 OFFCURVE",
"825 1228.333 OFFCURVE",
"853 1143 CURVE",
"1027 1200 LINE",
"981.667 1345.333 OFFCURVE",
"842 1430 OFFCURVE",
"646 1430 CURVE SMOOTH",
"384.667 1430 OFFCURVE",
"244 1294 OFFCURVE",
"244 1034 CURVE SMOOTH",
"244 754 LINE",
"58 754 LINE",
"58 625 LINE",
"244 625 LINE",
"244 481 LINE SMOOTH",
"244 319.667 OFFCURVE",
"187.667 215.333 OFFCURVE",
"69 154 CURVE",
"69 0 LINE",
"767 0 LINE SMOOTH",
"959 0 OFFCURVE",
"1081.333 111 OFFCURVE",
"1104 311 CURVE"
);
}
);
width = 1139;
}
);
note = sterling;
unicode = 00A3;
},
{
glyphname = section;
lastChange = "2020-03-13 21:33:20 +0000";
layers = (
{
layerId = "489D640B-457E-495A-B1F8-D23C81511CE7";
paths = (
{
closed = 1;
nodes = (
"588 1484 LINE",
"317.333 1484 OFFCURVE",
"174 1375.333 OFFCURVE",
"174 1190 CURVE SMOOTH",
"174 1075.333 OFFCURVE",
"253 980.667 OFFCURVE",
"381 938 CURVE",
"241 898 OFFCURVE",
"153 789.667 OFFCURVE",
"153 671 CURVE SMOOTH",
"153 521.667 OFFCURVE",
"259.333 418 OFFCURVE",
"518 358 CURVE SMOOTH",
"618.667 333.333 OFFCURVE",
"689.5 311.333 OFFCURVE",
"730.5 292 CURVE SMOOTH",
"812.5 253.333 OFFCURVE",
"858 205 OFFCURVE",
"858 129 CURVE SMOOTH",
"858 19.667 OFFCURVE",
"758.333 -41 OFFCURVE",
"577 -41 CURVE SMOOTH",
"383.667 -41 OFFCURVE",
"302.667 11 OFFCURVE",
"276 131 CURVE",
"115 100 LINE",
"160.333 -85.333 OFFCURVE",
"298.333 -172 OFFCURVE",
"577 -172 CURVE SMOOTH",
"857 -172 OFFCURVE",
"1018 -52.333 OFFCURVE",
"1018 145 CURVE SMOOTH",
"1018 266.333 OFFCURVE",
"954.333 349 OFFCURVE",
"805 413 CURVE",
"938.333 445 OFFCURVE",
"1024 554 OFFCURVE",
"1024 686 CURVE SMOOTH",
"1024 794 OFFCURVE",
"964 871.167 OFFCURVE",
"860 926.5 CURVE SMOOTH",
"808 954.167 OFFCURVE",
"733 979.667 OFFCURVE",
"635 1003 CURVE SMOOTH",
"548.333 1023.667 OFFCURVE",
"486.5 1042.667 OFFCURVE",
"449.5 1060 CURVE SMOOTH",
"375.5 1094.667 OFFCURVE",
"334 1140 OFFCURVE",
"334 1204 CURVE SMOOTH",
"334 1298.667 OFFCURVE",
"421.333 1354 OFFCURVE",
"588 1354 CURVE SMOOTH",
"738 1354 OFFCURVE",
"822 1304 OFFCURVE",
"840 1204 CURVE",
"1001 1224 LINE",
"965 1393.333 OFFCURVE",
"818.667 1484 OFFCURVE",
"588 1484 CURVE"
);
},
{
closed = 1;
nodes = (
"866 663 LINE",
"866 549.667 OFFCURVE",
"770.667 477.667 OFFCURVE",
"612 475 CURVE",
"526 497 OFFCURVE",
"464.5 517 OFFCURVE",
"427.5 535 CURVE SMOOTH",
"353.5 571 OFFCURVE",
"313 618.667 OFFCURVE",
"313 684 CURVE SMOOTH",
"313 796 OFFCURVE",
"405.667 872 OFFCURVE",
"551 880 CURVE",
"668.333 852.667 OFFCURVE",
"750.167 821.667 OFFCURVE",
"796.5 787 CURVE SMOOTH",
"842.833 752.333 OFFCURVE",
"866 711 OFFCURVE",
"866 663 CURVE"
);
}
);
width = 1139;
}
);
note = section;
unicode = 00A7;
},
{
glyphname = bullet;
lastChange = "2020-03-13 21:33:20 +0000";
layers = (
{
layerId = "489D640B-457E-495A-B1F8-D23C81511CE7";
paths = (
{
closed = 1;
nodes = (
"636 682 LINE",
"636 832.667 OFFCURVE",
"509.667 956 OFFCURVE",
"355 956 CURVE SMOOTH",
"205.667 956 OFFCURVE",
"81 835.333 OFFCURVE",
"81 682 CURVE SMOOTH",
"81 528.667 OFFCURVE",
"204.333 401 OFFCURVE",
"355 401 CURVE SMOOTH",
"512.333 401 OFFCURVE",
"636 531.333 OFFCURVE",
"636 682 CURVE"
);
}
);
width = 717;
}
);
note = bullet;
unicode = 2022;
},
{
glyphname = paragraph;
lastChange = "2020-03-13 21:33:20 +0000";
layers = (
{
layerId = "489D640B-457E-495A-B1F8-D23C81511CE7";
paths = (
{
closed = 1;
nodes = (
"884 1307 LINE",
"1013 1307 LINE",
"1013 1409 LINE",
"450 1409 LINE SMOOTH",
"219.333 1409 OFFCURVE",
"80 1274.333 OFFCURVE",
"80 1049 CURVE SMOOTH",
"80 822.333 OFFCURVE",
"218 694 OFFCURVE",
"442 694 CURVE",
"442 -264 LINE",
"555 -264 LINE",
"555 1307 LINE",
"772 1307 LINE",
"772 -264 LINE",
"884 -264 LINE",
"884 1307 LINE"
);
}
);
width = 1100;
}
);
note = paragraph;
unicode = 00B6;
},
{
glyphname = germandbls;
lastChange = "2020-03-13 21:33:20 +0000";
layers = (
{
layerId = "489D640B-457E-495A-B1F8-D23C81511CE7";
paths = (
{
closed = 1;
nodes = (
"1167 295 LINE",
"1167 419 OFFCURVE",
"1105.667 522.333 OFFCURVE",
"983 605 CURVE SMOOTH",
"919 647.667 OFFCURVE",
"862.167 684.167 OFFCURVE",
"825.5 723.5 CURVE SMOOTH",
"807.167 743.167 OFFCURVE",
"798 765.667 OFFCURVE",
"798 791 CURVE SMOOTH",
"798 810.333 OFFCURVE",
"803.667 828.167 OFFCURVE",
"815 844.5 CURVE SMOOTH",
"826.333 860.833 OFFCURVE",
"858.333 893 OFFCURVE",
"911 941 CURVE SMOOTH",
"986.333 1009.667 OFFCURVE",
"1024 1091.667 OFFCURVE",
"1024 1187 CURVE SMOOTH",
"1024 1368.333 OFFCURVE",
"862.333 1484 OFFCURVE",
"609 1484 CURVE SMOOTH",
"299.667 1484 OFFCURVE",
"142 1329.667 OFFCURVE",
"142 1027 CURVE SMOOTH",
"142 0 LINE",
"322 0 LINE",
"322 1021 LINE SMOOTH",
"322 1237 OFFCURVE",
"411.667 1343 OFFCURVE",
"609 1343 CURVE SMOOTH",
"754.333 1343 OFFCURVE",
"852 1275.667 OFFCURVE",
"852 1173 CURVE SMOOTH",
"852 1106.333 OFFCURVE",
"818.333 1055 OFFCURVE",
"741 991 CURVE SMOOTH",
"669 931 OFFCURVE",
"630 866.333 OFFCURVE",
"630 785 CURVE SMOOTH",
"630 670.333 OFFCURVE",
"690.333 585 OFFCURVE",
"813 513 CURVE SMOOTH",
"942.333 435.667 OFFCURVE",
"995 374.333 OFFCURVE",
"995 289 CURVE SMOOTH",
"995 183.667 OFFCURVE",
"927.667 124 OFFCURVE",
"805 124 CURVE SMOOTH",
"713 124 OFFCURVE",
"593.333 154.333 OFFCURVE",
"524 193 CURVE",
"526 29 LINE",
"600.667 -3.667 OFFCURVE",
"695 -20 OFFCURVE",
"809 -20 CURVE SMOOTH",
"1035.667 -20 OFFCURVE",
"1167 95 OFFCURVE",
"1167 295 CURVE"
);
}
);
width = 1251;
}
);
note = germandbls;
unicode = 00DF;
},
{
glyphname = registered;
lastChange = "2020-03-13 21:33:20 +0000";
layers = (
{
layerId = "489D640B-457E-495A-B1F8-D23C81511CE7";
paths = (
{
closed = 1;
nodes = (
"1477 707 LINE",
"1477 965.667 OFFCURVE",
"1341.167 1202.5 OFFCURVE",
"1116.5 1332.5 CURVE SMOOTH",
"1004.167 1397.5 OFFCURVE",
"883.333 1430 OFFCURVE",
"754 1430 CURVE SMOOTH",
"496.667 1430 OFFCURVE",
"257.333 1292 OFFCURVE",
"128 1068 CURVE SMOOTH",
"63.333 956 OFFCURVE",
"31 835.667 OFFCURVE",
"31 707 CURVE SMOOTH",
"31 455 OFFCURVE",
"161.5 218.5 OFFCURVE",
"387.5 84.5 CURVE SMOOTH",
"500.5 17.5 OFFCURVE",
"622.667 -16 OFFCURVE",
"754 -16 CURVE SMOOTH",
"1011.333 -16 OFFCURVE",
"1251.833 120.833 OFFCURVE",
"1380.5 345.5 CURVE SMOOTH",
"1444.833 457.833 OFFCURVE",
"1477 578.333 OFFCURVE",
"1477 707 CURVE"
);
},
{
closed = 1;
nodes = (
"1385 707 LINE",
"1385 481.667 OFFCURVE",
"1266 274 OFFCURVE",
"1070 162 CURVE SMOOTH",
"972 106 OFFCURVE",
"866.667 78 OFFCURVE",
"754 78 CURVE SMOOTH",
"528.667 78 OFFCURVE",
"323.167 197.333 OFFCURVE",
"210.5 392 CURVE SMOOTH",
"154.167 489.333 OFFCURVE",
"126 594.333 OFFCURVE",
"126 707 CURVE SMOOTH",
"126 929.667 OFFCURVE",
"245.333 1137.833 OFFCURVE",
"440 1250.5 CURVE SMOOTH",
"537.333 1306.833 OFFCURVE",
"642 1335 OFFCURVE",
"754 1335 CURVE SMOOTH",
"980.667 1335 OFFCURVE",
"1189 1213.167 OFFCURVE",
"1301 1020.5 CURVE SMOOTH",
"1357 924.167 OFFCURVE",
"1385 819.667 OFFCURVE",
"1385 707 CURVE"
);
},
{
closed = 1;
nodes = (
"955 289 LINE",
"1100 289 LINE",
"879 639 LINE",
"992.333 664.333 OFFCURVE",
"1068 747 OFFCURVE",
"1068 883 CURVE SMOOTH",
"1068 1031 OFFCURVE",
"964.333 1120 OFFCURVE",
"775 1120 CURVE SMOOTH",
"468 1120 LINE",
"468 289 LINE",
"595 289 LINE",
"595 625 LINE",
"756 625 LINE",
"955 289 LINE"
);
},
{
closed = 1;
nodes = (
"941 881 LINE",
"941 781 OFFCURVE",
"883.667 721 OFFCURVE",
"777 721 CURVE SMOOTH",
"595 721 LINE",
"595 1022 LINE",
"765 1022 LINE SMOOTH",
"873 1022 OFFCURVE",
"941 973 OFFCURVE",
"941 881 CURVE"
);
}
);
width = 1509;
}
);
note = registered;
unicode = 00AE;
},
{
glyphname = copyright;
lastChange = "2020-03-13 21:33:20 +0000";
layers = (
{
layerId = "489D640B-457E-495A-B1F8-D23C81511CE7";
paths = (
{
closed = 1;
nodes = (
"1477 707 LINE",
"1477 965.667 OFFCURVE",
"1341.167 1202.5 OFFCURVE",
"1116.5 1332.5 CURVE SMOOTH",
"1004.167 1397.5 OFFCURVE",
"883.333 1430 OFFCURVE",
"754 1430 CURVE SMOOTH",
"496.667 1430 OFFCURVE",
"257.333 1292 OFFCURVE",
"128 1068 CURVE SMOOTH",
"63.333 956 OFFCURVE",
"31 835.667 OFFCURVE",
"31 707 CURVE SMOOTH",
"31 455 OFFCURVE",
"161.5 218.5 OFFCURVE",
"387.5 84.5 CURVE SMOOTH",
"500.5 17.5 OFFCURVE",
"622.667 -16 OFFCURVE",
"754 -16 CURVE SMOOTH",
"1011.333 -16 OFFCURVE",
"1251.833 120.833 OFFCURVE",
"1380.5 345.5 CURVE SMOOTH",
"1444.833 457.833 OFFCURVE",
"1477 578.333 OFFCURVE",
"1477 707 CURVE"
);
},
{
closed = 1;
nodes = (
"1385 707 LINE",
"1385 481.667 OFFCURVE",
"1266 274 OFFCURVE",
"1070 162 CURVE SMOOTH",
"972 106 OFFCURVE",
"866.667 78 OFFCURVE",
"754 78 CURVE SMOOTH",
"528.667 78 OFFCURVE",
"323.167 197.333 OFFCURVE",
"210.5 392 CURVE SMOOTH",
"154.167 489.333 OFFCURVE",
"126 594.333 OFFCURVE",
"126 707 CURVE SMOOTH",
"126 929.667 OFFCURVE",
"245.333 1137.833 OFFCURVE",
"440 1250.5 CURVE SMOOTH",
"537.333 1306.833 OFFCURVE",
"642 1335 OFFCURVE",
"754 1335 CURVE SMOOTH",
"980.667 1335 OFFCURVE",
"1189 1213.167 OFFCURVE",
"1301 1020.5 CURVE SMOOTH",
"1357 924.167 OFFCURVE",
"1385 819.667 OFFCURVE",
"1385 707 CURVE"
);
},
{
closed = 1;
nodes = (
"498 709 LINE",
"498 919.667 OFFCURVE",
"590.667 1028 OFFCURVE",
"760 1028 CURVE SMOOTH",
"861.333 1028 OFFCURVE",
"941.333 983 OFFCURVE",
"984 891 CURVE",
"1098 924 LINE",
"1034 1063.333 OFFCURVE",
"920.667 1133 OFFCURVE",
"758 1133 CURVE SMOOTH",
"506 1133 OFFCURVE",
"369 979.667 OFFCURVE",
"369 709 CURVE SMOOTH",
"369 437 OFFCURVE",
"514.333 279 OFFCURVE",
"765 279 CURVE SMOOTH",
"921 279 OFFCURVE",
"1030.333 342.667 OFFCURVE",
"1113 504 CURVE",
"998 539 LINE",
"948 435 OFFCURVE",
"870.333 383 OFFCURVE",
"765 383 CURVE SMOOTH",
"598.333 383 OFFCURVE",
"498 502.333 OFFCURVE",
"498 709 CURVE"
);
}
);
width = 1509;
}
);
note = copyright;
unicode = 00A9;
},
{
glyphname = trademark;
lastChange = "2020-03-13 21:33:20 +0000";
layers = (
{
layerId = "489D640B-457E-495A-B1F8-D23C81511CE7";
paths = (
{
closed = 1;
nodes = (
"1691 634 LINE",
"1817 634 LINE",
"1817 1409 LINE",
"1633 1409 LINE",
"1465 996 LINE",
"1391 804 LINE",
"1376 846 LINE",
"1153 1409 LINE",
"963 1409 LINE",
"963 634 LINE",
"1091 634 LINE",
"1091 1216 LINE",
"1092 1233 LINE",
"1093 1253 LINE",
"1170 1047 LINE",
"1333 634 LINE",
"1441 634 LINE",
"1671 1199 LINE",
"1682 1231 LINE",
"1691 1253 LINE",
"1691 634 LINE"
);
},
{
closed = 1;
nodes = (
"577 1298 LINE",
"838 1298 LINE",
"838 1409 LINE",
"188 1409 LINE",
"188 1298 LINE",
"443 1298 LINE",
"443 634 LINE",
"577 634 LINE",
"577 1298 LINE"
);
}
);
width = 2048;
}
);
note = trademark;
unicode = 2122;
},
{
glyphname = acute;
lastChange = "2020-03-13 21:33:20 +0000";
layers = (
{
layerId = "489D640B-457E-495A-B1F8-D23C81511CE7";
paths = (
{
closed = 1;
nodes = (
"72 1201 LINE",
"166 1201 LINE",
"496 1479 LINE",
"496 1508 LINE",
"289 1508 LINE",
"72 1221 LINE",
"72 1201 LINE"
);
}
);
width = 682;
}
);
note = acute;
unicode = 00B4;
},
{
glyphname = dieresis;
lastChange = "2020-03-13 21:33:20 +0000";
layers = (
{
layerId = "489D640B-457E-495A-B1F8-D23C81511CE7";
paths = (
{
closed = 1;
nodes = (
"439 1219 LINE",
"602 1219 LINE",
"602 1403 LINE",
"439 1403 LINE",
"439 1219 LINE"
);
},
{
closed = 1;
nodes = (
"45 1219 LINE",
"210 1219 LINE",
"210 1403 LINE",
"45 1403 LINE",
"45 1219 LINE"
);
}
);
width = 682;
}
);
note = dieresis;
unicode = 00A8;
},
{
glyphname = notequal;
lastChange = "2020-03-13 21:33:20 +0000";
layers = (
{
layerId = "489D640B-457E-495A-B1F8-D23C81511CE7";
paths = (
{
closed = 1;
nodes = (
"448 344 LINE",
"1060 344 LINE",
"1060 492 LINE",
"519 492 LINE",
"710 856 LINE",
"1060 856 LINE",
"1060 1004 LINE",
"783 1004 LINE",
"935 1296 LINE",
"792 1296 LINE",
"638 1004 LINE",
"65 1004 LINE",
"65 856 LINE",
"566 856 LINE",
"376 492 LINE",
"65 492 LINE",
"65 344 LINE",
"302 344 LINE",
"151 55 LINE",
"296 55 LINE",
"448 344 LINE"
);
}
);
width = 1124;
}
);
note = notequal;
unicode = 2260;
},
{
glyphname = AE;
lastChange = "2020-03-13 21:33:20 +0000";
layers = (
{
layerId = "489D640B-457E-495A-B1F8-D23C81511CE7";
paths = (
{
closed = 1;
nodes = (
"969 0 LINE",
"1960 0 LINE",
"1960 156 LINE",
"1160 156 LINE",
"1160 647 LINE",
"1859 647 LINE",
"1859 801 LINE",
"1160 801 LINE",
"1160 1253 LINE",
"1919 1253 LINE",
"1919 1409 LINE",
"710 1409 LINE",
"24 0 LINE",
"223 0 LINE",
"421 412 LINE",
"969 412 LINE",
"969 0 LINE"
);
},
{
closed = 1;
nodes = (
"969 1262 LINE",
"969 561 LINE",
"491 561 LINE",
"790 1199 LINE",
"818 1262 LINE",
"969 1262 LINE"
);
}
);
width = 2048;
}
);
note = AE;
unicode = 00C6;
},
{
glyphname = Oslash;
lastChange = "2020-03-13 21:33:20 +0000";
layers = (
{
layerId = "489D640B-457E-495A-B1F8-D23C81511CE7";
paths = (
{
closed = 1;
nodes = (
"1495 711 LINE",
"1495 926.333 OFFCURVE",
"1437.667 1097.333 OFFCURVE",
"1323 1224 CURVE",
"1524 1466 LINE",
"1332 1466 LINE",
"1211 1320 LINE",
"1099.667 1393.333 OFFCURVE",
"961.667 1430 OFFCURVE",
"797 1430 CURVE SMOOTH",
"357 1430 OFFCURVE",
"97 1161.667 OFFCURVE",
"97 711 CURVE SMOOTH",
"97 490.333 OFFCURVE",
"155 316 OFFCURVE",
"271 188 CURVE",
"71 -53 LINE",
"261 -53 LINE",
"381 92 LINE",
"493 17.333 OFFCURVE",
"631 -20 OFFCURVE",
"795 -20 CURVE SMOOTH",
"1081.667 -20 OFFCURVE",
"1297.833 102.667 OFFCURVE",
"1410.5 324 CURVE SMOOTH",
"1466.833 434.667 OFFCURVE",
"1495 563.667 OFFCURVE",
"1495 711 CURVE"
);
},
{
closed = 1;
nodes = (
"1300 711 LINE",
"1300 344.333 OFFCURVE",
"1120.333 135 OFFCURVE",
"795 135 CURVE SMOOTH",
"675 135 OFFCURVE",
"574.333 165.333 OFFCURVE",
"493 226 CURVE",
"1202 1079 LINE",
"1267.333 983 OFFCURVE",
"1300 860.333 OFFCURVE",
"1300 711 CURVE"
);
},
{
closed = 1;
nodes = (
"291 711 LINE",
"291 1067 OFFCURVE",
"474.333 1274 OFFCURVE",
"797 1274 CURVE SMOOTH",
"915.667 1274 OFFCURVE",
"1016.333 1244.667 OFFCURVE",
"1099 1186 CURVE",
"392 333 LINE",
"324.667 432.333 OFFCURVE",
"291 558.333 OFFCURVE",
"291 711 CURVE"
);
}
);
width = 1593;
}
);
note = Oslash;
unicode = 00D8;
},
{
glyphname = infinity;
lastChange = "2020-03-13 21:33:20 +0000";
layers = (
{
layerId = "489D640B-457E-495A-B1F8-D23C81511CE7";
paths = (
{
closed = 1;
nodes = (
"1373 590 LINE",
"1373 820.667 OFFCURVE",
"1250.667 977 OFFCURVE",
"1064 977 CURVE SMOOTH",
"934.667 977 OFFCURVE",
"815.667 873.333 OFFCURVE",
"729 700 CURVE",
"643.667 888.667 OFFCURVE",
"534 983 OFFCURVE",
"400 983 CURVE SMOOTH",
"218.667 983 OFFCURVE",
"87 824 OFFCURVE",
"87 596 CURVE SMOOTH",
"87 361.333 OFFCURVE",
"214.667 209 OFFCURVE",
"400 209 CURVE SMOOTH",
"517.333 209 OFFCURVE",
"636.333 307.667 OFFCURVE",
"727 485 CURVE",
"815 297 OFFCURVE",
"926.667 203 OFFCURVE",
"1062 203 CURVE SMOOTH",
"1239.333 203 OFFCURVE",
"1373 368.667 OFFCURVE",
"1373 590 CURVE"
);
},
{
closed = 1;
nodes = (
"1040 846 LINE",
"1153.333 846 OFFCURVE",
"1234 734.667 OFFCURVE",
"1234 592 CURVE SMOOTH",
"1234 441.333 OFFCURVE",
"1152.667 334 OFFCURVE",
"1042 334 CURVE SMOOTH",
"939.333 334 OFFCURVE",
"863 419.333 OFFCURVE",
"795 590 CURVE",
"869.667 763.333 OFFCURVE",
"946.667 846 OFFCURVE",
"1040 846 CURVE"
);
},
{
closed = 1;
nodes = (
"664 596 LINE",
"589.333 422.667 OFFCURVE",
"511.333 340 OFFCURVE",
"418 340 CURVE SMOOTH",
"302 340 OFFCURVE",
"227 444.667 OFFCURVE",
"227 594 CURVE SMOOTH",
"227 742 OFFCURVE",
"304 852 OFFCURVE",
"416 852 CURVE SMOOTH",
"520 852 OFFCURVE",
"596 766.667 OFFCURVE",
"664 596 CURVE"
);
}
);
width = 1460;
}
);
note = infinity;
unicode = 221E;
},
{
glyphname = plusminus;
lastChange = "2020-03-13 21:33:20 +0000";
layers = (
{
layerId = "489D640B-457E-495A-B1F8-D23C81511CE7";
paths = (
{
closed = 1;
nodes = (
"636 680 LINE",
"1060 680 LINE",
"1060 825 LINE",
"636 825 LINE",
"636 1219 LINE",
"489 1219 LINE",
"489 825 LINE",
"65 825 LINE",
"65 680 LINE",
"489 680 LINE",
"489 285 LINE",
"636 285 LINE",
"636 680 LINE"
);
},
{
closed = 1;
nodes = (
"65 0 LINE",
"1060 0 LINE",
"1060 145 LINE",
"65 145 LINE",
"65 0 LINE"
);
}
);
width = 1124;
}
);
note = plusminus;
unicode = 00B1;
},
{
glyphname = lessequal;
lastChange = "2020-03-13 21:33:20 +0000";
layers = (
{
layerId = "489D640B-457E-495A-B1F8-D23C81511CE7";
paths = (
{
closed = 1;
nodes = (
"65 631 LINE",
"1060 236 LINE",
"1060 389 LINE",
"202 733 LINE",
"1060 1077 LINE",
"1060 1231 LINE",
"65 836 LINE",
"65 631 LINE"
);
},
{
closed = 1;
nodes = (
"63 0 LINE",
"1058 0 LINE",
"1058 145 LINE",
"63 145 LINE",
"63 0 LINE"
);
}
);
width = 1124;
}
);
note = lessequal;
unicode = 2264;
},
{
glyphname = greaterequal;
lastChange = "2020-03-13 21:33:20 +0000";
layers = (
{
layerId = "489D640B-457E-495A-B1F8-D23C81511CE7";
paths = (
{
closed = 1;
nodes = (
"65 236 LINE",
"1060 631 LINE",
"1060 836 LINE",
"65 1231 LINE",
"65 1077 LINE",
"923 733 LINE",
"65 389 LINE",
"65 236 LINE"
);
},
{
closed = 1;
nodes = (
"65 0 LINE",
"1060 0 LINE",
"1060 145 LINE",
"65 145 LINE",
"65 0 LINE"
);
}
);
width = 1124;
}
);
note = greaterequal;
unicode = 2265;
},
{
glyphname = yen;
lastChange = "2020-03-13 21:33:20 +0000";
layers = (
{
layerId = "489D640B-457E-495A-B1F8-D23C81511CE7";
paths = (
{
closed = 1;
nodes = (
"720 709 LINE",
"1142 1409 LINE",
"943 1409 LINE",
"568 762 LINE",
"197 1409 LINE",
"-2 1409 LINE",
"419 709 LINE",
"99 709 LINE",
"99 584 LINE",
"482 584 LINE",
"480 430 LINE",
"99 430 LINE",
"99 303 LINE",
"480 303 LINE",
"480 0 LINE",
"658 0 LINE",
"658 303 LINE",
"1041 303 LINE",
"1041 430 LINE",
"658 430 LINE",
"658 584 LINE",
"1041 584 LINE",
"1041 709 LINE",
"720 709 LINE"
);
}
);
width = 1139;
}
);
note = yen;
unicode = 00A5;
},
{
glyphname = mu1;
lastChange = "2020-03-13 21:33:20 +0000";
layers = (
{
layerId = "489D640B-457E-495A-B1F8-D23C81511CE7";
paths = (
{
closed = 1;
nodes = (
"140 -425 LINE",
"320 -425 LINE",
"320 59 LINE",
"361.333 8.333 OFFCURVE",
"437.667 -20 OFFCURVE",
"527 -20 CURVE SMOOTH",
"655.667 -20 OFFCURVE",
"755.333 44.667 OFFCURVE",
"826 174 CURVE",
"829 174 LINE",
"835.667 40.667 OFFCURVE",
"898.667 -20 OFFCURVE",
"1020 -20 CURVE SMOOTH",
"1052 -20 OFFCURVE",
"1089.667 -13.333 OFFCURVE",
"1133 0 CURVE",
"1133 129 LINE",
"1113.667 123.667 OFFCURVE",
"1095.667 121 OFFCURVE",
"1079 121 CURVE SMOOTH",
"1023 121 OFFCURVE",
"1001 164.667 OFFCURVE",
"1001 266 CURVE SMOOTH",
"1001 1082 LINE",
"821 1082 LINE",
"821 455 LINE SMOOTH",
"821 239 OFFCURVE",
"717.667 119 OFFCURVE",
"547 119 CURVE SMOOTH",
"388.333 119 OFFCURVE",
"321 212 OFFCURVE",
"321 396 CURVE SMOOTH",
"321 1082 LINE",
"140 1082 LINE",
"140 -425 LINE"
);
}
);
width = 1180;
}
);
note = mu1;
unicode = 00B5;
},
{
glyphname = partialdiff;
lastChange = "2020-03-13 21:33:20 +0000";
layers = (
{
layerId = "489D640B-457E-495A-B1F8-D23C81511CE7";
paths = (
{
closed = 1;
nodes = (
"954 938 LINE",
"954 1283.333 OFFCURVE",
"812 1477 OFFCURVE",
"552 1477 CURVE SMOOTH",
"477.333 1477 OFFCURVE",
"402.333 1456.333 OFFCURVE",
"327 1415 CURVE",
"291 1268 LINE",
"352.333 1314.667 OFFCURVE",
"442.333 1343 OFFCURVE",
"513 1343 CURVE SMOOTH",
"685 1343 OFFCURVE",
"772 1199.333 OFFCURVE",
"772 938 CURVE",
"768 821 LINE",
"764 821 LINE",
"721.333 933 OFFCURVE",
"627 1004 OFFCURVE",
"515 1004 CURVE SMOOTH",
"347 1004 OFFCURVE",
"204.167 893 OFFCURVE",
"119.5 681 CURVE SMOOTH",
"77.167 575 OFFCURVE",
"56 466.667 OFFCURVE",
"56 356 CURVE SMOOTH",
"56 116 OFFCURVE",
"174.333 -27 OFFCURVE",
"389 -27 CURVE SMOOTH",
"565 -27 OFFCURVE",
"710.5 72.833 OFFCURVE",
"808.5 261.5 CURVE SMOOTH",
"906.5 450.167 OFFCURVE",
"954 727.333 OFFCURVE",
"954 938 CURVE"
);
},
{
closed = 1;
nodes = (
"743 680 LINE",
"720.333 476 OFFCURVE",
"653.5 285.167 OFFCURVE",
"563.5 184.5 CURVE SMOOTH",
"518.5 134.167 OFFCURVE",
"470 109 OFFCURVE",
"418 109 CURVE SMOOTH",
"308.667 109 OFFCURVE",
"246 204.667 OFFCURVE",
"246 358 CURVE SMOOTH",
"246 534 OFFCURVE",
"310.667 729 OFFCURVE",
"400 817 CURVE SMOOTH",
"444.667 861 OFFCURVE",
"494 883 OFFCURVE",
"548 883 CURVE SMOOTH",
"640 883 OFFCURVE",
"720.333 797.333 OFFCURVE",
"743 680 CURVE"
);
}
);
width = 1012;
}
);
note = partialdiff;
unicode = 2202;
},
{
glyphname = summation;
lastChange = "2020-03-13 21:33:20 +0000";
layers = (
{
layerId = "489D640B-457E-495A-B1F8-D23C81511CE7";
paths = (
{
closed = 1;
nodes = (
"154 -434 LINE",
"1328 -434 LINE",
"1328 -282 LINE",
"398 -282 LINE",
"998 493 LINE",
"414 1257 LINE",
"1260 1257 LINE",
"1260 1409 LINE",
"170 1409 LINE",
"170 1303 LINE",
"789 491 LINE",
"154 -325 LINE",
"154 -434 LINE"
);
}
);
width = 1460;
}
);
note = summation;
unicode = 2211;
},
{
glyphname = product;
lastChange = "2020-03-13 21:33:20 +0000";
layers = (
{
layerId = "489D640B-457E-495A-B1F8-D23C81511CE7";
paths = (
{
closed = 1;
nodes = (
"1268 -434 LINE",
"1452 -434 LINE",
"1452 1409 LINE",
"235 1409 LINE",
"235 -434 LINE",
"426 -434 LINE",
"426 1247 LINE",
"1268 1247 LINE",
"1268 -434 LINE"
);
}
);
width = 1686;
}
);
note = product;
unicode = 220F;
},
{
glyphname = integral;
lastChange = "2020-03-13 21:33:20 +0000";
layers = (
{
layerId = "489D640B-457E-495A-B1F8-D23C81511CE7";
paths = (
{
closed = 1;
nodes = (
"36 -434 LINE",
"253.333 -434 OFFCURVE",
"373 -308.333 OFFCURVE",
"373 -79 CURVE SMOOTH",
"373 1135 LINE SMOOTH",
"373 1287 OFFCURVE",
"434.333 1368 OFFCURVE",
"545 1368 CURVE SMOOTH",
"589 1368 OFFCURVE",
"627.333 1359 OFFCURVE",
"660 1341 CURVE",
"660 1489 LINE",
"630.667 1501 OFFCURVE",
"587 1507 OFFCURVE",
"529 1507 CURVE SMOOTH",
"307.667 1507 OFFCURVE",
"189 1382.333 OFFCURVE",
"189 1153 CURVE SMOOTH",
"191 -59 LINE SMOOTH",
"191 -214.333 OFFCURVE",
"133.667 -292 OFFCURVE",
"19 -292 CURVE SMOOTH",
"-19 -292 OFFCURVE",
"-58 -284 OFFCURVE",
"-98 -268 CURVE",
"-98 -415 LINE",
"-61.333 -427.667 OFFCURVE",
"-16.667 -434 OFFCURVE",
"36 -434 CURVE"
);
}
);
width = 561;
}
);
note = integral;
unicode = 222B;
},
{
glyphname = ordfeminine;
lastChange = "2020-03-13 21:33:20 +0000";
layers = (
{
layerId = "489D640B-457E-495A-B1F8-D23C81511CE7";
paths = (
{
closed = 1;
nodes = (
"260 651 LINE",
"384.667 651 OFFCURVE",
"471.333 700 OFFCURVE",
"520 798 CURVE",
"524 798 LINE",
"529.333 711.333 OFFCURVE",
"584.667 657 OFFCURVE",
"682 657 CURVE SMOOTH",
"704.667 657 OFFCURVE",
"732.333 661.333 OFFCURVE",
"765 670 CURVE",
"765 774 LINE",
"749 768.667 OFFCURVE",
"734.667 766 OFFCURVE",
"722 766 CURVE SMOOTH",
"675.333 766 OFFCURVE",
"659 796.667 OFFCURVE",
"659 874 CURVE SMOOTH",
"659 1182 LINE SMOOTH",
"659 1348.667 OFFCURVE",
"556.333 1432 OFFCURVE",
"363 1432 CURVE SMOOTH",
"191 1432 OFFCURVE",
"80.333 1347.333 OFFCURVE",
"59 1206 CURVE",
"208 1196 LINE",
"220 1297.333 OFFCURVE",
"275.667 1331 OFFCURVE",
"365 1331 CURVE SMOOTH",
"473 1331 OFFCURVE",
"516 1284 OFFCURVE",
"516 1176 CURVE SMOOTH",
"516 1116 LINE",
"338 1112 LINE SMOOTH",
"131.333 1109.333 OFFCURVE",
"26 1024.667 OFFCURVE",
"26 870 CURVE SMOOTH",
"26 732.667 OFFCURVE",
"116 651 OFFCURVE",
"260 651 CURVE"
);
},
{
closed = 1;
nodes = (
"299 762 LINE",
"217 762 OFFCURVE",
"176 802.333 OFFCURVE",
"176 883 CURVE SMOOTH",
"176 969.667 OFFCURVE",
"220.667 1012 OFFCURVE",
"378 1020 CURVE SMOOTH",
"516 1024 LINE",
"516 959 LINE SMOOTH",
"516 853.667 OFFCURVE",
"419 762 OFFCURVE",
"299 762 CURVE"
);
}
);
width = 758;
}
);
note = ordfeminine;
unicode = 00AA;
},
{
glyphname = ordmasculine;
lastChange = "2020-03-13 21:33:20 +0000";
layers = (
{
layerId = "489D640B-457E-495A-B1F8-D23C81511CE7";
paths = (
{
closed = 1;
nodes = (
"723 1042 LINE",
"723 1302 OFFCURVE",
"607.333 1432 OFFCURVE",
"376 1432 CURVE SMOOTH",
"148 1432 OFFCURVE",
"27 1294 OFFCURVE",
"27 1042 CURVE SMOOTH",
"27 788.667 OFFCURVE",
"148 651 OFFCURVE",
"372 651 CURVE SMOOTH",
"605.333 651 OFFCURVE",
"723 791.333 OFFCURVE",
"723 1042 CURVE"
);
},
{
closed = 1;
nodes = (
"574 1042 LINE",
"574 844.667 OFFCURVE",
"519 756 OFFCURVE",
"371 756 CURVE SMOOTH",
"236.333 756 OFFCURVE",
"179 848.667 OFFCURVE",
"179 1042 CURVE SMOOTH",
"179 1242 OFFCURVE",
"235 1327 OFFCURVE",
"379 1327 CURVE SMOOTH",
"517.667 1327 OFFCURVE",
"574 1247.333 OFFCURVE",
"574 1042 CURVE"
);
}
);
width = 748;
}
);
note = ordmasculine;
unicode = 00BA;
},
{
glyphname = Ohm;
lastChange = "2020-03-13 21:33:20 +0000";
layers = (
{
layerId = "489D640B-457E-495A-B1F8-D23C81511CE7";
paths = (
{
closed = 1;
nodes = (
"786 1430 LINE",
"382 1430 OFFCURVE",
"136 1193 OFFCURVE",
"136 801 CURVE SMOOTH",
"136 531.667 OFFCURVE",
"282.667 295.667 OFFCURVE",
"560 145 CURVE",
"479 150 LINE",
"352 156 LINE",
"108 156 LINE",
"108 0 LINE",
"697 0 LINE",
"697 224 LINE",
"457 352 OFFCURVE",
"331 544 OFFCURVE",
"331 788 CURVE SMOOTH",
"331 1097.333 OFFCURVE",
"496.333 1274 OFFCURVE",
"787 1274 CURVE SMOOTH",
"1075 1274 OFFCURVE",
"1241 1097.333 OFFCURVE",
"1241 788 CURVE SMOOTH",
"1241 542.667 OFFCURVE",
"1113.667 350.667 OFFCURVE",
"875 224 CURVE",
"875 0 LINE",
"1464 0 LINE",
"1464 156 LINE",
"1220 156 LINE",
"1093 150 LINE",
"1012 145 LINE",
"1290.667 298.333 OFFCURVE",
"1436 533 OFFCURVE",
"1436 801 CURVE SMOOTH",
"1436 1193 OFFCURVE",
"1190 1430 OFFCURVE",
"786 1430 CURVE"
);
}
);
width = 1573;
}
);
note = Ohm;
unicode = 2126;
},
{
glyphname = ae;
lastChange = "2020-03-13 21:33:20 +0000";
layers = (
{
layerId = "489D640B-457E-495A-B1F8-D23C81511CE7";
paths = (
{
closed = 1;
nodes = (
"968 503 LINE",
"1730 503 LINE",
"1730 527 LINE SMOOTH",
"1730 910.333 OFFCURVE",
"1571 1102 OFFCURVE",
"1253 1102 CURVE SMOOTH",
"1101 1102 OFFCURVE",
"985.667 1055.667 OFFCURVE",
"907 963 CURVE",
"841 1055.667 OFFCURVE",
"724.667 1102 OFFCURVE",
"558 1102 CURVE SMOOTH",
"292.667 1102 OFFCURVE",
"144.667 1004.667 OFFCURVE",
"114 810 CURVE",
"302 793 LINE",
"319.333 915.667 OFFCURVE",
"386 965 OFFCURVE",
"554 965 CURVE SMOOTH",
"715.333 965 OFFCURVE",
"786 899 OFFCURVE",
"786 719 CURVE SMOOTH",
"786 660 LINE",
"546 656 LINE SMOOTH",
"223.333 650.667 OFFCURVE",
"66 534 OFFCURVE",
"66 302 CURVE SMOOTH",
"66 102 OFFCURVE",
"179.333 -20 OFFCURVE",
"402 -20 CURVE SMOOTH",
"596.667 -20 OFFCURVE",
"731.667 50.333 OFFCURVE",
"837 237 CURVE",
"905 65.667 OFFCURVE",
"1046 -20 OFFCURVE",
"1260 -20 CURVE SMOOTH",
"1489.333 -20 OFFCURVE",
"1636.333 65.333 OFFCURVE",
"1701 236 CURVE",
"1543 281 LINE",
"1509.667 185 OFFCURVE",
"1416 115 OFFCURVE",
"1260 115 CURVE SMOOTH",
"1073.333 115 OFFCURVE",
"970.667 244.667 OFFCURVE",
"968 486 CURVE SMOOTH",
"968 503 LINE"
);
},
{
closed = 1;
nodes = (
"786 534 LINE",
"786 445 LINE SMOOTH",
"786 330.333 OFFCURVE",
"724.5 218.833 OFFCURVE",
"622.5 159.5 CURVE SMOOTH",
"571.5 129.833 OFFCURVE",
"512 115 OFFCURVE",
"444 115 CURVE SMOOTH",
"320 115 OFFCURVE",
"251 183 OFFCURVE",
"251 299 CURVE SMOOTH",
"251 397.667 OFFCURVE",
"293.5 465.167 OFFCURVE",
"387.5 500.5 CURVE SMOOTH",
"434.5 518.167 OFFCURVE",
"502.333 528 OFFCURVE",
"591 530 CURVE SMOOTH",
"786 534 LINE"
);
},
{
closed = 1;
nodes = (
"1544 641 LINE",
"970 641 LINE",
"978 850.333 OFFCURVE",
"1080.667 969 OFFCURVE",
"1250 969 CURVE SMOOTH",
"1430 969 OFFCURVE",
"1524 869 OFFCURVE",
"1544 641 CURVE"
);
}
);
width = 1821;
}
);
note = ae;
unicode = 00E6;
},
{
glyphname = oslash;
lastChange = "2020-03-13 21:33:20 +0000";
layers = (
{
layerId = "489D640B-457E-495A-B1F8-D23C81511CE7";
paths = (
{
closed = 1;
nodes = (
"1112 542 LINE",
"1112 702 OFFCURVE",
"1085 826.333 OFFCURVE",
"1031 915 CURVE",
"1204 1116 LINE",
"1037 1116 LINE",
"946 1011 LINE",
"869.333 1071.667 OFFCURVE",
"764 1102 OFFCURVE",
"630 1102 CURVE SMOOTH",
"306.667 1102 OFFCURVE",
"145 915.333 OFFCURVE",
"145 542 CURVE SMOOTH",
"145 390 OFFCURVE",
"172.667 268 OFFCURVE",
"228 176 CURVE",
"44 -38 LINE",
"211 -38 LINE",
"311 78 LINE",
"389.667 12.667 OFFCURVE",
"494 -20 OFFCURVE",
"624 -20 CURVE SMOOTH",
"941.333 -20 OFFCURVE",
"1112 163.333 OFFCURVE",
"1112 542 CURVE"
);
},
{
closed = 1;
nodes = (
"923 542 LINE",
"923 247.333 OFFCURVE",
"838 113 OFFCURVE",
"622 113 CURVE SMOOTH",
"530.667 113 OFFCURVE",
"462.333 142.333 OFFCURVE",
"417 201 CURVE",
"900 763 LINE",
"915.333 701.667 OFFCURVE",
"923 628 OFFCURVE",
"923 542 CURVE"
);
},
{
closed = 1;
nodes = (
"334 542 LINE",
"334 835.333 OFFCURVE",
"422.333 969 OFFCURVE",
"633 969 CURVE SMOOTH",
"726.333 969 OFFCURVE",
"795.333 942 OFFCURVE",
"840 888 CURVE",
"358 327 LINE",
"342 383.667 OFFCURVE",
"334 455.333 OFFCURVE",
"334 542 CURVE"
);
}
);
width = 1251;
}
);
note = oslash;
unicode = 00F8;
},
{
glyphname = questiondown;
lastChange = "2020-03-13 21:33:20 +0000";
layers = (
{
layerId = "489D640B-457E-495A-B1F8-D23C81511CE7";
paths = (
{
closed = 1;
nodes = (
"131 50 LINE",
"131 -199.333 OFFCURVE",
"312.667 -348 OFFCURVE",
"610 -348 CURVE SMOOTH",
"895.333 -348 OFFCURVE",
"1075.333 -202 OFFCURVE",
"1110 62 CURVE",
"926 74 LINE",
"907.333 -88.667 OFFCURVE",
"794.667 -188 OFFCURVE",
"608 -188 CURVE SMOOTH",
"421.333 -188 OFFCURVE",
"313 -94 OFFCURVE",
"313 58 CURVE SMOOTH",
"313 211.99 OFFCURVE",
"412.978 279.259 OFFCURVE",
"527 360.5 CURVE SMOOTH",
"580.333 398.5 OFFCURVE",
"634.667 438.667 OFFCURVE",
"676 492 CURVE SMOOTH",
"717.333 545.333 OFFCURVE",
"745.333 613 OFFCURVE",
"748 705 CURVE",
"573 705 LINE",
"571.667 614.333 OFFCURVE",
"525.667 539.333 OFFCURVE",
"431 470 CURVE SMOOTH",
"350 411 LINE SMOOTH",
"226 320.333 OFFCURVE",
"182.333 262.667 OFFCURVE",
"153 184 CURVE SMOOTH",
"138.333 144.667 OFFCURVE",
"131 100 OFFCURVE",
"131 50 CURVE"
);
},
{
closed = 1;
nodes = (
"756 1082 LINE",
"561 1082 LINE",
"561 881 LINE",
"756 881 LINE",
"756 1082 LINE"
);
}
);
width = 1251;
}
);
note = questiondown;
unicode = 00BF;
},
{
glyphname = exclamdown;
lastChange = "2020-03-13 21:33:20 +0000";
layers = (
{
layerId = "489D640B-457E-495A-B1F8-D23C81511CE7";
paths = (
{
closed = 1;
nodes = (
"266 685 LINE",
"242 -327 LINE",
"438 -327 LINE",
"414 685 LINE",
"266 685 LINE"
);
},
{
closed = 1;
nodes = (
"440 1082 LINE",
"246 1082 LINE",
"246 881 LINE",
"440 881 LINE",
"440 1082 LINE"
);
}
);
width = 682;
}
);
note = exclamdown;
unicode = 00A1;
},
{
glyphname = logicalnot;
lastChange = "2020-03-13 21:33:20 +0000";
layers = (
{
layerId = "489D640B-457E-495A-B1F8-D23C81511CE7";
paths = (
{
closed = 1;
nodes = (
"950 180 LINE",
"1095 180 LINE",
"1095 754 LINE",
"100 754 LINE",
"100 608 LINE",
"950 608 LINE",
"950 180 LINE"
);
}
);
width = 1196;
}
);
note = logicalnot;
unicode = 00AC;
},
{
glyphname = radical;
lastChange = "2020-03-13 21:33:20 +0000";
layers = (
{
layerId = "489D640B-457E-495A-B1F8-D23C81511CE7";
paths = (
{
closed = 1;
nodes = (
"622 -14 LINE",
"1122 1620 LINE",
"993 1620 LINE",
"563 205 LINE",
"321 895 LINE",
"51 895 LINE",
"51 778 LINE",
"233 778 LINE",
"516 -14 LINE",
"622 -14 LINE"
);
}
);
width = 1124;
}
);
note = radical;
unicode = 221A;
},
{
glyphname = florin;
lastChange = "2020-03-13 21:33:20 +0000";
layers = (
{
layerId = "489D640B-457E-495A-B1F8-D23C81511CE7";
paths = (
{
closed = 1;
nodes = (
"854 1312 LINE",
"854 1434 LINE",
"807.333 1447.333 OFFCURVE",
"749 1454 OFFCURVE",
"701 1454 CURVE SMOOTH",
"523.667 1454 OFFCURVE",
"438 1367.333 OFFCURVE",
"438 1154 CURVE SMOOTH",
"438 1022 LINE",
"285 1022 LINE",
"285 891 LINE",
"437 891 LINE",
"437 -456 LINE",
"617 -456 LINE",
"617 891 LINE",
"830 891 LINE",
"830 1022 LINE",
"619 1022 LINE",
"619 1159 LINE SMOOTH",
"619 1280.333 OFFCURVE",
"658 1327 OFFCURVE",
"742 1327 CURVE SMOOTH",
"786 1327 OFFCURVE",
"831.333 1318.667 OFFCURVE",
"854 1312 CURVE"
);
}
);
width = 1139;
}
);
note = florin;
unicode = 0192;
},
{
glyphname = approxequal;
lastChange = "2020-03-13 21:33:20 +0000";
layers = (
{
layerId = "489D640B-457E-495A-B1F8-D23C81511CE7";
paths = (
{
closed = 1;
nodes = (
"808 758 LINE",
"921.333 758 OFFCURVE",
"990.667 782 OFFCURVE",
"1068 838 CURVE",
"1068 987 LINE",
"992 924.333 OFFCURVE",
"910.667 893 OFFCURVE",
"824 893 CURVE SMOOTH",
"764 893 OFFCURVE",
"700.667 911.667 OFFCURVE",
"554 965 CURVE SMOOTH",
"466 996.333 OFFCURVE",
"387.667 1012 OFFCURVE",
"319 1012 CURVE SMOOTH",
"219.667 1012 OFFCURVE",
"132 984 OFFCURVE",
"56 928 CURVE",
"56 784 LINE",
"150.667 852 OFFCURVE",
"220 872 OFFCURVE",
"304 872 CURVE SMOOTH",
"360 872 OFFCURVE",
"432.333 857 OFFCURVE",
"521 827 CURVE SMOOTH",
"618.333 792.333 OFFCURVE",
"716 758 OFFCURVE",
"808 758 CURVE"
);
},
{
closed = 1;
nodes = (
"808 336 LINE",
"916 336 OFFCURVE",
"980 355.333 OFFCURVE",
"1068 418 CURVE",
"1068 565 LINE",
"992 503.667 OFFCURVE",
"910.667 473 OFFCURVE",
"824 473 CURVE SMOOTH",
"764 473 OFFCURVE",
"669.333 502 OFFCURVE",
"628 518 CURVE SMOOTH",
"541.333 548.667 OFFCURVE",
"476.833 568.333 OFFCURVE",
"434.5 577 CURVE SMOOTH",
"392.167 585.667 OFFCURVE",
"353.667 590 OFFCURVE",
"319 590 CURVE SMOOTH",
"217.667 590 OFFCURVE",
"130 562 OFFCURVE",
"56 506 CURVE",
"56 365 LINE",
"142.667 427.667 OFFCURVE",
"214.667 453 OFFCURVE",
"304 453 CURVE SMOOTH",
"360 453 OFFCURVE",
"432.333 437.333 OFFCURVE",
"521 406 CURVE SMOOTH",
"618.333 371.333 OFFCURVE",
"716 336 OFFCURVE",
"808 336 CURVE"
);
}
);
width = 1124;
}
);
note = approxequal;
unicode = 2248;
},
{
glyphname = uni2206;
lastChange = "2020-03-13 21:33:20 +0000";
layers = (
{
layerId = "489D640B-457E-495A-B1F8-D23C81511CE7";
paths = (
{
closed = 1;
nodes = (
"522 1409 LINE",
"5 141 LINE",
"4 0 LINE",
"1249 0 LINE",
"1249 141 LINE",
"739 1409 LINE",
"522 1409 LINE"
);
},
{
closed = 1;
nodes = (
"1049 156 LINE",
"206 156 LINE",
"545 1016 LINE SMOOTH",
"573.667 1086.667 OFFCURVE",
"598.333 1159 OFFCURVE",
"619 1233 CURVE SMOOTH",
"628 1265 LINE",
"630.667 1249 OFFCURVE",
"671 1116.667 OFFCURVE",
"711 1018 CURVE SMOOTH",
"1049 156 LINE"
);
}
);
width = 1253;
}
);
note = uni2206;
unicode = 2206;
},
{
glyphname = guillemotleft;
lastChange = "2020-03-13 21:33:20 +0000";
layers = (
{
layerId = "489D640B-457E-495A-B1F8-D23C81511CE7";
paths = (
{
closed = 1;
nodes = (
"886 141 LINE",
"1056 141 LINE",
"1056 170 LINE",
"716 537 LINE",
"1054 909 LINE",
"1054 940 LINE",
"886 940 LINE",
"548 569 LINE",
"548 506 LINE",
"886 141 LINE"
);
},
{
closed = 1;
nodes = (
"419 141 LINE",
"588 141 LINE",
"588 170 LINE",
"251 537 LINE",
"586 909 LINE",
"586 940 LINE",
"419 940 LINE",
"83 569 LINE",
"83 506 LINE",
"419 141 LINE"
);
}
);
width = 1139;
}
);
note = guillemotleft;
unicode = 00AB;
},
{
glyphname = guillemotright;
lastChange = "2020-03-13 21:33:20 +0000";
layers = (
{
layerId = "489D640B-457E-495A-B1F8-D23C81511CE7";
paths = (
{
closed = 1;
nodes = (
"718 141 LINE",
"1056 506 LINE",
"1056 569 LINE",
"718 940 LINE",
"552 940 LINE",
"552 909 LINE",
"888 537 LINE",
"550 170 LINE",
"550 141 LINE",
"718 141 LINE"
);
},
{
closed = 1;
nodes = (
"253 141 LINE",
"588 506 LINE",
"588 569 LINE",
"253 940 LINE",
"85 940 LINE",
"85 909 LINE",
"421 537 LINE",
"83 170 LINE",
"83 141 LINE",
"253 141 LINE"
);
}
);
width = 1139;
}
);
note = guillemotright;
unicode = 00BB;
},
{
glyphname = ellipsis;
lastChange = "2020-03-13 21:33:20 +0000";
layers = (
{
layerId = "489D640B-457E-495A-B1F8-D23C81511CE7";
paths = (
{
closed = 1;
nodes = (
"1576 0 LINE",
"1770 0 LINE",
"1770 219 LINE",
"1576 219 LINE",
"1576 0 LINE"
);
},
{
closed = 1;
nodes = (
"929 0 LINE",
"1121 0 LINE",
"1121 219 LINE",
"929 219 LINE",
"929 0 LINE"
);
},
{
closed = 1;
nodes = (
"278 0 LINE",
"473 0 LINE",
"473 219 LINE",
"278 219 LINE",
"278 0 LINE"
);
}
);
width = 2048;
}
);
note = ellipsis;
unicode = 2026;
},
{
glyphname = OE;
lastChange = "2020-03-13 21:33:20 +0000";
layers = (
{
layerId = "489D640B-457E-495A-B1F8-D23C81511CE7";
paths = (
{
closed = 1;
nodes = (
"999 0 LINE",
"1958 0 LINE",
"1958 156 LINE",
"1114 156 LINE",
"1114 647 LINE",
"1857 647 LINE",
"1857 801 LINE",
"1114 801 LINE",
"1114 1253 LINE",
"1917 1253 LINE",
"1917 1409 LINE",
"1003 1409 LINE",
"933 1416.333 OFFCURVE",
"862.333 1420 OFFCURVE",
"791 1420 CURVE SMOOTH",
"356.333 1420 OFFCURVE",
"97 1153.667 OFFCURVE",
"97 711 CURVE SMOOTH",
"97 264.333 OFFCURVE",
"358.333 -10 OFFCURVE",
"789 -10 CURVE SMOOTH",
"884.333 -10 OFFCURVE",
"954.333 -6.667 OFFCURVE",
"999 0 CURVE"
);
},
{
closed = 1;
nodes = (
"789 145 LINE",
"475.667 145 OFFCURVE",
"291 353.667 OFFCURVE",
"291 711 CURVE SMOOTH",
"291 1067 OFFCURVE",
"464.333 1264 OFFCURVE",
"791 1264 CURVE SMOOTH",
"801 1264 OFFCURVE",
"818.167 1264 OFFCURVE",
"842.5 1264 CURVE SMOOTH",
"866.833 1264 OFFCURVE",
"893.667 1262.667 OFFCURVE",
"923 1260 CURVE",
"923 149 LINE",
"888.333 146.333 OFFCURVE",
"843.667 145 OFFCURVE",
"789 145 CURVE"
);
}
);
width = 2048;
}
);
note = OE;
unicode = 0152;
},
{
glyphname = oe;
lastChange = "2020-03-13 21:33:20 +0000";
layers = (
{
layerId = "489D640B-457E-495A-B1F8-D23C81511CE7";
paths = (
{
closed = 1;
nodes = (
"1070 503 LINE",
"1842 503 LINE",
"1842 527 LINE SMOOTH",
"1842 910.333 OFFCURVE",
"1683 1102 OFFCURVE",
"1365 1102 CURVE SMOOTH",
"1191.667 1102 OFFCURVE",
"1063 1043 OFFCURVE",
"979 925 CURVE",
"901 1043 OFFCURVE",
"768.333 1102 OFFCURVE",
"581 1102 CURVE SMOOTH",
"258.333 1102 OFFCURVE",
"86 914 OFFCURVE",
"86 542 CURVE SMOOTH",
"86 178 OFFCURVE",
"257.667 -20 OFFCURVE",
"575 -20 CURVE SMOOTH",
"759.667 -20 OFFCURVE",
"893.333 41 OFFCURVE",
"976 163 CURVE",
"1056.667 41 OFFCURVE",
"1188.667 -20 OFFCURVE",
"1372 -20 CURVE SMOOTH",
"1601.333 -20 OFFCURVE",
"1748.333 65.333 OFFCURVE",
"1813 236 CURVE",
"1655 281 LINE",
"1621.667 185 OFFCURVE",
"1528 115 OFFCURVE",
"1372 115 CURVE SMOOTH",
"1174.667 115 OFFCURVE",
"1070 255 OFFCURVE",
"1070 503 CURVE"
);
},
{
closed = 1;
nodes = (
"881 542 LINE",
"881 247.333 OFFCURVE",
"791.667 113 OFFCURVE",
"573 113 CURVE SMOOTH",
"374.333 113 OFFCURVE",
"275 256 OFFCURVE",
"275 542 CURVE SMOOTH",
"275 827.333 OFFCURVE",
"368 969 OFFCURVE",
"584 969 CURVE SMOOTH",
"796 969 OFFCURVE",
"881 834 OFFCURVE",
"881 542 CURVE"
);
},
{
closed = 1;
nodes = (
"1656 641 LINE",
"1072 641 LINE",
"1080 845 OFFCURVE",
"1187.333 969 OFFCURVE",
"1362 969 CURVE SMOOTH",
"1542 969 OFFCURVE",
"1636 869 OFFCURVE",
"1656 641 CURVE"
);
}
);
width = 1933;
}
);
note = oe;
unicode = 0153;
},
{
glyphname = endash;
lastChange = "2020-03-13 21:33:20 +0000";
layers = (
{
layerId = "489D640B-457E-495A-B1F8-D23C81511CE7";
paths = (
{
closed = 1;
nodes = (
"0 451 LINE",
"1138 451 LINE",
"1138 588 LINE",
"0 588 LINE",
"0 451 LINE"
);
}
);
width = 1139;
}
);
note = endash;
unicode = 2013;
},
{
glyphname = emdash;
lastChange = "2020-03-13 21:33:20 +0000";
layers = (
{
layerId = "489D640B-457E-495A-B1F8-D23C81511CE7";
paths = (
{
closed = 1;
nodes = (
"0 451 LINE",
"2048 451 LINE",
"2048 588 LINE",
"0 588 LINE",
"0 451 LINE"
);
}
);
width = 2048;
}
);
note = emdash;
unicode = 2014;
},
{
glyphname = quotedblleft;
lastChange = "2020-03-13 21:33:20 +0000";
layers = (
{
layerId = "489D640B-457E-495A-B1F8-D23C81511CE7";
paths = (
{
closed = 1;
nodes = (
"407 952 LINE",
"601 952 LINE",
"601 1147 LINE",
"513 1147 LINE",
"513 1231 OFFCURVE",
"544.333 1318.333 OFFCURVE",
"607 1409 CURVE",
"485 1409 LINE",
"429 1319.667 OFFCURVE",
"407 1224.667 OFFCURVE",
"407 1098 CURVE SMOOTH",
"407 952 LINE"
);
},
{
closed = 1;
nodes = (
"75 952 LINE",
"270 952 LINE",
"270 1147 LINE",
"181 1147 LINE",
"181 1230.333 OFFCURVE",
"212.667 1317.667 OFFCURVE",
"276 1409 CURVE",
"155 1409 LINE",
"97.667 1319.667 OFFCURVE",
"75 1227.333 OFFCURVE",
"75 1098 CURVE SMOOTH",
"75 952 LINE"
);
}
);
width = 682;
}
);
note = quotedblleft;
unicode = 201C;
},
{
glyphname = quotedblright;
lastChange = "2020-03-13 21:33:20 +0000";
layers = (
{
layerId = "489D640B-457E-495A-B1F8-D23C81511CE7";
paths = (
{
closed = 1;
nodes = (
"607 1264 LINE",
"607 1409 LINE",
"413 1409 LINE",
"413 1214 LINE",
"501 1214 LINE",
"501 1130 OFFCURVE",
"469.667 1042.667 OFFCURVE",
"407 952 CURVE",
"528 952 LINE",
"588 1049.333 OFFCURVE",
"607 1140 OFFCURVE",
"607 1264 CURVE"
);
},
{
closed = 1;
nodes = (
"276 1264 LINE",
"276 1409 LINE",
"81 1409 LINE",
"81 1214 LINE",
"169 1214 LINE",
"169 1130 OFFCURVE",
"137.667 1042.667 OFFCURVE",
"75 952 CURVE",
"198 952 LINE",
"251.333 1037.333 OFFCURVE",
"276 1124 OFFCURVE",
"276 1264 CURVE"
);
}
);
width = 682;
}
);
note = quotedblright;
unicode = 201D;
},
{
glyphname = quoteleft;
lastChange = "2020-03-13 21:33:20 +0000";
layers = (
{
layerId = "489D640B-457E-495A-B1F8-D23C81511CE7";
paths = (
{
closed = 1;
nodes = (
"127 952 LINE",
"322 952 LINE",
"322 1147 LINE",
"233 1147 LINE",
"233 1230.333 OFFCURVE",
"264.667 1317.667 OFFCURVE",
"328 1409 CURVE",
"207 1409 LINE",
"149.667 1319.667 OFFCURVE",
"127 1227.333 OFFCURVE",
"127 1098 CURVE SMOOTH",
"127 952 LINE"
);
}
);
width = 455;
}
);
note = quoteleft;
unicode = 2018;
},
{
glyphname = quoteright;
lastChange = "2020-03-13 21:33:20 +0000";
layers = (
{
layerId = "489D640B-457E-495A-B1F8-D23C81511CE7";
paths = (
{
closed = 1;
nodes = (
"328 1264 LINE",
"328 1409 LINE",
"133 1409 LINE",
"133 1212 LINE",
"221 1212 LINE",
"221 1129.333 OFFCURVE",
"189.667 1042.667 OFFCURVE",
"127 952 CURVE",
"250 952 LINE",
"303.333 1037.333 OFFCURVE",
"328 1124 OFFCURVE",
"328 1264 CURVE"
);
}
);
width = 455;
}
);
note = quoteright;
unicode = 2019;
},
{
glyphname = divide;
lastChange = "2020-03-13 21:33:20 +0000";
layers = (
{
layerId = "489D640B-457E-495A-B1F8-D23C81511CE7";
paths = (
{
closed = 1;
nodes = (
"478 958 LINE",
"646 958 LINE",
"646 1141 LINE",
"478 1141 LINE",
"478 958 LINE"
);
},
{
closed = 1;
nodes = (
"65 608 LINE",
"1060 608 LINE",
"1060 754 LINE",
"65 754 LINE",
"65 608 LINE"
);
},
{
closed = 1;
nodes = (
"478 223 LINE",
"646 223 LINE",
"646 406 LINE",
"478 406 LINE",
"478 223 LINE"
);
}
);
width = 1124;
}
);
note = divide;
unicode = 00F7;
},
{
glyphname = lozenge;
lastChange = "2020-03-13 21:33:20 +0000";
layers = (
{
layerId = "489D640B-457E-495A-B1F8-D23C81511CE7";
paths = (
{
closed = 1;
nodes = (
"547 0 LINE",
"1006 721 LINE",
"547 1440 LINE",
"465 1440 LINE",
"8 719 LINE",
"465 0 LINE",
"547 0 LINE"
);
},
{
closed = 1;
nodes = (
"508 1286 LINE",
"860 721 LINE",
"508 147 LINE",
"154 721 LINE",
"508 1286 LINE"
);
}
);
width = 1012;
}
);
note = lozenge;
unicode = 25CA;
},
{
glyphname = fraction;
lastChange = "2020-03-13 21:33:20 +0000";
layers = (
{
layerId = "489D640B-457E-495A-B1F8-D23C81511CE7";
paths = (
{
closed = 1;
nodes = (
"-268 0 LINE",
"610 1409 LINE",
"465 1409 LINE",
"-416 0 LINE",
"-268 0 LINE"
);
}
);
width = 342;
}
);
note = fraction;
unicode = "2044,2215";
},
{
glyphname = Euro;
lastChange = "2020-03-13 21:33:20 +0000";
layers = (
{
layerId = "489D640B-457E-495A-B1F8-D23C81511CE7";
paths = (
{
closed = 1;
nodes = (
"691 126 LINE",
"507 126 OFFCURVE",
"398.333 242 OFFCURVE",
"369 502 CURVE",
"773 502 LINE",
"813 631 LINE",
"361 631 LINE",
"358.333 656.333 OFFCURVE",
"357 682.333 OFFCURVE",
"357 709 CURVE SMOOTH",
"357 750.333 OFFCURVE",
"358 779 OFFCURVE",
"360 795 CURVE",
"773 795 LINE",
"813 922 LINE",
"367 922 LINE",
"395 1172.667 OFFCURVE",
"491.667 1284 OFFCURVE",
"681 1284 CURVE SMOOTH",
"822.333 1284 OFFCURVE",
"903.333 1214.333 OFFCURVE",
"922 1093 CURVE",
"1107 1107 LINE",
"1068.333 1312.333 OFFCURVE",
"917.333 1430 OFFCURVE",
"684 1430 CURVE SMOOTH",
"392 1430 OFFCURVE",
"227.667 1264.667 OFFCURVE",
"185 922 CURVE",
"56 922 LINE",
"16 795 LINE",
"176 795 LINE",
"173 709 LINE",
"176 631 LINE",
"56 631 LINE",
"16 502 LINE",
"187 502 LINE",
"227 155.333 OFFCURVE",
"397.667 -20 OFFCURVE",
"687 -20 CURVE SMOOTH",
"919 -20 OFFCURVE",
"1070 96.333 OFFCURVE",
"1110 303 CURVE",
"925 317 LINE",
"906.333 195.667 OFFCURVE",
"824.333 126 OFFCURVE",
"691 126 CURVE"
);
}
);
width = 1139;
}
);
note = Euro;
unicode = 20AC;
},
{
glyphname = guilsinglleft;
lastChange = "2020-03-13 21:33:20 +0000";
layers = (
{
layerId = "489D640B-457E-495A-B1F8-D23C81511CE7";
paths = (
{
closed = 1;
nodes = (
"424 141 LINE",
"593 141 LINE",
"593 170 LINE",
"256 537 LINE",
"591 909 LINE",
"591 940 LINE",
"424 940 LINE",
"88 569 LINE",
"88 506 LINE",
"424 141 LINE"
);
}
);
width = 682;
}
);
note = guilsinglleft;
unicode = 2039;
},
{
glyphname = guilsinglright;
lastChange = "2020-03-13 21:33:20 +0000";
layers = (
{
layerId = "489D640B-457E-495A-B1F8-D23C81511CE7";
paths = (
{
closed = 1;
nodes = (
"257 141 LINE",
"594 506 LINE",
"594 569 LINE",
"257 940 LINE",
"91 940 LINE",
"91 909 LINE",
"427 537 LINE",
"89 170 LINE",
"89 141 LINE",
"257 141 LINE"
);
}
);
width = 682;
}
);
note = guilsinglright;
unicode = 203A;
},
{
glyphname = fi;
lastChange = "2020-03-13 21:33:20 +0000";
layers = (
{
layerId = "489D640B-457E-495A-B1F8-D23C81511CE7";
paths = (
{
closed = 1;
nodes = (
"361 951 LINE",
"572 951 LINE",
"572 1082 LINE",
"361 1082 LINE",
"361 1179 LINE SMOOTH",
"361 1301.667 OFFCURVE",
"400 1341 OFFCURVE",
"492 1341 CURVE SMOOTH",
"515.333 1341 OFFCURVE",
"542 1338.333 OFFCURVE",
"572 1333 CURVE",
"572 1470 LINE",
"537.333 1478 OFFCURVE",
"495 1482 OFFCURVE",
"445 1482 CURVE SMOOTH",
"266.333 1482 OFFCURVE",
"181 1401.333 OFFCURVE",
"181 1204 CURVE SMOOTH",
"181 1082 LINE",
"29 1082 LINE",
"29 951 LINE",
"181 951 LINE",
"181 0 LINE",
"361 0 LINE",
"361 951 LINE"
);
},
{
closed = 1;
nodes = (
"706 1312 LINE",
"886 1312 LINE",
"886 1484 LINE",
"706 1484 LINE",
"706 1312 LINE"
);
},
{
closed = 1;
nodes = (
"706 0 LINE",
"886 0 LINE",
"886 1082 LINE",
"706 1082 LINE",
"706 0 LINE"
);
}
);
width = 1024;
}
);
note = fi;
unicode = "F001,FB01";
},
{
glyphname = fl;
lastChange = "2020-03-13 21:33:20 +0000";
layers = (
{
layerId = "489D640B-457E-495A-B1F8-D23C81511CE7";
paths = (
{
closed = 1;
nodes = (
"361 951 LINE",
"572 951 LINE",
"572 1082 LINE",
"361 1082 LINE",
"361 1179 LINE SMOOTH",
"361 1301.667 OFFCURVE",
"400 1341 OFFCURVE",
"492 1341 CURVE SMOOTH",
"515.333 1341 OFFCURVE",
"542 1338.333 OFFCURVE",
"572 1333 CURVE",
"572 1470 LINE",
"537.333 1478 OFFCURVE",
"495 1482 OFFCURVE",
"445 1482 CURVE SMOOTH",
"266.333 1482 OFFCURVE",
"181 1401.333 OFFCURVE",
"181 1204 CURVE SMOOTH",
"181 1082 LINE",
"29 1082 LINE",
"29 951 LINE",
"181 951 LINE",
"181 0 LINE",
"361 0 LINE",
"361 951 LINE"
);
},
{
closed = 1;
nodes = (
"707 0 LINE",
"887 0 LINE",
"887 1484 LINE",
"707 1484 LINE",
"707 0 LINE"
);
}
);
width = 1024;
}
);
note = fl;
unicode = "F002,FB02";
},
{
glyphname = daggerdbl;
lastChange = "2020-03-13 21:33:20 +0000";
layers = (
{
layerId = "489D640B-457E-495A-B1F8-D23C81511CE7";
paths = (
{
closed = 1;
nodes = (
"497 1000 LINE",
"523 670 LINE",
"497 343 LINE",
"136 370 LINE",
"136 206 LINE",
"497 235 LINE",
"481 -141 LINE",
"656 -141 LINE",
"640 235 LINE",
"1000 206 LINE",
"1000 370 LINE",
"640 343 LINE",
"614 670 LINE",
"640 1000 LINE",
"1001 973 LINE",
"1001 1137 LINE",
"640 1108 LINE",
"656 1484 LINE",
"481 1484 LINE",
"497 1108 LINE",
"137 1137 LINE",
"137 973 LINE",
"497 1000 LINE"
);
}
);
width = 1139;
}
);
note = daggerdbl;
unicode = 2021;
},
{
glyphname = periodcentered;
lastChange = "2020-03-13 21:33:20 +0000";
layers = (
{
layerId = "489D640B-457E-495A-B1F8-D23C81511CE7";
paths = (
{
closed = 1;
nodes = (
"187 446 LINE",
"382 446 LINE",
"382 666 LINE",
"187 666 LINE",
"187 446 LINE"
);
}
);
width = 569;
}
);
note = periodcentered;
unicode = 2219;
},
{
glyphname = quotesinglbase;
lastChange = "2020-03-13 21:33:20 +0000";
layers = (
{
layerId = "489D640B-457E-495A-B1F8-D23C81511CE7";
paths = (
{
closed = 1;
nodes = (
"328 51 LINE",
"328 195 LINE",
"133 195 LINE",
"133 0 LINE",
"221 0 LINE",
"221 -84 OFFCURVE",
"189.667 -171.333 OFFCURVE",
"127 -262 CURVE",
"250 -262 LINE",
"303.333 -175.333 OFFCURVE",
"328 -90.333 OFFCURVE",
"328 51 CURVE"
);
}
);
width = 455;
}
);
note = quotesinglbase;
unicode = 201A;
},
{
glyphname = quotedblbase;
lastChange = "2020-03-13 21:33:20 +0000";
layers = (
{
layerId = "489D640B-457E-495A-B1F8-D23C81511CE7";
paths = (
{
closed = 1;
nodes = (
"607 51 LINE",
"607 195 LINE",
"413 195 LINE",
"413 0 LINE",
"501 0 LINE",
"501 -84 OFFCURVE",
"469.667 -171.333 OFFCURVE",
"407 -262 CURVE",
"528 -262 LINE",
"586.667 -167.333 OFFCURVE",
"607 -75.667 OFFCURVE",
"607 51 CURVE"
);
},
{
closed = 1;
nodes = (
"276 51 LINE",
"276 195 LINE",
"81 195 LINE",
"81 0 LINE",
"169 0 LINE",
"169 -84 OFFCURVE",
"137.667 -171.333 OFFCURVE",
"75 -262 CURVE",
"198 -262 LINE",
"251.333 -175.333 OFFCURVE",
"276 -90.333 OFFCURVE",
"276 51 CURVE"
);
}
);
width = 682;
}
);
note = quotedblbase;
unicode = 201E;
},
{
glyphname = perthousand;
lastChange = "2020-03-13 21:33:20 +0000";
layers = (
{
layerId = "489D640B-457E-495A-B1F8-D23C81511CE7";
paths = (
{
closed = 1;
nodes = (
"304 0 LINE",
"1228 1409 LINE",
"1071 1409 LINE",
"149 0 LINE",
"304 0 LINE"
);
},
{
closed = 1;
nodes = (
"356 1421 LINE",
"148 1421 OFFCURVE",
"55 1301.333 OFFCURVE",
"55 1060 CURVE SMOOTH",
"55 822.667 OFFCURVE",
"154.667 694 OFFCURVE",
"352 694 CURVE SMOOTH",
"545.333 694 OFFCURVE",
"649 820 OFFCURVE",
"649 1060 CURVE SMOOTH",
"649 1297.333 OFFCURVE",
"556 1421 OFFCURVE",
"356 1421 CURVE"
);
},
{
closed = 1;
nodes = (
"502 1060 LINE",
"502 888 OFFCURVE",
"454 807 OFFCURVE",
"354 807 CURVE SMOOTH",
"248.667 807 OFFCURVE",
"202 884 OFFCURVE",
"202 1060 CURVE SMOOTH",
"202 1238.667 OFFCURVE",
"244 1313 OFFCURVE",
"356 1313 CURVE SMOOTH",
"461.333 1313 OFFCURVE",
"502 1237.333 OFFCURVE",
"502 1060 CURVE"
);
},
{
closed = 1;
nodes = (
"1044 716 LINE",
"836 716 OFFCURVE",
"743 596.333 OFFCURVE",
"743 355 CURVE SMOOTH",
"743 117.667 OFFCURVE",
"842.667 -11 OFFCURVE",
"1040 -11 CURVE SMOOTH",
"1233.333 -11 OFFCURVE",
"1337 115 OFFCURVE",
"1337 355 CURVE SMOOTH",
"1337 592.333 OFFCURVE",
"1244 716 OFFCURVE",
"1044 716 CURVE"
);
},
{
closed = 1;
nodes = (
"1190 355 LINE",
"1190 183 OFFCURVE",
"1142 102 OFFCURVE",
"1042 102 CURVE SMOOTH",
"936.667 102 OFFCURVE",
"890 179 OFFCURVE",
"890 355 CURVE SMOOTH",
"890 533.667 OFFCURVE",
"932 608 OFFCURVE",
"1044 608 CURVE SMOOTH",
"1149.333 608 OFFCURVE",
"1190 532.333 OFFCURVE",
"1190 355 CURVE"
);
},
{
closed = 1;
nodes = (
"1699 716 LINE",
"1491 716 OFFCURVE",
"1398 596.333 OFFCURVE",
"1398 355 CURVE SMOOTH",
"1398 117.667 OFFCURVE",
"1497.667 -11 OFFCURVE",
"1695 -11 CURVE SMOOTH",
"1888.333 -11 OFFCURVE",
"1992 115 OFFCURVE",
"1992 355 CURVE SMOOTH",
"1992 592.333 OFFCURVE",
"1899 716 OFFCURVE",
"1699 716 CURVE"
);
},
{
closed = 1;
nodes = (
"1845 355 LINE",
"1845 183 OFFCURVE",
"1797 102 OFFCURVE",
"1697 102 CURVE SMOOTH",
"1591.667 102 OFFCURVE",
"1545 179 OFFCURVE",
"1545 355 CURVE SMOOTH",
"1545 533.667 OFFCURVE",
"1587 608 OFFCURVE",
"1699 608 CURVE SMOOTH",
"1804.333 608 OFFCURVE",
"1845 532.333 OFFCURVE",
"1845 355 CURVE"
);
}
);
width = 2048;
}
);
note = perthousand;
unicode = 2030;
},
{
glyphname = dotlessi;
lastChange = "2020-03-13 21:33:20 +0000";
layers = (
{
layerId = "489D640B-457E-495A-B1F8-D23C81511CE7";
paths = (
{
closed = 1;
nodes = (
"194 0 LINE",
"374 0 LINE",
"374 1082 LINE",
"194 1082 LINE",
"194 0 LINE"
);
}
);
width = 569;
}
);
note = dotlessi;
unicode = 0131;
},
{
glyphname = circumflex;
lastChange = "2020-03-13 21:33:20 +0000";
layers = (
{
layerId = "489D640B-457E-495A-B1F8-D23C81511CE7";
paths = (
{
closed = 1;
nodes = (
"662 1221 LINE",
"438 1491 LINE",
"234 1491 LINE",
"0 1221 LINE",
"0 1201 LINE",
"104 1201 LINE",
"336 1370 LINE",
"338 1370 LINE",
"557 1201 LINE",
"662 1201 LINE",
"662 1221 LINE"
);
}
);
width = 682;
}
);
note = circumflex;
unicode = 02C6;
},
{
glyphname = tilde;
lastChange = "2020-03-13 21:33:20 +0000";
layers = (
{
layerId = "489D640B-457E-495A-B1F8-D23C81511CE7";
paths = (
{
closed = 1;
nodes = (
"492 1201 LINE",
"605.333 1201 OFFCURVE",
"671.333 1271.667 OFFCURVE",
"694 1469 CURVE",
"602 1469 LINE",
"590.667 1389.667 OFFCURVE",
"551.667 1350 OFFCURVE",
"485 1350 CURVE SMOOTH",
"402.807 1350 OFFCURVE",
"289.009 1469 OFFCURVE",
"180 1469 CURVE SMOOTH",
"96 1469 OFFCURVE",
"44 1425.5 OFFCURVE",
"12 1355.5 CURVE SMOOTH",
"-4 1320.5 OFFCURVE",
"-15.667 1269 OFFCURVE",
"-23 1201 CURVE",
"68 1201 LINE",
"80 1277 OFFCURVE",
"112.667 1320 OFFCURVE",
"186 1320 CURVE SMOOTH",
"270.54 1320 OFFCURVE",
"384.881 1201 OFFCURVE",
"492 1201 CURVE"
);
}
);
width = 682;
}
);
note = tilde;
unicode = 02DC;
},
{
glyphname = macron;
lastChange = "2020-03-13 21:33:20 +0000";
layers = (
{
layerId = "489D640B-457E-495A-B1F8-D23C81511CE7";
paths = (
{
closed = 1;
nodes = (
"600 1236 LINE",
"600 1363 LINE",
"51 1363 LINE",
"51 1236 LINE",
"600 1236 LINE"
);
}
);
width = 682;
}
);
note = macron;
unicode = 02C9;
},
{
glyphname = breve;
lastChange = "2020-03-13 21:33:20 +0000";
layers = (
{
layerId = "489D640B-457E-495A-B1F8-D23C81511CE7";
paths = (
{
closed = 1;
nodes = (
"297 1201 LINE",
"475.667 1201 OFFCURVE",
"603 1320.667 OFFCURVE",
"631 1510 CURVE",
"514 1510 LINE",
"494.667 1408 OFFCURVE",
"423 1357 OFFCURVE",
"299 1357 CURVE SMOOTH",
"173 1357 OFFCURVE",
"100.667 1408 OFFCURVE",
"82 1510 CURVE",
"-35 1510 LINE",
"-11 1324.667 OFFCURVE",
"121 1201 OFFCURVE",
"297 1201 CURVE"
);
}
);
width = 682;
}
);
note = breve;
unicode = 02D8;
},
{
glyphname = dotaccent;
lastChange = "2020-03-13 21:33:20 +0000";
layers = (
{
layerId = "489D640B-457E-495A-B1F8-D23C81511CE7";
paths = (
{
closed = 1;
nodes = (
"156 1312 LINE",
"336 1312 LINE",
"336 1484 LINE",
"156 1484 LINE",
"156 1312 LINE"
);
}
);
width = 682;
}
);
note = dotaccent;
unicode = 02D9;
},
{
glyphname = ring;
lastChange = "2020-03-13 21:33:20 +0000";
layers = (
{
layerId = "489D640B-457E-495A-B1F8-D23C81511CE7";
paths = (
{
closed = 1;
nodes = (
"535 1410 LINE",
"535 1543.333 OFFCURVE",
"425 1651 OFFCURVE",
"293 1651 CURVE SMOOTH",
"159.667 1651 OFFCURVE",
"51 1544.667 OFFCURVE",
"51 1410 CURVE SMOOTH",
"51 1276.667 OFFCURVE",
"159.667 1168 OFFCURVE",
"293 1168 CURVE SMOOTH",
"426.333 1168 OFFCURVE",
"535 1276.667 OFFCURVE",
"535 1410 CURVE"
);
},
{
closed = 1;
nodes = (
"427 1410 LINE",
"427 1335.333 OFFCURVE",
"370.333 1273 OFFCURVE",
"293 1273 CURVE SMOOTH",
"214.333 1273 OFFCURVE",
"158 1336.667 OFFCURVE",
"158 1410 CURVE SMOOTH",
"158 1484.667 OFFCURVE",
"217 1544 OFFCURVE",
"293 1544 CURVE SMOOTH",
"367.667 1544 OFFCURVE",
"427 1484.667 OFFCURVE",
"427 1410 CURVE"
);
}
);
width = 682;
}
);
note = ring;
unicode = 02DA;
},
{
glyphname = cedilla;
lastChange = "2020-03-13 21:33:20 +0000";
layers = (
{
layerId = "489D640B-457E-495A-B1F8-D23C81511CE7";
paths = (
{
closed = 1;
nodes = (
"483 -253 LINE",
"483 -161 OFFCURVE",
"420.333 -104 OFFCURVE",
"295 -100 CURVE",
"334 0 LINE",
"227 0 LINE",
"162 -182 LINE",
"171.333 -180.667 OFFCURVE",
"190.333 -180 OFFCURVE",
"219 -180 CURVE SMOOTH",
"307.667 -180 OFFCURVE",
"352 -205.667 OFFCURVE",
"352 -257 CURVE SMOOTH",
"352 -311 OFFCURVE",
"303 -338 OFFCURVE",
"205 -338 CURVE SMOOTH",
"180.333 -338 OFFCURVE",
"151.667 -336 OFFCURVE",
"119 -332 CURVE",
"119 -430 LINE",
"141 -432.667 OFFCURVE",
"171 -434 OFFCURVE",
"209 -434 CURVE SMOOTH",
"391.667 -434 OFFCURVE",
"483 -373.667 OFFCURVE",
"483 -253 CURVE"
);
}
);
width = 682;
}
);
note = cedilla;
unicode = 00B8;
},
{
glyphname = hungarumlaut;
lastChange = "2020-03-13 21:33:20 +0000";
layers = (
{
layerId = "489D640B-457E-495A-B1F8-D23C81511CE7";
paths = (
{
closed = 1;
nodes = (
"22 1201 LINE",
"116 1201 LINE",
"446 1479 LINE",
"446 1508 LINE",
"239 1508 LINE",
"22 1221 LINE",
"22 1201 LINE"
);
},
{
closed = 1;
nodes = (
"369 1201 LINE",
"463 1201 LINE",
"793 1479 LINE",
"793 1508 LINE",
"586 1508 LINE",
"369 1221 LINE",
"369 1201 LINE"
);
}
);
width = 682;
}
);
note = hungarumlaut;
unicode = 02DD;
},
{
glyphname = ogonek;
lastChange = "2020-03-13 21:33:20 +0000";
layers = (
{
layerId = "489D640B-457E-495A-B1F8-D23C81511CE7";
paths = (
{
closed = 1;
nodes = (
"430 -400 LINE",
"430 -293 LINE",
"389.333 -309 OFFCURVE",
"351 -317 OFFCURVE",
"315 -317 CURVE SMOOTH",
"255 -317 OFFCURVE",
"221 -283 OFFCURVE",
"221 -227 CURVE SMOOTH",
"221 -128.039 OFFCURVE",
"296.031 -40.303 OFFCURVE",
"368 0 CURVE",
"235 0 LINE",
"144.333 -50.667 OFFCURVE",
"80 -146.667 OFFCURVE",
"80 -240 CURVE SMOOTH",
"80 -353.333 OFFCURVE",
"151 -427 OFFCURVE",
"291 -427 CURVE SMOOTH",
"341.667 -427 OFFCURVE",
"388 -418 OFFCURVE",
"430 -400 CURVE"
);
}
);
width = 682;
}
);
note = ogonek;
unicode = 02DB;
},
{
glyphname = caron;
lastChange = "2020-03-13 21:33:20 +0000";
layers = (
{
layerId = "489D640B-457E-495A-B1F8-D23C81511CE7";
paths = (
{
closed = 1;
nodes = (
"438 1201 LINE",
"662 1471 LINE",
"662 1491 LINE",
"557 1491 LINE",
"338 1322 LINE",
"336 1322 LINE",
"104 1491 LINE",
"0 1491 LINE",
"0 1471 LINE",
"234 1201 LINE",
"438 1201 LINE"
);
}
);
width = 682;
}
);
note = caron;
unicode = 02C7;
},
{
glyphname = Lslash;
lastChange = "2020-03-13 21:33:20 +0000";
layers = (
{
layerId = "489D640B-457E-495A-B1F8-D23C81511CE7";
paths = (
{
closed = 1;
nodes = (
"616 797 LINE",
"616 954 LINE",
"359 806 LINE",
"359 1409 LINE",
"168 1409 LINE",
"168 696 LINE",
"20 611 LINE",
"20 453 LINE",
"168 538 LINE",
"168 0 LINE",
"1071 0 LINE",
"1071 156 LINE",
"359 156 LINE",
"359 648 LINE",
"616 797 LINE"
);
}
);
width = 1139;
}
);
note = Lslash;
unicode = 0141;
},
{
glyphname = lslash;
lastChange = "2020-03-13 21:33:20 +0000";
layers = (
{
layerId = "489D640B-457E-495A-B1F8-D23C81511CE7";
paths = (
{
closed = 1;
nodes = (
"138 0 LINE",
"318 0 LINE",
"318 646 LINE",
"442 717 LINE",
"442 876 LINE",
"318 804 LINE",
"318 1484 LINE",
"138 1484 LINE",
"138 700 LINE",
"16 632 LINE",
"16 474 LINE",
"138 542 LINE",
"138 0 LINE"
);
}
);
width = 455;
}
);
note = lslash;
unicode = 0142;
},
{
glyphname = brokenbar;
lastChange = "2020-03-13 21:33:20 +0000";
layers = (
{
layerId = "489D640B-457E-495A-B1F8-D23C81511CE7";
paths = (
{
closed = 1;
nodes = (
"183 706 LINE",
"349 706 LINE",
"349 1484 LINE",
"183 1484 LINE",
"183 706 LINE"
);
},
{
closed = 1;
nodes = (
"183 -434 LINE",
"349 -434 LINE",
"349 345 LINE",
"183 345 LINE",
"183 -434 LINE"
);
}
);
width = 532;
}
);
note = brokenbar;
unicode = 00A6;
},
{
glyphname = Eth;
lastChange = "2020-03-13 21:33:20 +0000";
layers = (
{
layerId = "489D640B-457E-495A-B1F8-D23C81511CE7";
paths = (
{
closed = 1;
nodes = (
"14 801 LINE",
"14 647 LINE",
"168 647 LINE",
"168 0 LINE",
"695 0 LINE SMOOTH",
"967 0 OFFCURVE",
"1182.667 119.5 OFFCURVE",
"1296 337.5 CURVE SMOOTH",
"1352.667 446.5 OFFCURVE",
"1381 573.667 OFFCURVE",
"1381 719 CURVE SMOOTH",
"1381 1160.333 OFFCURVE",
"1111.333 1409 OFFCURVE",
"634 1409 CURVE SMOOTH",
"168 1409 LINE",
"168 801 LINE",
"14 801 LINE"
);
},
{
closed = 1;
nodes = (
"1189 719 LINE",
"1189 487 OFFCURVE",
"1102.167 311.667 OFFCURVE",
"945.5 221 CURVE SMOOTH",
"867.167 175.667 OFFCURVE",
"776.333 153 OFFCURVE",
"673 153 CURVE SMOOTH",
"359 153 LINE",
"359 647 LINE",
"765 647 LINE",
"765 801 LINE",
"359 801 LINE",
"359 1256 LINE",
"630 1256 LINE SMOOTH",
"992.667 1256 OFFCURVE",
"1189 1068.333 OFFCURVE",
"1189 719 CURVE"
);
}
);
width = 1479;
}
);
note = Eth;
unicode = 00D0;
},
{
glyphname = eth;
lastChange = "2020-03-13 21:33:20 +0000";
layers = (
{
layerId = "489D640B-457E-495A-B1F8-D23C81511CE7";
paths = (
{
closed = 1;
nodes = (
"566 -20 LINE",
"896.667 -20 OFFCURVE",
"1063 162 OFFCURVE",
"1063 510 CURVE SMOOTH",
"1063 516 LINE SMOOTH",
"1063 825.333 OFFCURVE",
"946 1102 OFFCURVE",
"718 1310 CURVE",
"929 1402 LINE",
"930 1514 LINE",
"624 1382 LINE",
"564 1426 OFFCURVE",
"507.333 1460 OFFCURVE",
"454 1484 CURVE",
"245 1484 LINE",
"333.667 1436.667 OFFCURVE",
"414.333 1384 OFFCURVE",
"487 1326 CURVE",
"269 1232 LINE",
"269 1118 LINE",
"570 1251 LINE",
"653.333 1175 OFFCURVE",
"731.333 1064.667 OFFCURVE",
"804 920 CURVE",
"741.333 959.333 OFFCURVE",
"664.333 979 OFFCURVE",
"573 979 CURVE SMOOTH",
"254.333 979 OFFCURVE",
"86 806.333 OFFCURVE",
"86 481 CURVE SMOOTH",
"86 157 OFFCURVE",
"256.667 -20 OFFCURVE",
"566 -20 CURVE"
);
},
{
closed = 1;
nodes = (
"874 481 LINE",
"874 223.667 OFFCURVE",
"778.667 113 OFFCURVE",
"564 113 CURVE SMOOTH",
"370.667 113 OFFCURVE",
"275 227.667 OFFCURVE",
"275 481 CURVE SMOOTH",
"275 735.667 OFFCURVE",
"367.667 846 OFFCURVE",
"577 846 CURVE SMOOTH",
"785 846 OFFCURVE",
"874 737 OFFCURVE",
"874 481 CURVE"
);
}
);
width = 1139;
}
);
note = eth;
unicode = 00F0;
},
{
glyphname = Thorn;
lastChange = "2020-03-13 21:33:20 +0000";
layers = (
{
layerId = "489D640B-457E-495A-B1F8-D23C81511CE7";
paths = (
{
closed = 1;
nodes = (
"1258 735 LINE",
"1258 1001.667 OFFCURVE",
"1079.667 1157 OFFCURVE",
"761 1157 CURVE SMOOTH",
"359 1157 LINE",
"359 1409 LINE",
"168 1409 LINE",
"168 0 LINE",
"359 0 LINE",
"359 297 LINE",
"773 297 LINE SMOOTH",
"973 297 OFFCURVE",
"1122.667 374.833 OFFCURVE",
"1200 507.5 CURVE SMOOTH",
"1238.667 573.833 OFFCURVE",
"1258 649.667 OFFCURVE",
"1258 735 CURVE"
);
},
{
closed = 1;
nodes = (
"1066 731 LINE",
"1066 547 OFFCURVE",
"950 438 OFFCURVE",
"746 438 CURVE SMOOTH",
"359 438 LINE",
"359 1014 LINE",
"738 1014 LINE SMOOTH",
"956.667 1014 OFFCURVE",
"1066 909.667 OFFCURVE",
"1066 731 CURVE"
);
}
);
width = 1366;
}
);
note = Thorn;
unicode = 00DE;
},
{
glyphname = thorn;
lastChange = "2020-03-13 21:33:20 +0000";
layers = (
{
layerId = "489D640B-457E-495A-B1F8-D23C81511CE7";
paths = (
{
closed = 1;
nodes = (
"138 1484 LINE",
"138 -425 LINE",
"318 -425 LINE",
"318 -2 LINE SMOOTH",
"318 106 OFFCURVE",
"316.667 162.667 OFFCURVE",
"314 168 CURVE",
"319 168 LINE",
"376.333 42.667 OFFCURVE",
"488.333 -20 OFFCURVE",
"655 -20 CURVE SMOOTH",
"920.333 -20 OFFCURVE",
"1053 168.667 OFFCURVE",
"1053 546 CURVE SMOOTH",
"1053 928.667 OFFCURVE",
"921.667 1101 OFFCURVE",
"655 1101 CURVE SMOOTH",
"483 1101 OFFCURVE",
"384 1041.333 OFFCURVE",
"320 908 CURVE",
"314 908 LINE",
"316.667 966.667 OFFCURVE",
"318 1017.667 OFFCURVE",
"318 1061 CURVE SMOOTH",
"318 1484 LINE",
"138 1484 LINE"
);
},
{
closed = 1;
nodes = (
"864 542 LINE",
"864 232.667 OFFCURVE",
"785.667 113 OFFCURVE",
"607 113 CURVE SMOOTH",
"403 113 OFFCURVE",
"318 244 OFFCURVE",
"318 528 CURVE SMOOTH",
"318 732 OFFCURVE",
"360.833 857 OFFCURVE",
"441.5 917 CURVE SMOOTH",
"481.833 947 OFFCURVE",
"537.667 962 OFFCURVE",
"609 962 CURVE SMOOTH",
"786.333 962 OFFCURVE",
"864 843.333 OFFCURVE",
"864 542 CURVE"
);
}
);
width = 1139;
}
);
note = thorn;
unicode = 00FE;
},
{
glyphname = minus;
lastChange = "2020-03-13 21:33:20 +0000";
layers = (
{
layerId = "489D640B-457E-495A-B1F8-D23C81511CE7";
paths = (
{
closed = 1;
nodes = (
"101 608 LINE",
"1096 608 LINE",
"1096 754 LINE",
"101 754 LINE",
"101 608 LINE"
);
}
);
width = 1196;
}
);
note = minus;
unicode = 2212;
},
{
glyphname = multiply;
lastChange = "2020-03-13 21:33:20 +0000";
layers = (
{
layerId = "489D640B-457E-495A-B1F8-D23C81511CE7";
paths = (
{
closed = 1;
nodes = (
"142 330 LINE",
"244 225 LINE",
"600 580 LINE",
"953 227 LINE",
"1055 332 LINE",
"703 684 LINE",
"1053 1032 LINE",
"948 1137 LINE",
"598 786 LINE",
"248 1139 LINE",
"144 1036 LINE",
"496 684 LINE",
"142 330 LINE"
);
}
);
width = 1196;
}
);
note = multiply;
unicode = 00D7;
},
{
glyphname = onesuperior;
lastChange = "2020-03-13 21:33:20 +0000";
layers = (
{
layerId = "489D640B-457E-495A-B1F8-D23C81511CE7";
paths = (
{
closed = 1;
nodes = (
"80 563 LINE",
"637 563 LINE",
"637 670 LINE",
"422 670 LINE",
"422 1409 LINE",
"299 1409 LINE",
"89 1272 LINE",
"89 1152 LINE",
"291 1290 LINE",
"291 670 LINE",
"80 670 LINE",
"80 563 LINE"
);
}
);
width = 682;
}
);
note = onesuperior;
unicode = 00B9;
},
{
glyphname = twosuperior;
lastChange = "2020-03-13 21:33:20 +0000";
layers = (
{
layerId = "489D640B-457E-495A-B1F8-D23C81511CE7";
paths = (
{
closed = 1;
nodes = (
"43 563 LINE",
"643 563 LINE",
"643 676 LINE",
"200 676 LINE",
"213.333 706 OFFCURVE",
"236.667 736.333 OFFCURVE",
"270 767 CURVE SMOOTH",
"303.333 797.667 OFFCURVE",
"360.667 843 OFFCURVE",
"442 903 CURVE SMOOTH",
"567.333 995 OFFCURVE",
"630 1090 OFFCURVE",
"630 1188 CURVE SMOOTH",
"630 1334.667 OFFCURVE",
"523.333 1421 OFFCURVE",
"354 1421 CURVE SMOOTH",
"182 1421 OFFCURVE",
"68.333 1324.667 OFFCURVE",
"51 1182 CURVE",
"184 1174 LINE",
"194.667 1264.667 OFFCURVE",
"257.333 1315 OFFCURVE",
"348 1315 CURVE SMOOTH",
"446.667 1315 OFFCURVE",
"493 1260.667 OFFCURVE",
"493 1178 CURVE SMOOTH",
"493 1100.667 OFFCURVE",
"437.333 1030.667 OFFCURVE",
"308 940 CURVE SMOOTH",
"165.333 841.333 OFFCURVE",
"82.333 758 OFFCURVE",
"41 666 CURVE",
"43 563 LINE"
);
}
);
width = 682;
}
);
note = twosuperior;
unicode = 00B2;
},
{
glyphname = threesuperior;
lastChange = "2020-03-13 21:33:20 +0000";
layers = (
{
layerId = "489D640B-457E-495A-B1F8-D23C81511CE7";
paths = (
{
closed = 1;
nodes = (
"642 795 LINE",
"642 912.333 OFFCURVE",
"566.333 985 OFFCURVE",
"445 997 CURVE",
"445 999 LINE",
"565 1025.667 OFFCURVE",
"621 1104 OFFCURVE",
"621 1204 CURVE SMOOTH",
"621 1334.667 OFFCURVE",
"516.333 1421 OFFCURVE",
"343 1421 CURVE SMOOTH",
"173.667 1421 OFFCURVE",
"63.333 1337.333 OFFCURVE",
"46 1192 CURVE",
"181 1180 LINE",
"189 1266.667 OFFCURVE",
"248.333 1315 OFFCURVE",
"339 1315 CURVE SMOOTH",
"433.667 1315 OFFCURVE",
"484 1266 OFFCURVE",
"484 1186 CURVE SMOOTH",
"484 1099.333 OFFCURVE",
"418.667 1049 OFFCURVE",
"312 1049 CURVE SMOOTH",
"255 1049 LINE",
"255 940 LINE",
"316 940 LINE SMOOTH",
"442 940 OFFCURVE",
"505 894.333 OFFCURVE",
"505 803 CURVE SMOOTH",
"505 704.333 OFFCURVE",
"451.667 655 OFFCURVE",
"345 655 CURVE SMOOTH",
"235.667 655 OFFCURVE",
"175 700.333 OFFCURVE",
"163 791 CURVE",
"27 778 LINE",
"48.333 626.667 OFFCURVE",
"154.333 551 OFFCURVE",
"345 551 CURVE SMOOTH",
"534.333 551 OFFCURVE",
"642 640.333 OFFCURVE",
"642 795 CURVE"
);
}
);
width = 682;
}
);
note = threesuperior;
unicode = 00B3;
},
{
glyphname = franc;
lastChange = "2020-03-13 21:33:20 +0000";
layers = (
{
layerId = "489D640B-457E-495A-B1F8-D23C81511CE7";
paths = (
{
closed = 1;
nodes = (
"359 1254 LINE",
"1070 1254 LINE",
"1070 1409 LINE",
"179 1409 LINE",
"179 408 LINE",
"4 408 LINE",
"4 279 LINE",
"179 279 LINE",
"179 0 LINE",
"359 0 LINE",
"359 279 LINE",
"761 279 LINE",
"761 408 LINE",
"359 408 LINE",
"359 621 LINE",
"1046 621 LINE",
"1046 778 LINE",
"359 778 LINE",
"359 1254 LINE"
);
}
);
width = 1139;
}
);
note = franc;
unicode = 20A3;
},
{
glyphname = dcroat;
lastChange = "2020-03-13 21:33:20 +0000";
layers = (
{
layerId = "489D640B-457E-495A-B1F8-D23C81511CE7";
paths = (
{
closed = 1;
nodes = (
"821 174 LINE",
"825 174 LINE",
"825 118 OFFCURVE",
"831 21.333 OFFCURVE",
"835 0 CURVE",
"1007 0 LINE",
"1003 36 OFFCURVE",
"1001 110.333 OFFCURVE",
"1001 223 CURVE SMOOTH",
"1001 1206 LINE",
"1133 1206 LINE",
"1133 1337 LINE",
"1001 1337 LINE",
"1001 1484 LINE",
"821 1484 LINE",
"821 1337 LINE",
"521 1337 LINE",
"521 1206 LINE",
"821 1206 LINE",
"821 1035 LINE",
"823 914 LINE",
"821 914 LINE",
"754.333 1044.667 OFFCURVE",
"648 1102 OFFCURVE",
"484 1102 CURVE SMOOTH",
"218.667 1102 OFFCURVE",
"86 913.333 OFFCURVE",
"86 536 CURVE SMOOTH",
"86 162.667 OFFCURVE",
"210.667 -20 OFFCURVE",
"484 -20 CURVE SMOOTH",
"646.667 -20 OFFCURVE",
"754.333 35.333 OFFCURVE",
"821 174 CURVE"
);
},
{
closed = 1;
nodes = (
"275 542 LINE",
"275 843.333 OFFCURVE",
"350.667 969 OFFCURVE",
"532 969 CURVE SMOOTH",
"733.333 969 OFFCURVE",
"821 840.667 OFFCURVE",
"821 554 CURVE SMOOTH",
"821 256.667 OFFCURVE",
"734 119 OFFCURVE",
"530 119 CURVE SMOOTH",
"350 119 OFFCURVE",
"275 239.333 OFFCURVE",
"275 542 CURVE"
);
}
);
width = 1139;
}
);
note = dcroat;
unicode = 0111;
},
{
glyphname = overscore;
lastChange = "2020-03-13 21:33:20 +0000";
layers = (
{
layerId = "489D640B-457E-495A-B1F8-D23C81511CE7";
paths = (
{
closed = 1;
nodes = (
"1148 1452 LINE",
"1148 1546 LINE",
"-17 1546 LINE",
"-17 1452 LINE",
"1148 1452 LINE"
);
}
);
width = 1131;
}
);
note = overscore;
unicode = 00AF;
},
{
glyphname = Gamma;
lastChange = "2020-03-13 21:33:20 +0000";
layers = (
{
layerId = "489D640B-457E-495A-B1F8-D23C81511CE7";
paths = (
{
closed = 1;
nodes = (
"1071 1410 LINE",
"168 1410 LINE",
"168 1 LINE",
"359 1 LINE",
"359 1254 LINE",
"1071 1254 LINE",
"1071 1410 LINE"
);
}
);
width = 1128;
}
);
note = Gamma;
unicode = 0393;
},
{
glyphname = Theta;
lastChange = "2020-03-13 21:33:20 +0000";
layers = (
{
layerId = "489D640B-457E-495A-B1F8-D23C81511CE7";
paths = (
{
closed = 1;
nodes = (
"1495 711 LINE",
"1495 1007 OFFCURVE",
"1380.667 1230.5 OFFCURVE",
"1170 1344.5 CURVE SMOOTH",
"1064.667 1401.5 OFFCURVE",
"940.333 1430 OFFCURVE",
"797 1430 CURVE SMOOTH",
"357 1430 OFFCURVE",
"97 1161.667 OFFCURVE",
"97 711 CURVE SMOOTH",
"97 415 OFFCURVE",
"210.5 185.333 OFFCURVE",
"420.5 68 CURVE SMOOTH",
"525.5 9.333 OFFCURVE",
"650.333 -20 OFFCURVE",
"795 -20 CURVE SMOOTH",
"1081.667 -20 OFFCURVE",
"1297.833 102.667 OFFCURVE",
"1410.5 324 CURVE SMOOTH",
"1466.833 434.667 OFFCURVE",
"1495 563.667 OFFCURVE",
"1495 711 CURVE"
);
},
{
closed = 1;
nodes = (
"1300 711 LINE",
"1300 344.333 OFFCURVE",
"1120.333 135 OFFCURVE",
"795 135 CURVE SMOOTH",
"479 135 OFFCURVE",
"291 357.667 OFFCURVE",
"291 711 CURVE SMOOTH",
"291 1067 OFFCURVE",
"474.333 1274 OFFCURVE",
"797 1274 CURVE SMOOTH",
"1117 1274 OFFCURVE",
"1300 1061.667 OFFCURVE",
"1300 711 CURVE"
);
},
{
closed = 1;
nodes = (
"502 794 LINE",
"502 634 LINE",
"1089 634 LINE",
"1089 794 LINE",
"502 794 LINE"
);
}
);
width = 1593;
}
);
note = Theta;
unicode = 0398;
},
{
glyphname = Phi;
lastChange = "2020-03-13 21:33:20 +0000";
layers = (
{
layerId = "489D640B-457E-495A-B1F8-D23C81511CE7";
paths = (
{
closed = 1;
nodes = (
"1518 736 LINE",
"1518 1052 OFFCURVE",
"1325 1237 OFFCURVE",
"981 1237 CURVE SMOOTH",
"910 1237 LINE",
"910 1419 LINE",
"725 1419 LINE",
"725 1237 LINE",
"653 1237 LINE SMOOTH",
"310.333 1237 OFFCURVE",
"117 1053.333 OFFCURVE",
"117 736 CURVE SMOOTH",
"117 533.333 OFFCURVE",
"203.333 368.833 OFFCURVE",
"362 281.5 CURVE SMOOTH",
"441.333 237.833 OFFCURVE",
"534.667 216 OFFCURVE",
"642 216 CURVE SMOOTH",
"725 216 LINE",
"725 -11 LINE",
"910 -11 LINE",
"910 216 LINE",
"993 216 LINE SMOOTH",
"1206.333 216 OFFCURVE",
"1369.833 306.5 OFFCURVE",
"1454.5 464.5 CURVE SMOOTH",
"1496.833 543.5 OFFCURVE",
"1518 634 OFFCURVE",
"1518 736 CURVE"
);
},
{
closed = 1;
nodes = (
"1326 732 LINE",
"1326 482.667 OFFCURVE",
"1198 353 OFFCURVE",
"966 353 CURVE SMOOTH",
"910 353 LINE",
"910 1099 LINE",
"958 1099 LINE SMOOTH",
"1203.333 1099 OFFCURVE",
"1326 976.667 OFFCURVE",
"1326 732 CURVE"
);
},
{
closed = 1;
nodes = (
"309 732 LINE",
"309 981.333 OFFCURVE",
"430.333 1099 OFFCURVE",
"673 1099 CURVE SMOOTH",
"725 1099 LINE",
"725 353 LINE",
"669 353 LINE SMOOTH",
"437 353 OFFCURVE",
"309 482.667 OFFCURVE",
"309 732 CURVE"
);
}
);
width = 1634;
}
);
note = Phi;
unicode = 03A6;
},
{
glyphname = alpha;
lastChange = "2020-03-13 21:33:20 +0000";
layers = (
{
layerId = "489D640B-457E-495A-B1F8-D23C81511CE7";
paths = (
{
closed = 1;
nodes = (
"843 237 LINE",
"847 237 LINE",
"853.667 193 OFFCURVE",
"879 81.333 OFFCURVE",
"911 0 CURVE",
"1094 0 LINE",
"1031.333 137.333 OFFCURVE",
"989.667 357.667 OFFCURVE",
"983 571 CURVE",
"993.667 701.667 OFFCURVE",
"1058.333 940.667 OFFCURVE",
"1125 1082 CURVE",
"937 1082 LINE",
"903.667 1004.667 OFFCURVE",
"879.333 926.333 OFFCURVE",
"864 847 CURVE",
"862 847 LINE",
"802 1008.333 OFFCURVE",
"680 1102 OFFCURVE",
"512 1102 CURVE SMOOTH",
"233.333 1102 OFFCURVE",
"86 914.667 OFFCURVE",
"86 536 CURVE SMOOTH",
"86 162.667 OFFCURVE",
"210.667 -20 OFFCURVE",
"484 -20 CURVE SMOOTH",
"645.333 -20 OFFCURVE",
"759 55.667 OFFCURVE",
"843 237 CURVE"
);
},
{
closed = 1;
nodes = (
"275 542 LINE",
"275 843.333 OFFCURVE",
"350.667 969 OFFCURVE",
"532 969 CURVE SMOOTH",
"690.667 969 OFFCURVE",
"793.333 827.333 OFFCURVE",
"832 546 CURVE",
"797.333 284.667 OFFCURVE",
"681 119 OFFCURVE",
"521 119 CURVE SMOOTH",
"345 119 OFFCURVE",
"275 246 OFFCURVE",
"275 542 CURVE"
);
}
);
width = 1184;
}
);
note = alpha;
unicode = 03B1;
},
{
glyphname = delta;
lastChange = "2020-03-13 21:33:20 +0000";
layers = (
{
layerId = "489D640B-457E-495A-B1F8-D23C81511CE7";
paths = (
{
closed = 1;
nodes = (
"864 471 LINE",
"864 233.667 OFFCURVE",
"763 113 OFFCURVE",
"571 113 CURVE SMOOTH",
"385.667 113 OFFCURVE",
"275 245.667 OFFCURVE",
"275 471 CURVE SMOOTH",
"275 679 OFFCURVE",
"405.333 843.667 OFFCURVE",
"644 929 CURVE",
"756 813 OFFCURVE",
"802.167 736.5 OFFCURVE",
"837.5 634.5 CURVE SMOOTH",
"855.167 583.5 OFFCURVE",
"864 529 OFFCURVE",
"864 471 CURVE"
);
},
{
closed = 1;
nodes = (
"607 1352 LINE",
"965 1352 LINE",
"965 1484 LINE",
"232 1484 LINE",
"232 1365 LINE",
"551 1026 LINE",
"243 919.333 OFFCURVE",
"86 731.667 OFFCURVE",
"86 473 CURVE SMOOTH",
"86 165 OFFCURVE",
"269.667 -20 OFFCURVE",
"571 -20 CURVE SMOOTH",
"869.667 -20 OFFCURVE",
"1053 172.333 OFFCURVE",
"1053 475 CURVE SMOOTH",
"1053 612.333 OFFCURVE",
"1012.5 726.5 OFFCURVE",
"942.5 832.5 CURVE SMOOTH",
"907.5 885.5 OFFCURVE",
"849.667 953.333 OFFCURVE",
"769 1036 CURVE SMOOTH",
"453 1360 LINE",
"607 1352 LINE"
);
}
);
width = 1140;
}
);
note = delta;
unicode = 03B4;
},
{
glyphname = epsilon;
lastChange = "2020-03-13 21:33:20 +0000";
layers = (
{
layerId = "489D640B-457E-495A-B1F8-D23C81511CE7";
paths = (
{
closed = 1;
nodes = (
"456 114 LINE",
"333.333 114 OFFCURVE",
"257 182 OFFCURVE",
"257 298 CURVE SMOOTH",
"257 398 OFFCURVE",
"312.667 452.5 OFFCURVE",
"414 478.5 CURVE SMOOTH",
"464.667 491.5 OFFCURVE",
"541 498 OFFCURVE",
"643 498 CURVE",
"643 633 LINE",
"508.333 633 OFFCURVE",
"415 647.167 OFFCURVE",
"363 675.5 CURVE SMOOTH",
"311 703.833 OFFCURVE",
"285 748.333 OFFCURVE",
"285 809 CURVE SMOOTH",
"285 907.667 OFFCURVE",
"350.667 968 OFFCURVE",
"472 968 CURVE SMOOTH",
"575.333 968 OFFCURVE",
"657.667 921.667 OFFCURVE",
"719 829 CURVE",
"847 917 LINE",
"763.667 1040.333 OFFCURVE",
"638.333 1102 OFFCURVE",
"471 1102 CURVE SMOOTH",
"251 1102 OFFCURVE",
"103 986.333 OFFCURVE",
"103 813 CURVE SMOOTH",
"103 681 OFFCURVE",
"192.667 582 OFFCURVE",
"334 566 CURVE",
"334 564 LINE",
"180.667 549.333 OFFCURVE",
"70 441.667 OFFCURVE",
"70 295 CURVE SMOOTH",
"70 96.333 OFFCURVE",
"202.667 -20 OFFCURVE",
"444 -20 CURVE SMOOTH",
"620 -20 OFFCURVE",
"767.333 45.667 OFFCURVE",
"874 175 CURVE",
"769 275 LINE",
"690.333 179 OFFCURVE",
"572 114 OFFCURVE",
"456 114 CURVE"
);
}
);
width = 913;
}
);
note = epsilon;
unicode = 03B5;
},
{
glyphname = sigma;
lastChange = "2020-03-13 21:33:20 +0000";
layers = (
{
layerId = "489D640B-457E-495A-B1F8-D23C81511CE7";
paths = (
{
closed = 1;
nodes = (
"1072 491 LINE",
"1072 649.667 OFFCURVE",
"1028 791.667 OFFCURVE",
"920 953 CURVE",
"920 957 LINE",
"1068 951 LINE",
"1233 951 LINE",
"1233 1082 LINE",
"664 1082 LINE SMOOTH",
"293.333 1082 OFFCURVE",
"86 877.333 OFFCURVE",
"86 524 CURVE SMOOTH",
"86 173.333 OFFCURVE",
"262 -20 OFFCURVE",
"582 -20 CURVE SMOOTH",
"887.333 -20 OFFCURVE",
"1072 169.667 OFFCURVE",
"1072 491 CURVE"
);
},
{
closed = 1;
nodes = (
"883 488 LINE",
"883 245.333 OFFCURVE",
"775.333 113 OFFCURVE",
"574 113 CURVE SMOOTH",
"375.333 113 OFFCURVE",
"276 250.667 OFFCURVE",
"276 526 CURVE SMOOTH",
"276 794 OFFCURVE",
"424.667 951 OFFCURVE",
"670 951 CURVE SMOOTH",
"759 951 LINE",
"841.667 812.333 OFFCURVE",
"883 658 OFFCURVE",
"883 488 CURVE"
);
}
);
width = 1264;
}
);
note = sigma;
unicode = 03C3;
},
{
glyphname = tau;
lastChange = "2020-03-13 21:33:20 +0000";
layers = (
{
layerId = "489D640B-457E-495A-B1F8-D23C81511CE7";
paths = (
{
closed = 1;
nodes = (
"281 951 LINE",
"308 951 LINE",
"308 227 LINE SMOOTH",
"308 48.333 OFFCURVE",
"371.667 -20 OFFCURVE",
"525 -20 CURVE SMOOTH",
"569 -20 OFFCURVE",
"616.667 -13.333 OFFCURVE",
"668 0 CURVE",
"668 129 LINE",
"582 121 LINE",
"512.667 121 OFFCURVE",
"488 164.667 OFFCURVE",
"488 266 CURVE SMOOTH",
"488 951 LINE",
"792 951 LINE",
"792 1082 LINE",
"212 1082 LINE SMOOTH",
"142.667 1082 OFFCURVE",
"61 1069 OFFCURVE",
"29 1053 CURVE",
"29 914 LINE",
"63.667 934 OFFCURVE",
"193 951 OFFCURVE",
"281 951 CURVE"
);
}
);
width = 809;
}
);
note = tau;
unicode = 03C4;
},
{
glyphname = phi;
lastChange = "2020-03-13 21:33:20 +0000";
layers = (
{
layerId = "489D640B-457E-495A-B1F8-D23C81511CE7";
paths = (
{
closed = 1;
nodes = (
"1242 565 LINE",
"1242 894.333 OFFCURVE",
"1106.667 1104 OFFCURVE",
"884 1104 CURVE SMOOTH",
"673.333 1104 OFFCURVE",
"572 956.333 OFFCURVE",
"572 699 CURVE SMOOTH",
"572 119 LINE",
"370.667 129.667 OFFCURVE",
"274 257 OFFCURVE",
"274 541 CURVE SMOOTH",
"274 786.333 OFFCURVE",
"360.667 934 OFFCURVE",
"526 970 CURVE",
"505 1106 LINE",
"242.333 1063.333 OFFCURVE",
"85 853 OFFCURVE",
"85 545 CURVE SMOOTH",
"85 190.333 OFFCURVE",
"249.333 -3.333 OFFCURVE",
"572 -18 CURVE",
"572 -425 LINE",
"742 -425 LINE",
"742 -18 LINE",
"1071.333 0.667 OFFCURVE",
"1242 202.333 OFFCURVE",
"1242 565 CURVE"
);
},
{
closed = 1;
nodes = (
"1053 567 LINE",
"1053 269.667 OFFCURVE",
"958 128.333 OFFCURVE",
"742 119 CURVE",
"742 702 LINE SMOOTH",
"742 881.333 OFFCURVE",
"790 971 OFFCURVE",
"886 971 CURVE SMOOTH",
"939.333 971 OFFCURVE",
"980.5 935.833 OFFCURVE",
"1009.5 865.5 CURVE SMOOTH",
"1038.5 795.167 OFFCURVE",
"1053 695.667 OFFCURVE",
"1053 567 CURVE"
);
}
);
width = 1328;
}
);
note = phi;
unicode = 03C6;
},
{
glyphname = nsuperior;
lastChange = "2020-03-13 21:33:20 +0000";
layers = (
{
layerId = "489D640B-457E-495A-B1F8-D23C81511CE7";
paths = (
{
closed = 1;
nodes = (
"514 519 LINE",
"643 519 LINE",
"643 952 LINE SMOOTH",
"643 1113.333 OFFCURVE",
"582.667 1181 OFFCURVE",
"436 1181 CURVE SMOOTH",
"337.333 1181 OFFCURVE",
"274.667 1144.667 OFFCURVE",
"228 1058 CURVE",
"226 1058 LINE",
"220 1169 LINE",
"101 1169 LINE",
"105 1030 LINE",
"105 519 LINE",
"233 519 LINE",
"233 883 LINE SMOOTH",
"233 1008.333 OFFCURVE",
"294 1077 OFFCURVE",
"390 1077 CURVE SMOOTH",
"483.333 1077 OFFCURVE",
"514 1037 OFFCURVE",
"514 917 CURVE SMOOTH",
"514 519 LINE"
);
}
);
width = 747;
}
);
note = nsuperior;
unicode = 207F;
},
{
glyphname = peseta;
lastChange = "2020-03-13 21:33:20 +0000";
layers = (
{
layerId = "489D640B-457E-495A-B1F8-D23C81511CE7";
paths = (
{
closed = 1;
nodes = (
"954 985 LINE",
"954 1254.333 OFFCURVE",
"773 1409 OFFCURVE",
"457 1409 CURVE SMOOTH",
"158 1409 LINE",
"158 0 LINE",
"339 0 LINE",
"339 549 LINE",
"469 549 LINE SMOOTH",
"767.667 549 OFFCURVE",
"954 718.333 OFFCURVE",
"954 985 CURVE"
);
},
{
closed = 1;
nodes = (
"772 983 LINE",
"772 794.333 OFFCURVE",
"665.333 700 OFFCURVE",
"452 700 CURVE SMOOTH",
"339 700 LINE",
"339 1256 LINE",
"444 1256 LINE SMOOTH",
"662.667 1256 OFFCURVE",
"772 1165 OFFCURVE",
"772 983 CURVE"
);
},
{
closed = 1;
nodes = (
"1407 8 LINE",
"1407 131 LINE",
"1366.333 121.667 OFFCURVE",
"1336.667 117 OFFCURVE",
"1318 117 CURVE SMOOTH",
"1244.667 117 OFFCURVE",
"1222 164 OFFCURVE",
"1222 268 CURVE SMOOTH",
"1222 682 LINE",
"1379 682 LINE",
"1379 813 LINE",
"1222 813 LINE",
"1222 1055 LINE",
"1112 1055 LINE",
"1059 813 LINE",
"948 813 LINE",
"948 682 LINE",
"1052 682 LINE",
"1052 229 LINE SMOOTH",
"1052 66.333 OFFCURVE",
"1110 -16 OFFCURVE",
"1250 -16 CURVE SMOOTH",
"1304 -16 OFFCURVE",
"1356.333 -8 OFFCURVE",
"1407 8 CURVE"
);
},
{
closed = 1;
nodes = (
"2151 229 LINE",
"2151 323.667 OFFCURVE",
"2109 383 OFFCURVE",
"2037 423 CURVE SMOOTH",
"2001 443 OFFCURVE",
"1945 461.667 OFFCURVE",
"1869 479 CURVE SMOOTH",
"1782.333 498.333 OFFCURVE",
"1724.5 517.167 OFFCURVE",
"1695.5 535.5 CURVE SMOOTH",
"1666.5 553.833 OFFCURVE",
"1652 575.667 OFFCURVE",
"1652 601 CURVE SMOOTH",
"1652 657.667 OFFCURVE",
"1703.667 686 OFFCURVE",
"1807 686 CURVE SMOOTH",
"1900.333 686 OFFCURVE",
"1959.667 650 OFFCURVE",
"1973 586 CURVE",
"2134 603 LINE",
"2104.667 757.667 OFFCURVE",
"1994 824 OFFCURVE",
"1806 824 CURVE SMOOTH",
"1591.333 824 OFFCURVE",
"1477 742.333 OFFCURVE",
"1477 593 CURVE SMOOTH",
"1477 510.333 OFFCURVE",
"1515.667 453.833 OFFCURVE",
"1585 414.5 CURVE SMOOTH",
"1619.667 394.833 OFFCURVE",
"1673.333 376 OFFCURVE",
"1746 358 CURVE SMOOTH",
"1831.333 336.667 OFFCURVE",
"1885.833 320.833 OFFCURVE",
"1909.5 310.5 CURVE SMOOTH",
"1956.833 289.833 OFFCURVE",
"1981 263.333 OFFCURVE",
"1981 222 CURVE SMOOTH",
"1981 152 OFFCURVE",
"1919.667 117 OFFCURVE",
"1797 117 CURVE SMOOTH",
"1679.667 117 OFFCURVE",
"1615.667 154.667 OFFCURVE",
"1593 236 CURVE",
"1434 210 LINE",
"1471.333 50 OFFCURVE",
"1583.333 -20 OFFCURVE",
"1798 -20 CURVE SMOOTH",
"2024.667 -20 OFFCURVE",
"2151 69 OFFCURVE",
"2151 229 CURVE"
);
}
);
width = 2240;
}
);
note = peseta;
unicode = 20A7;
},
{
glyphname = arrowleft;
lastChange = "2020-03-13 21:33:20 +0000";
layers = (
{
layerId = "489D640B-457E-495A-B1F8-D23C81511CE7";
paths = (
{
closed = 1;
nodes = (
"641 497 LINE",
"1630 497 LINE",
"1630 583 LINE",
"641 583 LINE",
"679 627.667 OFFCURVE",
"718.667 693.333 OFFCURVE",
"760 780 CURVE",
"688 780 LINE",
"603.333 680.667 OFFCURVE",
"513.333 606.667 OFFCURVE",
"418 558 CURVE",
"418 522 LINE",
"513.333 473.333 OFFCURVE",
"603.333 399.333 OFFCURVE",
"688 300 CURVE",
"760 300 LINE",
"718.667 386.667 OFFCURVE",
"679 452.333 OFFCURVE",
"641 497 CURVE"
);
}
);
width = 2048;
}
);
note = arrowleft;
unicode = 2190;
},
{
glyphname = arrowup;
lastChange = "2020-03-13 21:33:20 +0000";
layers = (
{
layerId = "489D640B-457E-495A-B1F8-D23C81511CE7";
paths = (
{
closed = 1;
nodes = (
"469 928 LINE",
"469 -61 LINE",
"555 -61 LINE",
"555 928 LINE",
"599.667 890 OFFCURVE",
"665.333 850.333 OFFCURVE",
"752 809 CURVE",
"752 881 LINE",
"652.667 965.667 OFFCURVE",
"578.667 1055.667 OFFCURVE",
"530 1151 CURVE",
"494 1151 LINE",
"445.333 1055.667 OFFCURVE",
"371.333 965.667 OFFCURVE",
"272 881 CURVE",
"272 809 LINE",
"358.667 850.333 OFFCURVE",
"424.333 890 OFFCURVE",
"469 928 CURVE"
);
}
);
width = 1024;
}
);
note = arrowup;
unicode = 2191;
},
{
glyphname = arrowright;
lastChange = "2020-03-13 21:33:20 +0000";
layers = (
{
layerId = "489D640B-457E-495A-B1F8-D23C81511CE7";
paths = (
{
closed = 1;
nodes = (
"1407 583 LINE",
"418 583 LINE",
"418 497 LINE",
"1407 497 LINE",
"1369 452.333 OFFCURVE",
"1329.333 386.667 OFFCURVE",
"1288 300 CURVE",
"1360 300 LINE",
"1444.667 399.333 OFFCURVE",
"1534.667 473.333 OFFCURVE",
"1630 522 CURVE",
"1630 558 LINE",
"1534.667 606.667 OFFCURVE",
"1444.667 680.667 OFFCURVE",
"1360 780 CURVE",
"1288 780 LINE",
"1329.333 693.333 OFFCURVE",
"1369 627.667 OFFCURVE",
"1407 583 CURVE"
);
}
);
width = 2048;
}
);
note = arrowright;
unicode = 2192;
},
{
glyphname = arrowdown;
lastChange = "2020-03-13 21:33:20 +0000";
layers = (
{
layerId = "489D640B-457E-495A-B1F8-D23C81511CE7";
paths = (
{
closed = 1;
nodes = (
"555 162 LINE",
"555 1151 LINE",
"469 1151 LINE",
"469 162 LINE",
"424.333 200 OFFCURVE",
"358.667 239.667 OFFCURVE",
"272 281 CURVE",
"272 209 LINE",
"371.333 124.333 OFFCURVE",
"445.333 34.333 OFFCURVE",
"494 -61 CURVE",
"530 -61 LINE",
"578.667 34.333 OFFCURVE",
"652.667 124.333 OFFCURVE",
"752 209 CURVE",
"752 281 LINE",
"665.333 239.667 OFFCURVE",
"599.667 200 OFFCURVE",
"555 162 CURVE"
);
}
);
width = 1024;
}
);
note = arrowdown;
unicode = 2193;
},
{
glyphname = arrowboth;
lastChange = "2020-03-13 21:33:20 +0000";
layers = (
{
layerId = "489D640B-457E-495A-B1F8-D23C81511CE7";
paths = (
{
closed = 1;
nodes = (
"641 497 LINE",
"1407 497 LINE",
"1369 452.333 OFFCURVE",
"1329.333 386.667 OFFCURVE",
"1288 300 CURVE",
"1360 300 LINE",
"1444.667 399.333 OFFCURVE",
"1534.667 473.333 OFFCURVE",
"1630 522 CURVE",
"1630 558 LINE",
"1534.667 606.667 OFFCURVE",
"1444.667 680.667 OFFCURVE",
"1360 780 CURVE",
"1288 780 LINE",
"1329.333 693.333 OFFCURVE",
"1369 627.667 OFFCURVE",
"1407 583 CURVE",
"641 583 LINE",
"679 627.667 OFFCURVE",
"718.667 693.333 OFFCURVE",
"760 780 CURVE",
"688 780 LINE",
"603.333 680.667 OFFCURVE",
"513.333 606.667 OFFCURVE",
"418 558 CURVE",
"418 522 LINE",
"513.333 473.333 OFFCURVE",
"603.333 399.333 OFFCURVE",
"688 300 CURVE",
"760 300 LINE",
"718.667 386.667 OFFCURVE",
"679 452.333 OFFCURVE",
"641 497 CURVE"
);
}
);
width = 2048;
}
);
note = arrowboth;
unicode = 2194;
},
{
glyphname = arrowupdn;
lastChange = "2020-03-13 21:33:20 +0000";
layers = (
{
layerId = "489D640B-457E-495A-B1F8-D23C81511CE7";
paths = (
{
closed = 1;
nodes = (
"469 928 LINE",
"469 162 LINE",
"424.333 200 OFFCURVE",
"358.667 239.667 OFFCURVE",
"272 281 CURVE",
"272 209 LINE",
"371.333 124.333 OFFCURVE",
"445.333 34.333 OFFCURVE",
"494 -61 CURVE",
"530 -61 LINE",
"578.667 34.333 OFFCURVE",
"652.667 124.333 OFFCURVE",
"752 209 CURVE",
"752 281 LINE",
"665.333 239.667 OFFCURVE",
"599.667 200 OFFCURVE",
"555 162 CURVE",
"555 928 LINE",
"599.667 890 OFFCURVE",
"665.333 850.333 OFFCURVE",
"752 809 CURVE",
"752 881 LINE",
"652.667 965.667 OFFCURVE",
"578.667 1055.667 OFFCURVE",
"530 1151 CURVE",
"494 1151 LINE",
"445.333 1055.667 OFFCURVE",
"371.333 965.667 OFFCURVE",
"272 881 CURVE",
"272 809 LINE",
"358.667 850.333 OFFCURVE",
"424.333 890 OFFCURVE",
"469 928 CURVE"
);
}
);
width = 1024;
}
);
note = arrowupdn;
unicode = 2195;
},
{
glyphname = arrowupdnbse;
lastChange = "2020-03-13 21:33:20 +0000";
layers = (
{
layerId = "489D640B-457E-495A-B1F8-D23C81511CE7";
paths = (
{
closed = 1;
nodes = (
"272 -104 LINE",
"272 -184 LINE",
"752 -184 LINE",
"752 -104 LINE",
"272 -104 LINE"
);
},
{
closed = 1;
nodes = (
"469 928 LINE",
"469 162 LINE",
"424.333 200 OFFCURVE",
"358.667 239.667 OFFCURVE",
"272 281 CURVE",
"272 209 LINE",
"371.333 124.333 OFFCURVE",
"445.333 34.333 OFFCURVE",
"494 -61 CURVE",
"530 -61 LINE",
"578.667 34.333 OFFCURVE",
"652.667 124.333 OFFCURVE",
"752 209 CURVE",
"752 281 LINE",
"665.333 239.667 OFFCURVE",
"599.667 200 OFFCURVE",
"555 162 CURVE",
"555 928 LINE",
"599.667 890 OFFCURVE",
"665.333 850.333 OFFCURVE",
"752 809 CURVE",
"752 881 LINE",
"652.667 965.667 OFFCURVE",
"578.667 1055.667 OFFCURVE",
"530 1151 CURVE",
"494 1151 LINE",
"445.333 1055.667 OFFCURVE",
"371.333 965.667 OFFCURVE",
"272 881 CURVE",
"272 809 LINE",
"358.667 850.333 OFFCURVE",
"424.333 890 OFFCURVE",
"469 928 CURVE"
);
}
);
width = 1024;
}
);
note = arrowupdnbse;
unicode = 21A8;
},
{
glyphname = orthogonal;
lastChange = "2020-03-13 21:33:20 +0000";
layers = (
{
layerId = "489D640B-457E-495A-B1F8-D23C81511CE7";
paths = (
{
closed = 1;
nodes = (
"408 1223 LINE",
"408 0 LINE",
"1632 0 LINE",
"1632 94 LINE",
"502 94 LINE",
"502 1223 LINE",
"408 1223 LINE"
);
}
);
width = 2005;
}
);
note = orthogonal;
unicode = 221F;
},
{
glyphname = intersection;
lastChange = "2020-03-13 21:33:20 +0000";
layers = (
{
layerId = "489D640B-457E-495A-B1F8-D23C81511CE7";
paths = (
{
closed = 1;
nodes = (
"278 -2 LINE",
"381 -2 LINE",
"381 510 LINE SMOOTH",
"381 768.667 OFFCURVE",
"519 930 OFFCURVE",
"735 930 CURVE SMOOTH",
"948.333 930 OFFCURVE",
"1091 765.333 OFFCURVE",
"1091 512 CURVE SMOOTH",
"1091 -2 LINE",
"1194 -2 LINE",
"1194 510 LINE SMOOTH",
"1194 707.333 OFFCURVE",
"1110.167 878 OFFCURVE",
"969.5 966 CURVE SMOOTH",
"899.167 1010 OFFCURVE",
"820.333 1032 OFFCURVE",
"733 1032 CURVE SMOOTH",
"559.667 1032 OFFCURVE",
"413.333 938.833 OFFCURVE",
"336 779.5 CURVE SMOOTH",
"297.333 699.833 OFFCURVE",
"278 610 OFFCURVE",
"278 510 CURVE SMOOTH",
"278 -2 LINE"
);
}
);
width = 1472;
}
);
note = intersection;
unicode = 2229;
},
{
glyphname = equivalence;
lastChange = "2020-03-13 21:33:20 +0000";
layers = (
{
layerId = "489D640B-457E-495A-B1F8-D23C81511CE7";
paths = (
{
closed = 1;
nodes = (
"100 956 LINE",
"1095 956 LINE",
"1095 1104 LINE",
"100 1104 LINE",
"100 956 LINE"
);
},
{
closed = 1;
nodes = (
"100 244 LINE",
"1095 244 LINE",
"1095 392 LINE",
"100 392 LINE",
"100 244 LINE"
);
},
{
closed = 1;
nodes = (
"100 600 LINE",
"1095 600 LINE",
"1095 748 LINE",
"100 748 LINE",
"100 600 LINE"
);
}
);
width = 1195;
}
);
note = equivalence;
unicode = 2261;
},
{
glyphname = house;
lastChange = "2020-03-13 21:33:20 +0000";
layers = (
{
layerId = "489D640B-457E-495A-B1F8-D23C81511CE7";
paths = (
{
closed = 1;
nodes = (
"157 0 LINE",
"1079 0 LINE",
"1079 635 LINE",
"618 1153 LINE",
"157 635 LINE",
"157 0 LINE"
);
},
{
closed = 1;
nodes = (
"237 82 LINE",
"237 600 LINE",
"618 1026 LINE",
"999 600 LINE",
"999 82 LINE",
"237 82 LINE"
);
}
);
width = 1237;
}
);
note = house;
unicode = 2302;
},
{
glyphname = revlogicalnot;
lastChange = "2020-03-13 21:33:20 +0000";
layers = (
{
layerId = "489D640B-457E-495A-B1F8-D23C81511CE7";
paths = (
{
closed = 1;
nodes = (
"100 180 LINE",
"245 180 LINE",
"245 608 LINE",
"1095 608 LINE",
"1095 754 LINE",
"100 754 LINE",
"100 180 LINE"
);
}
);
width = 1196;
}
);
note = revlogicalnot;
unicode = 2310;
},
{
glyphname = integraltp;
lastChange = "2020-03-13 21:33:20 +0000";
layers = (
{
layerId = "489D640B-457E-495A-B1F8-D23C81511CE7";
paths = (
{
closed = 1;
nodes = (
"693 -614 LINE",
"693 1423 LINE SMOOTH",
"693 1493 OFFCURVE",
"695 1539.667 OFFCURVE",
"699 1563 CURVE SMOOTH",
"705 1589 OFFCURVE",
"720 1602 OFFCURVE",
"744 1602 CURVE SMOOTH",
"754.667 1602 OFFCURVE",
"771 1589 OFFCURVE",
"793 1563 CURVE SMOOTH",
"818.333 1535 OFFCURVE",
"836.333 1518.333 OFFCURVE",
"847 1513 CURVE",
"855.667 1506.333 OFFCURVE",
"870 1503 OFFCURVE",
"890 1503 CURVE SMOOTH",
"939.333 1503 OFFCURVE",
"978 1541.667 OFFCURVE",
"978 1595 CURVE SMOOTH",
"978 1659 OFFCURVE",
"924 1706 OFFCURVE",
"840 1706 CURVE SMOOTH",
"672 1706 OFFCURVE",
"546 1525.333 OFFCURVE",
"546 1264 CURVE SMOOTH",
"546 -614 LINE",
"693 -614 LINE"
);
}
);
width = 1237;
}
);
note = integraltp;
unicode = 2320;
},
{
glyphname = integralbt;
lastChange = "2020-03-13 21:33:20 +0000";
layers = (
{
layerId = "489D640B-457E-495A-B1F8-D23C81511CE7";
paths = (
{
closed = 1;
nodes = (
"546 1706 LINE",
"546 -334 LINE SMOOTH",
"546 -418.667 OFFCURVE",
"542.167 -469.5 OFFCURVE",
"534.5 -486.5 CURVE SMOOTH",
"526.833 -503.5 OFFCURVE",
"513.333 -512 OFFCURVE",
"494 -512 CURVE SMOOTH",
"483.333 -512 OFFCURVE",
"467.667 -499.667 OFFCURVE",
"447 -475 CURVE SMOOTH",
"426.333 -447.667 OFFCURVE",
"412.667 -432.667 OFFCURVE",
"406 -430 CURVE",
"388.667 -419.333 OFFCURVE",
"369 -414 OFFCURVE",
"347 -414 CURVE SMOOTH",
"299 -414 OFFCURVE",
"261 -454 OFFCURVE",
"261 -506 CURVE SMOOTH",
"261 -568.667 OFFCURVE",
"319.333 -614 OFFCURVE",
"398 -614 CURVE SMOOTH",
"574 -614 OFFCURVE",
"693 -434 OFFCURVE",
"693 -174 CURVE SMOOTH",
"693 1706 LINE",
"546 1706 LINE"
);
}
);
width = 1237;
}
);
note = integralbt;
unicode = 2321;
},
{
glyphname = uni2500;
lastChange = "2020-03-13 21:33:20 +0000";
layers = (
{
layerId = "489D640B-457E-495A-B1F8-D23C81511CE7";
paths = (
{
closed = 1;
nodes = (
"-10 549 LINE",
"1461 549 LINE",
"1461 694 LINE",
"-10 694 LINE",
"-10 549 LINE"
);
}
);
width = 1451;
}
);
note = uni2500;
unicode = 2500;
},
{
glyphname = uni2502;
lastChange = "2020-03-13 21:33:20 +0000";
layers = (
{
layerId = "489D640B-457E-495A-B1F8-D23C81511CE7";
paths = (
{
closed = 1;
nodes = (
"472 1864 LINE",
"472 -621 LINE",
"617 -621 LINE",
"617 1864 LINE",
"472 1864 LINE"
);
}
);
width = 1280;
}
);
note = uni2502;
unicode = 2502;
},
{
glyphname = uni250C;
lastChange = "2020-03-13 21:33:20 +0000";
layers = (
{
layerId = "489D640B-457E-495A-B1F8-D23C81511CE7";
paths = (
{
closed = 1;
nodes = (
"653 694 LINE",
"653 -621 LINE",
"798 -621 LINE",
"798 549 LINE",
"1461 549 LINE",
"1461 694 LINE",
"653 694 LINE"
);
}
);
width = 1451;
}
);
note = uni250C;
unicode = 250C;
},
{
glyphname = uni2510;
lastChange = "2020-03-13 21:33:20 +0000";
layers = (
{
layerId = "489D640B-457E-495A-B1F8-D23C81511CE7";
paths = (
{
closed = 1;
nodes = (
"-10 549 LINE",
"653 549 LINE",
"653 -621 LINE",
"798 -621 LINE",
"798 694 LINE",
"-10 694 LINE",
"-10 549 LINE"
);
}
);
width = 1451;
}
);
note = uni2510;
unicode = 2510;
},
{
glyphname = uni2514;
lastChange = "2020-03-13 21:33:20 +0000";
layers = (
{
layerId = "489D640B-457E-495A-B1F8-D23C81511CE7";
paths = (
{
closed = 1;
nodes = (
"653 1864 LINE",
"653 549 LINE",
"1461 549 LINE",
"1461 694 LINE",
"798 694 LINE",
"798 1864 LINE",
"653 1864 LINE"
);
}
);
width = 1451;
}
);
note = uni2514;
unicode = 2514;
},
{
glyphname = uni2518;
lastChange = "2020-03-13 21:33:20 +0000";
layers = (
{
layerId = "489D640B-457E-495A-B1F8-D23C81511CE7";
paths = (
{
closed = 1;
nodes = (
"-10 549 LINE",
"798 549 LINE",
"798 1864 LINE",
"653 1864 LINE",
"653 694 LINE",
"-10 694 LINE",
"-10 549 LINE"
);
}
);
width = 1451;
}
);
note = uni2518;
unicode = 2518;
},
{
glyphname = uni251C;
lastChange = "2020-03-13 21:33:20 +0000";
layers = (
{
layerId = "489D640B-457E-495A-B1F8-D23C81511CE7";
paths = (
{
closed = 1;
nodes = (
"653 1864 LINE",
"653 -621 LINE",
"798 -621 LINE",
"798 549 LINE",
"1461 549 LINE",
"1461 694 LINE",
"798 694 LINE",
"798 1864 LINE",
"653 1864 LINE"
);
}
);
width = 1451;
}
);
note = uni251C;
unicode = 251C;
},
{
glyphname = uni2524;
lastChange = "2020-03-13 21:33:20 +0000";
layers = (
{
layerId = "489D640B-457E-495A-B1F8-D23C81511CE7";
paths = (
{
closed = 1;
nodes = (
"-10 549 LINE",
"653 549 LINE",
"653 -621 LINE",
"798 -621 LINE",
"798 1864 LINE",
"653 1864 LINE",
"653 694 LINE",
"-10 694 LINE",
"-10 549 LINE"
);
}
);
width = 1451;
}
);
note = uni2524;
unicode = 2524;
},
{
glyphname = uni252C;
lastChange = "2020-03-13 21:33:20 +0000";
layers = (
{
layerId = "489D640B-457E-495A-B1F8-D23C81511CE7";
paths = (
{
closed = 1;
nodes = (
"-10 549 LINE",
"653 549 LINE",
"653 -621 LINE",
"798 -621 LINE",
"798 549 LINE",
"1461 549 LINE",
"1461 694 LINE",
"-10 694 LINE",
"-10 549 LINE"
);
}
);
width = 1451;
}
);
note = uni252C;
unicode = 252C;
},
{
glyphname = uni2534;
lastChange = "2020-03-13 21:33:20 +0000";
layers = (
{
layerId = "489D640B-457E-495A-B1F8-D23C81511CE7";
paths = (
{
closed = 1;
nodes = (
"-10 549 LINE",
"1461 549 LINE",
"1461 694 LINE",
"798 694 LINE",
"798 1864 LINE",
"653 1864 LINE",
"653 694 LINE",
"-10 694 LINE",
"-10 549 LINE"
);
}
);
width = 1451;
}
);
note = uni2534;
unicode = 2534;
},
{
glyphname = uni253C;
lastChange = "2020-03-13 21:33:20 +0000";
layers = (
{
layerId = "489D640B-457E-495A-B1F8-D23C81511CE7";
paths = (
{
closed = 1;
nodes = (
"-10 549 LINE",
"653 549 LINE",
"653 -621 LINE",
"798 -621 LINE",
"798 549 LINE",
"1461 549 LINE",
"1461 694 LINE",
"798 694 LINE",
"798 1864 LINE",
"653 1864 LINE",
"653 694 LINE",
"-10 694 LINE",
"-10 549 LINE"
);
}
);
width = 1451;
}
);
note = uni253C;
unicode = 253C;
},
{
glyphname = uni2550;
lastChange = "2020-03-13 21:33:20 +0000";
layers = (
{
layerId = "489D640B-457E-495A-B1F8-D23C81511CE7";
paths = (
{
closed = 1;
nodes = (
"-10 729 LINE",
"1461 729 LINE",
"1461 874 LINE",
"-10 874 LINE",
"-10 729 LINE"
);
},
{
closed = 1;
nodes = (
"-10 369 LINE",
"1461 369 LINE",
"1461 514 LINE",
"-10 514 LINE",
"-10 369 LINE"
);
}
);
width = 1451;
}
);
note = uni2550;
unicode = 2550;
},
{
glyphname = uni2551;
lastChange = "2020-03-13 21:33:20 +0000";
layers = (
{
layerId = "489D640B-457E-495A-B1F8-D23C81511CE7";
paths = (
{
closed = 1;
nodes = (
"473 1864 LINE",
"473 -621 LINE",
"618 -621 LINE",
"618 1864 LINE",
"473 1864 LINE"
);
},
{
closed = 1;
nodes = (
"833 1864 LINE",
"833 -621 LINE",
"978 -621 LINE",
"978 1864 LINE",
"833 1864 LINE"
);
}
);
width = 1451;
}
);
note = uni2551;
unicode = 2551;
},
{
glyphname = uni2552;
lastChange = "2020-03-13 21:33:20 +0000";
layers = (
{
layerId = "489D640B-457E-495A-B1F8-D23C81511CE7";
paths = (
{
closed = 1;
nodes = (
"653 874 LINE",
"653 -621 LINE",
"798 -621 LINE",
"798 369 LINE",
"1461 369 LINE",
"1461 514 LINE",
"798 514 LINE",
"798 729 LINE",
"1461 729 LINE",
"1461 874 LINE",
"653 874 LINE"
);
}
);
width = 1451;
}
);
note = uni2552;
unicode = 2552;
},
{
glyphname = uni2553;
lastChange = "2020-03-13 21:33:20 +0000";
layers = (
{
layerId = "489D640B-457E-495A-B1F8-D23C81511CE7";
paths = (
{
closed = 1;
nodes = (
"1461 694 LINE",
"473 694 LINE",
"473 -621 LINE",
"618 -621 LINE",
"618 549 LINE",
"833 549 LINE",
"833 -621 LINE",
"978 -621 LINE",
"978 549 LINE",
"1461 549 LINE",
"1461 694 LINE"
);
}
);
width = 1451;
}
);
note = uni2553;
unicode = 2553;
},
{
glyphname = uni2554;
lastChange = "2020-03-13 21:33:20 +0000";
layers = (
{
layerId = "489D640B-457E-495A-B1F8-D23C81511CE7";
paths = (
{
closed = 1;
nodes = (
"473 874 LINE",
"473 -621 LINE",
"618 -621 LINE",
"618 729 LINE",
"1461 729 LINE",
"1461 874 LINE",
"473 874 LINE"
);
},
{
closed = 1;
nodes = (
"833 514 LINE",
"833 -621 LINE",
"978 -621 LINE",
"978 369 LINE",
"1461 369 LINE",
"1461 514 LINE",
"833 514 LINE"
);
}
);
width = 1451;
}
);
note = uni2554;
unicode = 2554;
},
{
glyphname = uni2555;
lastChange = "2020-03-13 21:33:20 +0000";
layers = (
{
layerId = "489D640B-457E-495A-B1F8-D23C81511CE7";
paths = (
{
closed = 1;
nodes = (
"-10 369 LINE",
"653 369 LINE",
"653 -621 LINE",
"798 -621 LINE",
"798 874 LINE",
"-10 874 LINE",
"-10 729 LINE",
"653 729 LINE",
"653 514 LINE",
"-10 514 LINE",
"-10 369 LINE"
);
}
);
width = 1451;
}
);
note = uni2555;
unicode = 2555;
},
{
glyphname = uni2556;
lastChange = "2020-03-13 21:33:20 +0000";
layers = (
{
layerId = "489D640B-457E-495A-B1F8-D23C81511CE7";
paths = (
{
closed = 1;
nodes = (
"-10 549 LINE",
"473 549 LINE",
"473 -621 LINE",
"618 -621 LINE",
"618 549 LINE",
"833 549 LINE",
"833 -621 LINE",
"978 -621 LINE",
"978 694 LINE",
"-10 694 LINE",
"-10 549 LINE"
);
}
);
width = 1451;
}
);
note = uni2556;
unicode = 2556;
},
{
glyphname = uni2557;
lastChange = "2020-03-13 21:33:20 +0000";
layers = (
{
layerId = "489D640B-457E-495A-B1F8-D23C81511CE7";
paths = (
{
closed = 1;
nodes = (
"978 874 LINE",
"-10 874 LINE",
"-10 729 LINE",
"833 729 LINE",
"833 -621 LINE",
"978 -621 LINE",
"978 874 LINE"
);
},
{
closed = 1;
nodes = (
"618 -621 LINE",
"618 514 LINE",
"-10 514 LINE",
"-10 369 LINE",
"473 369 LINE",
"473 -621 LINE",
"618 -621 LINE"
);
}
);
width = 1451;
}
);
note = uni2557;
unicode = 2557;
},
{
glyphname = uni2558;
lastChange = "2020-03-13 21:33:20 +0000";
layers = (
{
layerId = "489D640B-457E-495A-B1F8-D23C81511CE7";
paths = (
{
closed = 1;
nodes = (
"653 1864 LINE",
"653 369 LINE",
"1461 369 LINE",
"1461 514 LINE",
"798 514 LINE",
"798 729 LINE",
"1461 729 LINE",
"1461 874 LINE",
"798 874 LINE",
"798 1864 LINE",
"653 1864 LINE"
);
}
);
width = 1451;
}
);
note = uni2558;
unicode = 2558;
},
{
glyphname = uni2559;
lastChange = "2020-03-13 21:33:20 +0000";
layers = (
{
layerId = "489D640B-457E-495A-B1F8-D23C81511CE7";
paths = (
{
closed = 1;
nodes = (
"833 1864 LINE",
"833 694 LINE",
"618 694 LINE",
"618 1864 LINE",
"473 1864 LINE",
"473 549 LINE",
"1461 549 LINE",
"1461 694 LINE",
"978 694 LINE",
"978 1864 LINE",
"833 1864 LINE"
);
}
);
width = 1451;
}
);
note = uni2559;
unicode = 2559;
},
{
glyphname = uni255A;
lastChange = "2020-03-13 21:33:20 +0000";
layers = (
{
layerId = "489D640B-457E-495A-B1F8-D23C81511CE7";
paths = (
{
closed = 1;
nodes = (
"473 1864 LINE",
"473 369 LINE",
"1461 369 LINE",
"1461 514 LINE",
"618 514 LINE",
"618 1864 LINE",
"473 1864 LINE"
);
},
{
closed = 1;
nodes = (
"833 1864 LINE",
"833 729 LINE",
"1461 729 LINE",
"1461 874 LINE",
"978 874 LINE",
"978 1864 LINE",
"833 1864 LINE"
);
}
);
width = 1451;
}
);
note = uni255A;
unicode = 255A;
},
{
glyphname = uni255B;
lastChange = "2020-03-13 21:33:20 +0000";
layers = (
{
layerId = "489D640B-457E-495A-B1F8-D23C81511CE7";
paths = (
{
closed = 1;
nodes = (
"-10 369 LINE",
"798 369 LINE",
"798 1864 LINE",
"653 1864 LINE",
"653 874 LINE",
"-10 874 LINE",
"-10 729 LINE",
"653 729 LINE",
"653 514 LINE",
"-10 514 LINE",
"-10 369 LINE"
);
}
);
width = 1451;
}
);
note = uni255B;
unicode = 255B;
},
{
glyphname = uni255C;
lastChange = "2020-03-13 21:33:20 +0000";
layers = (
{
layerId = "489D640B-457E-495A-B1F8-D23C81511CE7";
paths = (
{
closed = 1;
nodes = (
"978 549 LINE",
"978 1864 LINE",
"833 1864 LINE",
"833 694 LINE",
"618 694 LINE",
"618 1864 LINE",
"473 1864 LINE",
"473 694 LINE",
"-10 694 LINE",
"-10 549 LINE",
"978 549 LINE"
);
}
);
width = 1451;
}
);
note = uni255C;
unicode = 255C;
},
{
glyphname = uni255D;
lastChange = "2020-03-13 21:33:20 +0000";
layers = (
{
layerId = "489D640B-457E-495A-B1F8-D23C81511CE7";
paths = (
{
closed = 1;
nodes = (
"978 369 LINE",
"978 1864 LINE",
"833 1864 LINE",
"833 514 LINE",
"-10 514 LINE",
"-10 369 LINE",
"978 369 LINE"
);
},
{
closed = 1;
nodes = (
"473 1864 LINE",
"473 874 LINE",
"-10 874 LINE",
"-10 729 LINE",
"618 729 LINE",
"618 1864 LINE",
"473 1864 LINE"
);
}
);
width = 1451;
}
);
note = uni255D;
unicode = 255D;
},
{
glyphname = uni255E;
lastChange = "2020-03-13 21:33:20 +0000";
layers = (
{
layerId = "489D640B-457E-495A-B1F8-D23C81511CE7";
paths = (
{
closed = 1;
nodes = (
"653 1864 LINE",
"653 -621 LINE",
"798 -621 LINE",
"798 369 LINE",
"1461 369 LINE",
"1461 514 LINE",
"798 514 LINE",
"798 729 LINE",
"1461 729 LINE",
"1461 874 LINE",
"798 874 LINE",
"798 1864 LINE",
"653 1864 LINE"
);
}
);
width = 1451;
}
);
note = uni255E;
unicode = 255E;
},
{
glyphname = uni255F;
lastChange = "2020-03-13 21:33:20 +0000";
layers = (
{
layerId = "489D640B-457E-495A-B1F8-D23C81511CE7";
paths = (
{
closed = 1;
nodes = (
"833 1864 LINE",
"833 -621 LINE",
"978 -621 LINE",
"978 549 LINE",
"1461 549 LINE",
"1461 694 LINE",
"978 694 LINE",
"978 1864 LINE",
"833 1864 LINE"
);
},
{
closed = 1;
nodes = (
"473 1864 LINE",
"473 -621 LINE",
"618 -621 LINE",
"618 1864 LINE",
"473 1864 LINE"
);
}
);
width = 1451;
}
);
note = uni255F;
unicode = 255F;
},
{
glyphname = uni2560;
lastChange = "2020-03-13 21:33:20 +0000";
layers = (
{
layerId = "489D640B-457E-495A-B1F8-D23C81511CE7";
paths = (
{
closed = 1;
nodes = (
"618 -621 LINE",
"618 1864 LINE",
"473 1864 LINE",
"473 -621 LINE",
"618 -621 LINE"
);
},
{
closed = 1;
nodes = (
"833 514 LINE",
"833 -621 LINE",
"978 -621 LINE",
"978 369 LINE",
"1461 369 LINE",
"1461 514 LINE",
"833 514 LINE"
);
},
{
closed = 1;
nodes = (
"833 1864 LINE",
"833 729 LINE",
"1461 729 LINE",
"1461 874 LINE",
"978 874 LINE",
"978 1864 LINE",
"833 1864 LINE"
);
}
);
width = 1451;
}
);
note = uni2560;
unicode = 2560;
},
{
glyphname = uni2561;
lastChange = "2020-03-13 21:33:20 +0000";
layers = (
{
layerId = "489D640B-457E-495A-B1F8-D23C81511CE7";
paths = (
{
closed = 1;
nodes = (
"-10 369 LINE",
"653 369 LINE",
"653 -621 LINE",
"798 -621 LINE",
"798 1864 LINE",
"653 1864 LINE",
"653 874 LINE",
"-10 874 LINE",
"-10 729 LINE",
"653 729 LINE",
"653 514 LINE",
"-10 514 LINE",
"-10 369 LINE"
);
}
);
width = 1451;
}
);
note = uni2561;
unicode = 2561;
},
{
glyphname = uni2562;
lastChange = "2020-03-13 21:33:20 +0000";
layers = (
{
layerId = "489D640B-457E-495A-B1F8-D23C81511CE7";
paths = (
{
closed = 1;
nodes = (
"-10 549 LINE",
"473 549 LINE",
"473 -621 LINE",
"618 -621 LINE",
"618 1864 LINE",
"473 1864 LINE",
"473 694 LINE",
"-10 694 LINE",
"-10 549 LINE"
);
},
{
closed = 1;
nodes = (
"833 1864 LINE",
"833 -621 LINE",
"978 -621 LINE",
"978 1864 LINE",
"833 1864 LINE"
);
}
);
width = 1451;
}
);
note = uni2562;
unicode = 2562;
},
{
glyphname = uni2563;
lastChange = "2020-03-13 21:33:20 +0000";
layers = (
{
layerId = "489D640B-457E-495A-B1F8-D23C81511CE7";
paths = (
{
closed = 1;
nodes = (
"833 1864 LINE",
"833 -621 LINE",
"978 -621 LINE",
"978 1864 LINE",
"833 1864 LINE"
);
},
{
closed = 1;
nodes = (
"473 1864 LINE",
"473 874 LINE",
"-10 874 LINE",
"-10 729 LINE",
"618 729 LINE",
"618 1864 LINE",
"473 1864 LINE"
);
},
{
closed = 1;
nodes = (
"618 -621 LINE",
"618 514 LINE",
"-10 514 LINE",
"-10 369 LINE",
"473 369 LINE",
"473 -621 LINE",
"618 -621 LINE"
);
}
);
width = 1451;
}
);
note = uni2563;
unicode = 2563;
},
{
glyphname = uni2564;
lastChange = "2020-03-13 21:33:20 +0000";
layers = (
{
layerId = "489D640B-457E-495A-B1F8-D23C81511CE7";
paths = (
{
closed = 1;
nodes = (
"-10 369 LINE",
"653 369 LINE",
"653 -621 LINE",
"798 -621 LINE",
"798 369 LINE",
"1461 369 LINE",
"1461 514 LINE",
"-10 514 LINE",
"-10 369 LINE"
);
},
{
closed = 1;
nodes = (
"-10 729 LINE",
"1461 729 LINE",
"1461 874 LINE",
"-10 874 LINE",
"-10 729 LINE"
);
}
);
width = 1451;
}
);
note = uni2564;
unicode = 2564;
},
{
glyphname = uni2565;
lastChange = "2020-03-13 21:33:20 +0000";
layers = (
{
layerId = "489D640B-457E-495A-B1F8-D23C81511CE7";
paths = (
{
closed = 1;
nodes = (
"-10 549 LINE",
"473 549 LINE",
"473 -621 LINE",
"618 -621 LINE",
"618 549 LINE",
"833 549 LINE",
"833 -621 LINE",
"978 -621 LINE",
"978 549 LINE",
"1461 549 LINE",
"1461 694 LINE",
"-10 694 LINE",
"-10 549 LINE"
);
}
);
width = 1451;
}
);
note = uni2565;
unicode = 2565;
},
{
glyphname = uni2566;
lastChange = "2020-03-13 21:33:20 +0000";
layers = (
{
layerId = "489D640B-457E-495A-B1F8-D23C81511CE7";
paths = (
{
closed = 1;
nodes = (
"618 -621 LINE",
"618 514 LINE",
"-10 514 LINE",
"-10 369 LINE",
"473 369 LINE",
"473 -621 LINE",
"618 -621 LINE"
);
},
{
closed = 1;
nodes = (
"833 514 LINE",
"833 -621 LINE",
"978 -621 LINE",
"978 369 LINE",
"1461 369 LINE",
"1461 514 LINE",
"833 514 LINE"
);
},
{
closed = 1;
nodes = (
"1461 874 LINE",
"-10 874 LINE",
"-10 729 LINE",
"1461 729 LINE",
"1461 874 LINE"
);
}
);
width = 1451;
}
);
note = uni2566;
unicode = 2566;
},
{
glyphname = uni2567;
lastChange = "2020-03-13 21:33:20 +0000";
layers = (
{
layerId = "489D640B-457E-495A-B1F8-D23C81511CE7";
paths = (
{
closed = 1;
nodes = (
"-10 729 LINE",
"1461 729 LINE",
"1461 874 LINE",
"798 874 LINE",
"798 1864 LINE",
"653 1864 LINE",
"653 874 LINE",
"-10 874 LINE",
"-10 729 LINE"
);
},
{
closed = 1;
nodes = (
"-10 369 LINE",
"1461 369 LINE",
"1461 514 LINE",
"-10 514 LINE",
"-10 369 LINE"
);
}
);
width = 1451;
}
);
note = uni2567;
unicode = 2567;
},
{
glyphname = uni2568;
lastChange = "2020-03-13 21:33:20 +0000";
layers = (
{
layerId = "489D640B-457E-495A-B1F8-D23C81511CE7";
paths = (
{
closed = 1;
nodes = (
"-10 549 LINE",
"1461 549 LINE",
"1461 694 LINE",
"978 694 LINE",
"978 1864 LINE",
"833 1864 LINE",
"833 694 LINE",
"618 694 LINE",
"618 1864 LINE",
"473 1864 LINE",
"473 694 LINE",
"-10 694 LINE",
"-10 549 LINE"
);
}
);
width = 1451;
}
);
note = uni2568;
unicode = 2568;
},
{
glyphname = uni2569;
lastChange = "2020-03-13 21:33:20 +0000";
layers = (
{
layerId = "489D640B-457E-495A-B1F8-D23C81511CE7";
paths = (
{
closed = 1;
nodes = (
"833 1864 LINE",
"833 729 LINE",
"1461 729 LINE",
"1461 874 LINE",
"978 874 LINE",
"978 1864 LINE",
"833 1864 LINE"
);
},
{
closed = 1;
nodes = (
"473 1864 LINE",
"473 874 LINE",
"-10 874 LINE",
"-10 729 LINE",
"618 729 LINE",
"618 1864 LINE",
"473 1864 LINE"
);
},
{
closed = 1;
nodes = (
"-10 369 LINE",
"1461 369 LINE",
"1461 514 LINE",
"-10 514 LINE",
"-10 369 LINE"
);
}
);
width = 1451;
}
);
note = uni2569;
unicode = 2569;
},
{
glyphname = uni256A;
lastChange = "2020-03-13 21:33:20 +0000";
layers = (
{
layerId = "489D640B-457E-495A-B1F8-D23C81511CE7";
paths = (
{
closed = 1;
nodes = (
"-10 369 LINE",
"653 369 LINE",
"653 -621 LINE",
"798 -621 LINE",
"798 369 LINE",
"1461 369 LINE",
"1461 514 LINE",
"798 514 LINE",
"798 729 LINE",
"1461 729 LINE",
"1461 874 LINE",
"798 874 LINE",
"798 1864 LINE",
"653 1864 LINE",
"653 874 LINE",
"-10 874 LINE",
"-10 729 LINE",
"653 729 LINE",
"653 514 LINE",
"-10 514 LINE",
"-10 369 LINE"
);
}
);
width = 1451;
}
);
note = uni256A;
unicode = 256A;
},
{
glyphname = uni256B;
lastChange = "2020-03-13 21:33:20 +0000";
layers = (
{
layerId = "489D640B-457E-495A-B1F8-D23C81511CE7";
paths = (
{
closed = 1;
nodes = (
"833 1864 LINE",
"833 694 LINE",
"618 694 LINE",
"618 1864 LINE",
"473 1864 LINE",
"473 694 LINE",
"-10 694 LINE",
"-10 549 LINE",
"473 549 LINE",
"473 -621 LINE",
"618 -621 LINE",
"618 549 LINE",
"833 549 LINE",
"833 -621 LINE",
"978 -621 LINE",
"978 549 LINE",
"1461 549 LINE",
"1461 694 LINE",
"978 694 LINE",
"978 1864 LINE",
"833 1864 LINE"
);
}
);
width = 1451;
}
);
note = uni256B;
unicode = 256B;
},
{
glyphname = uni256C;
lastChange = "2020-03-13 21:33:20 +0000";
layers = (
{
layerId = "489D640B-457E-495A-B1F8-D23C81511CE7";
paths = (
{
closed = 1;
nodes = (
"833 1864 LINE",
"833 729 LINE",
"1461 729 LINE",
"1461 874 LINE",
"978 874 LINE",
"978 1864 LINE",
"833 1864 LINE"
);
},
{
closed = 1;
nodes = (
"618 -621 LINE",
"618 514 LINE",
"-10 514 LINE",
"-10 369 LINE",
"473 369 LINE",
"473 -621 LINE",
"618 -621 LINE"
);
},
{
closed = 1;
nodes = (
"833 514 LINE",
"833 -621 LINE",
"978 -621 LINE",
"978 369 LINE",
"1461 369 LINE",
"1461 514 LINE",
"833 514 LINE"
);
},
{
closed = 1;
nodes = (
"473 1864 LINE",
"473 874 LINE",
"-10 874 LINE",
"-10 729 LINE",
"618 729 LINE",
"618 1864 LINE",
"473 1864 LINE"
);
}
);
width = 1451;
}
);
note = uni256C;
unicode = 256C;
},
{
glyphname = upblock;
lastChange = "2020-03-13 21:33:20 +0000";
layers = (
{
layerId = "489D640B-457E-495A-B1F8-D23C81511CE7";
paths = (
{
closed = 1;
nodes = (
"1451 621 LINE",
"1451 1864 LINE",
"0 1864 LINE",
"0 621 LINE",
"1451 621 LINE"
);
}
);
width = 1451;
}
);
note = upblock;
unicode = 2580;
},
{
glyphname = dnblock;
lastChange = "2020-03-13 21:33:20 +0000";
layers = (
{
layerId = "489D640B-457E-495A-B1F8-D23C81511CE7";
paths = (
{
closed = 1;
nodes = (
"1451 -621 LINE",
"1451 621 LINE",
"0 621 LINE",
"0 -621 LINE",
"1451 -621 LINE"
);
}
);
width = 1451;
}
);
note = dnblock;
unicode = 2584;
},
{
glyphname = block;
lastChange = "2020-03-13 21:33:20 +0000";
layers = (
{
layerId = "489D640B-457E-495A-B1F8-D23C81511CE7";
paths = (
{
closed = 1;
nodes = (
"1451 -621 LINE",
"1451 1864 LINE",
"0 1864 LINE",
"0 -621 LINE",
"1451 -621 LINE"
);
}
);
width = 1451;
}
);
note = block;
unicode = 2588;
},
{
glyphname = lfblock;
lastChange = "2020-03-13 21:33:20 +0000";
layers = (
{
layerId = "489D640B-457E-495A-B1F8-D23C81511CE7";
paths = (
{
closed = 1;
nodes = (
"726 -621 LINE",
"726 1864 LINE",
"0 1864 LINE",
"0 -621 LINE",
"726 -621 LINE"
);
}
);
width = 1451;
}
);
note = lfblock;
unicode = 258C;
},
{
glyphname = rtblock;
lastChange = "2020-03-13 21:33:20 +0000";
layers = (
{
layerId = "489D640B-457E-495A-B1F8-D23C81511CE7";
paths = (
{
closed = 1;
nodes = (
"1451 -621 LINE",
"1451 1864 LINE",
"725 1864 LINE",
"725 -621 LINE",
"1451 -621 LINE"
);
}
);
width = 1451;
}
);
note = rtblock;
unicode = 2590;
},
{
glyphname = ltshade;
lastChange = "2020-03-13 21:33:20 +0000";
layers = (
{
layerId = "489D640B-457E-495A-B1F8-D23C81511CE7";
paths = (
{
closed = 1;
nodes = (
"103 1314 LINE",
"103 1216 LINE",
"207 1216 LINE",
"207 1314 LINE",
"103 1314 LINE"
);
},
{
closed = 1;
nodes = (
"517 1314 LINE",
"517 1216 LINE",
"621 1216 LINE",
"621 1314 LINE",
"517 1314 LINE"
);
},
{
closed = 1;
nodes = (
"933 1314 LINE",
"933 1216 LINE",
"1036 1216 LINE",
"1036 1314 LINE",
"933 1314 LINE"
);
},
{
closed = 1;
nodes = (
"310 1119 LINE",
"310 1023 LINE",
"414 1023 LINE",
"414 1119 LINE",
"310 1119 LINE"
);
},
{
closed = 1;
nodes = (
"725 1119 LINE",
"725 1023 LINE",
"829 1023 LINE",
"829 1119 LINE",
"725 1119 LINE"
);
},
{
closed = 1;
nodes = (
"1140 1119 LINE",
"1140 1023 LINE",
"1244 1023 LINE",
"1244 1119 LINE",
"1140 1119 LINE"
);
},
{
closed = 1;
nodes = (
"933 927 LINE",
"933 831 LINE",
"1036 831 LINE",
"1036 927 LINE",
"933 927 LINE"
);
},
{
closed = 1;
nodes = (
"517 927 LINE",
"517 831 LINE",
"621 831 LINE",
"621 927 LINE",
"517 927 LINE"
);
},
{
closed = 1;
nodes = (
"103 927 LINE",
"103 831 LINE",
"207 831 LINE",
"207 927 LINE",
"103 927 LINE"
);
},
{
closed = 1;
nodes = (
"1140 732 LINE",
"1140 636 LINE",
"1244 636 LINE",
"1244 732 LINE",
"1140 732 LINE"
);
},
{
closed = 1;
nodes = (
"725 732 LINE",
"725 636 LINE",
"829 636 LINE",
"829 732 LINE",
"725 732 LINE"
);
},
{
closed = 1;
nodes = (
"310 732 LINE",
"310 636 LINE",
"414 636 LINE",
"414 732 LINE",
"310 732 LINE"
);
},
{
closed = 1;
nodes = (
"103 540 LINE",
"103 444 LINE",
"207 444 LINE",
"207 540 LINE",
"103 540 LINE"
);
},
{
closed = 1;
nodes = (
"517 540 LINE",
"517 444 LINE",
"621 444 LINE",
"621 540 LINE",
"517 540 LINE"
);
},
{
closed = 1;
nodes = (
"933 540 LINE",
"933 444 LINE",
"1036 444 LINE",
"1036 540 LINE",
"933 540 LINE"
);
},
{
closed = 1;
nodes = (
"1140 345 LINE",
"1140 249 LINE",
"1244 249 LINE",
"1244 345 LINE",
"1140 345 LINE"
);
},
{
closed = 1;
nodes = (
"725 345 LINE",
"725 249 LINE",
"829 249 LINE",
"829 345 LINE",
"725 345 LINE"
);
},
{
closed = 1;
nodes = (
"310 345 LINE",
"310 249 LINE",
"414 249 LINE",
"414 345 LINE",
"310 345 LINE"
);
},
{
closed = 1;
nodes = (
"103 153 LINE",
"103 56 LINE",
"207 56 LINE",
"207 153 LINE",
"103 153 LINE"
);
},
{
closed = 1;
nodes = (
"517 153 LINE",
"517 56 LINE",
"621 56 LINE",
"621 153 LINE",
"517 153 LINE"
);
},
{
closed = 1;
nodes = (
"933 153 LINE",
"933 56 LINE",
"1036 56 LINE",
"1036 153 LINE",
"933 153 LINE"
);
},
{
closed = 1;
nodes = (
"310 -42 LINE",
"310 -136 LINE",
"414 -136 LINE",
"414 -42 LINE",
"310 -42 LINE"
);
},
{
closed = 1;
nodes = (
"725 -42 LINE",
"725 -136 LINE",
"829 -136 LINE",
"829 -42 LINE",
"725 -42 LINE"
);
},
{
closed = 1;
nodes = (
"1140 -42 LINE",
"1140 -136 LINE",
"1244 -136 LINE",
"1244 -42 LINE",
"1140 -42 LINE"
);
},
{
closed = 1;
nodes = (
"933 -234 LINE",
"933 -331 LINE",
"1036 -331 LINE",
"1036 -234 LINE",
"933 -234 LINE"
);
},
{
closed = 1;
nodes = (
"517 -234 LINE",
"517 -331 LINE",
"621 -331 LINE",
"621 -234 LINE",
"517 -234 LINE"
);
},
{
closed = 1;
nodes = (
"103 -234 LINE",
"103 -331 LINE",
"207 -331 LINE",
"207 -234 LINE",
"103 -234 LINE"
);
},
{
closed = 1;
nodes = (
"310 -427 LINE",
"310 -523 LINE",
"414 -523 LINE",
"414 -427 LINE",
"310 -427 LINE"
);
},
{
closed = 1;
nodes = (
"725 -427 LINE",
"725 -523 LINE",
"829 -523 LINE",
"829 -427 LINE",
"725 -427 LINE"
);
},
{
closed = 1;
nodes = (
"1140 -427 LINE",
"1140 -523 LINE",
"1244 -523 LINE",
"1244 -427 LINE",
"1140 -427 LINE"
);
},
{
closed = 1;
nodes = (
"310 1506 LINE",
"310 1408 LINE",
"414 1408 LINE",
"414 1506 LINE",
"310 1506 LINE"
);
},
{
closed = 1;
nodes = (
"725 1506 LINE",
"725 1408 LINE",
"829 1408 LINE",
"829 1506 LINE",
"725 1506 LINE"
);
},
{
closed = 1;
nodes = (
"1140 1506 LINE",
"1140 1408 LINE",
"1244 1408 LINE",
"1244 1506 LINE",
"1140 1506 LINE"
);
},
{
closed = 1;
nodes = (
"103 1699 LINE",
"103 1603 LINE",
"207 1603 LINE",
"207 1699 LINE",
"103 1699 LINE"
);
},
{
closed = 1;
nodes = (
"517 1699 LINE",
"517 1603 LINE",
"621 1603 LINE",
"621 1699 LINE",
"517 1699 LINE"
);
},
{
closed = 1;
nodes = (
"933 1699 LINE",
"933 1603 LINE",
"1036 1603 LINE",
"1036 1699 LINE",
"933 1699 LINE"
);
},
{
closed = 1;
nodes = (
"1347 1314 LINE",
"1347 1216 LINE",
"1451 1216 LINE",
"1451 1314 LINE",
"1347 1314 LINE"
);
},
{
closed = 1;
nodes = (
"1347 927 LINE",
"1347 831 LINE",
"1451 831 LINE",
"1451 927 LINE",
"1347 927 LINE"
);
},
{
closed = 1;
nodes = (
"1347 540 LINE",
"1347 444 LINE",
"1451 444 LINE",
"1451 540 LINE",
"1347 540 LINE"
);
},
{
closed = 1;
nodes = (
"1347 153 LINE",
"1347 56 LINE",
"1451 56 LINE",
"1451 153 LINE",
"1347 153 LINE"
);
},
{
closed = 1;
nodes = (
"1347 -234 LINE",
"1347 -331 LINE",
"1451 -331 LINE",
"1451 -234 LINE",
"1347 -234 LINE"
);
},
{
closed = 1;
nodes = (
"1347 1699 LINE",
"1347 1603 LINE",
"1451 1603 LINE",
"1451 1699 LINE",
"1347 1699 LINE"
);
}
);
width = 1451;
}
);
note = ltshade;
unicode = 2591;
},
{
glyphname = shade;
lastChange = "2020-03-13 21:33:20 +0000";
layers = (
{
layerId = "489D640B-457E-495A-B1F8-D23C81511CE7";
paths = (
{
closed = 1;
nodes = (
"103 1314 LINE",
"103 1216 LINE",
"207 1216 LINE",
"207 1314 LINE",
"103 1314 LINE"
);
},
{
closed = 1;
nodes = (
"310 1314 LINE",
"310 1216 LINE",
"414 1216 LINE",
"414 1314 LINE",
"310 1314 LINE"
);
},
{
closed = 1;
nodes = (
"517 1314 LINE",
"517 1216 LINE",
"621 1216 LINE",
"621 1314 LINE",
"517 1314 LINE"
);
},
{
closed = 1;
nodes = (
"725 1314 LINE",
"725 1216 LINE",
"829 1216 LINE",
"829 1314 LINE",
"725 1314 LINE"
);
},
{
closed = 1;
nodes = (
"933 1314 LINE",
"933 1216 LINE",
"1037 1216 LINE",
"1037 1314 LINE",
"933 1314 LINE"
);
},
{
closed = 1;
nodes = (
"1140 1314 LINE",
"1140 1216 LINE",
"1244 1216 LINE",
"1244 1314 LINE",
"1140 1314 LINE"
);
},
{
closed = 1;
nodes = (
"0 1119 LINE",
"0 1023 LINE",
"103 1023 LINE",
"103 1119 LINE",
"0 1119 LINE"
);
},
{
closed = 1;
nodes = (
"207 1119 LINE",
"207 1023 LINE",
"310 1023 LINE",
"310 1119 LINE",
"207 1119 LINE"
);
},
{
closed = 1;
nodes = (
"414 1119 LINE",
"414 1023 LINE",
"517 1023 LINE",
"517 1119 LINE",
"414 1119 LINE"
);
},
{
closed = 1;
nodes = (
"621 1119 LINE",
"621 1023 LINE",
"725 1023 LINE",
"725 1119 LINE",
"621 1119 LINE"
);
},
{
closed = 1;
nodes = (
"829 1119 LINE",
"829 1023 LINE",
"933 1023 LINE",
"933 1119 LINE",
"829 1119 LINE"
);
},
{
closed = 1;
nodes = (
"1037 1119 LINE",
"1037 1023 LINE",
"1140 1023 LINE",
"1140 1119 LINE",
"1037 1119 LINE"
);
},
{
closed = 1;
nodes = (
"103 927 LINE",
"103 831 LINE",
"207 831 LINE",
"207 927 LINE",
"103 927 LINE"
);
},
{
closed = 1;
nodes = (
"310 927 LINE",
"310 831 LINE",
"414 831 LINE",
"414 927 LINE",
"310 927 LINE"
);
},
{
closed = 1;
nodes = (
"517 927 LINE",
"517 831 LINE",
"621 831 LINE",
"621 927 LINE",
"517 927 LINE"
);
},
{
closed = 1;
nodes = (
"725 927 LINE",
"725 831 LINE",
"829 831 LINE",
"829 927 LINE",
"725 927 LINE"
);
},
{
closed = 1;
nodes = (
"933 927 LINE",
"933 831 LINE",
"1037 831 LINE",
"1037 927 LINE",
"933 927 LINE"
);
},
{
closed = 1;
nodes = (
"1140 927 LINE",
"1140 831 LINE",
"1244 831 LINE",
"1244 927 LINE",
"1140 927 LINE"
);
},
{
closed = 1;
nodes = (
"0 732 LINE",
"0 636 LINE",
"103 636 LINE",
"103 732 LINE",
"0 732 LINE"
);
},
{
closed = 1;
nodes = (
"207 732 LINE",
"207 636 LINE",
"310 636 LINE",
"310 732 LINE",
"207 732 LINE"
);
},
{
closed = 1;
nodes = (
"414 732 LINE",
"414 636 LINE",
"517 636 LINE",
"517 732 LINE",
"414 732 LINE"
);
},
{
closed = 1;
nodes = (
"621 732 LINE",
"621 636 LINE",
"725 636 LINE",
"725 732 LINE",
"621 732 LINE"
);
},
{
closed = 1;
nodes = (
"829 732 LINE",
"829 636 LINE",
"933 636 LINE",
"933 732 LINE",
"829 732 LINE"
);
},
{
closed = 1;
nodes = (
"1037 732 LINE",
"1037 636 LINE",
"1140 636 LINE",
"1140 732 LINE",
"1037 732 LINE"
);
},
{
closed = 1;
nodes = (
"103 540 LINE",
"103 444 LINE",
"207 444 LINE",
"207 540 LINE",
"103 540 LINE"
);
},
{
closed = 1;
nodes = (
"310 540 LINE",
"310 444 LINE",
"414 444 LINE",
"414 540 LINE",
"310 540 LINE"
);
},
{
closed = 1;
nodes = (
"517 540 LINE",
"517 444 LINE",
"621 444 LINE",
"621 540 LINE",
"517 540 LINE"
);
},
{
closed = 1;
nodes = (
"725 540 LINE",
"725 444 LINE",
"829 444 LINE",
"829 540 LINE",
"725 540 LINE"
);
},
{
closed = 1;
nodes = (
"933 540 LINE",
"933 444 LINE",
"1037 444 LINE",
"1037 540 LINE",
"933 540 LINE"
);
},
{
closed = 1;
nodes = (
"1140 540 LINE",
"1140 444 LINE",
"1244 444 LINE",
"1244 540 LINE",
"1140 540 LINE"
);
},
{
closed = 1;
nodes = (
"0 345 LINE",
"0 249 LINE",
"103 249 LINE",
"103 345 LINE",
"0 345 LINE"
);
},
{
closed = 1;
nodes = (
"414 345 LINE",
"414 249 LINE",
"517 249 LINE",
"517 345 LINE",
"414 345 LINE"
);
},
{
closed = 1;
nodes = (
"621 345 LINE",
"621 249 LINE",
"725 249 LINE",
"725 345 LINE",
"621 345 LINE"
);
},
{
closed = 1;
nodes = (
"829 345 LINE",
"829 249 LINE",
"933 249 LINE",
"933 345 LINE",
"829 345 LINE"
);
},
{
closed = 1;
nodes = (
"1037 345 LINE",
"1037 249 LINE",
"1140 249 LINE",
"1140 345 LINE",
"1037 345 LINE"
);
},
{
closed = 1;
nodes = (
"207 345 LINE",
"207 249 LINE",
"310 249 LINE",
"310 345 LINE",
"207 345 LINE"
);
},
{
closed = 1;
nodes = (
"1140 153 LINE",
"1140 56 LINE",
"1244 56 LINE",
"1244 153 LINE",
"1140 153 LINE"
);
},
{
closed = 1;
nodes = (
"933 153 LINE",
"933 56 LINE",
"1037 56 LINE",
"1037 153 LINE",
"933 153 LINE"
);
},
{
closed = 1;
nodes = (
"725 153 LINE",
"725 56 LINE",
"829 56 LINE",
"829 153 LINE",
"725 153 LINE"
);
},
{
closed = 1;
nodes = (
"517 153 LINE",
"517 56 LINE",
"621 56 LINE",
"621 153 LINE",
"517 153 LINE"
);
},
{
closed = 1;
nodes = (
"310 153 LINE",
"310 56 LINE",
"414 56 LINE",
"414 153 LINE",
"310 153 LINE"
);
},
{
closed = 1;
nodes = (
"103 153 LINE",
"103 56 LINE",
"207 56 LINE",
"207 153 LINE",
"103 153 LINE"
);
},
{
closed = 1;
nodes = (
"0 -42 LINE",
"0 -136 LINE",
"103 -136 LINE",
"103 -42 LINE",
"0 -42 LINE"
);
},
{
closed = 1;
nodes = (
"207 -42 LINE",
"207 -136 LINE",
"310 -136 LINE",
"310 -42 LINE",
"207 -42 LINE"
);
},
{
closed = 1;
nodes = (
"414 -42 LINE",
"414 -136 LINE",
"517 -136 LINE",
"517 -42 LINE",
"414 -42 LINE"
);
},
{
closed = 1;
nodes = (
"621 -42 LINE",
"621 -136 LINE",
"725 -136 LINE",
"725 -42 LINE",
"621 -42 LINE"
);
},
{
closed = 1;
nodes = (
"829 -42 LINE",
"829 -136 LINE",
"933 -136 LINE",
"933 -42 LINE",
"829 -42 LINE"
);
},
{
closed = 1;
nodes = (
"1037 -42 LINE",
"1037 -136 LINE",
"1140 -136 LINE",
"1140 -42 LINE",
"1037 -42 LINE"
);
},
{
closed = 1;
nodes = (
"1140 -234 LINE",
"1140 -331 LINE",
"1244 -331 LINE",
"1244 -234 LINE",
"1140 -234 LINE"
);
},
{
closed = 1;
nodes = (
"933 -234 LINE",
"933 -331 LINE",
"1037 -331 LINE",
"1037 -234 LINE",
"933 -234 LINE"
);
},
{
closed = 1;
nodes = (
"725 -234 LINE",
"725 -331 LINE",
"829 -331 LINE",
"829 -234 LINE",
"725 -234 LINE"
);
},
{
closed = 1;
nodes = (
"517 -234 LINE",
"517 -331 LINE",
"621 -331 LINE",
"621 -234 LINE",
"517 -234 LINE"
);
},
{
closed = 1;
nodes = (
"310 -234 LINE",
"310 -331 LINE",
"414 -331 LINE",
"414 -234 LINE",
"310 -234 LINE"
);
},
{
closed = 1;
nodes = (
"103 -234 LINE",
"103 -331 LINE",
"207 -331 LINE",
"207 -234 LINE",
"103 -234 LINE"
);
},
{
closed = 1;
nodes = (
"0 -427 LINE",
"0 -523 LINE",
"103 -523 LINE",
"103 -427 LINE",
"0 -427 LINE"
);
},
{
closed = 1;
nodes = (
"207 -427 LINE",
"207 -523 LINE",
"310 -523 LINE",
"310 -427 LINE",
"207 -427 LINE"
);
},
{
closed = 1;
nodes = (
"414 -427 LINE",
"414 -523 LINE",
"517 -523 LINE",
"517 -427 LINE",
"414 -427 LINE"
);
},
{
closed = 1;
nodes = (
"621 -427 LINE",
"621 -523 LINE",
"725 -523 LINE",
"725 -427 LINE",
"621 -427 LINE"
);
},
{
closed = 1;
nodes = (
"829 -427 LINE",
"829 -523 LINE",
"933 -523 LINE",
"933 -427 LINE",
"829 -427 LINE"
);
},
{
closed = 1;
nodes = (
"1037 -427 LINE",
"1037 -523 LINE",
"1140 -523 LINE",
"1140 -427 LINE",
"1037 -427 LINE"
);
},
{
closed = 1;
nodes = (
"0 1506 LINE",
"0 1408 LINE",
"103 1408 LINE",
"103 1506 LINE",
"0 1506 LINE"
);
},
{
closed = 1;
nodes = (
"207 1506 LINE",
"207 1408 LINE",
"310 1408 LINE",
"310 1506 LINE",
"207 1506 LINE"
);
},
{
closed = 1;
nodes = (
"414 1506 LINE",
"414 1408 LINE",
"517 1408 LINE",
"517 1506 LINE",
"414 1506 LINE"
);
},
{
closed = 1;
nodes = (
"621 1506 LINE",
"621 1408 LINE",
"725 1408 LINE",
"725 1506 LINE",
"621 1506 LINE"
);
},
{
closed = 1;
nodes = (
"829 1506 LINE",
"829 1408 LINE",
"933 1408 LINE",
"933 1506 LINE",
"829 1506 LINE"
);
},
{
closed = 1;
nodes = (
"1037 1506 LINE",
"1037 1408 LINE",
"1140 1408 LINE",
"1140 1506 LINE",
"1037 1506 LINE"
);
},
{
closed = 1;
nodes = (
"103 1699 LINE",
"103 1603 LINE",
"207 1603 LINE",
"207 1699 LINE",
"103 1699 LINE"
);
},
{
closed = 1;
nodes = (
"310 1699 LINE",
"310 1603 LINE",
"414 1603 LINE",
"414 1699 LINE",
"310 1699 LINE"
);
},
{
closed = 1;
nodes = (
"517 1699 LINE",
"517 1603 LINE",
"621 1603 LINE",
"621 1699 LINE",
"517 1699 LINE"
);
},
{
closed = 1;
nodes = (
"725 1699 LINE",
"725 1603 LINE",
"829 1603 LINE",
"829 1699 LINE",
"725 1699 LINE"
);
},
{
closed = 1;
nodes = (
"933 1699 LINE",
"933 1603 LINE",
"1037 1603 LINE",
"1037 1699 LINE",
"933 1699 LINE"
);
},
{
closed = 1;
nodes = (
"1140 1699 LINE",
"1140 1603 LINE",
"1244 1603 LINE",
"1244 1699 LINE",
"1140 1699 LINE"
);
},
{
closed = 1;
nodes = (
"1347 1314 LINE",
"1347 1216 LINE",
"1451 1216 LINE",
"1451 1314 LINE",
"1347 1314 LINE"
);
},
{
closed = 1;
nodes = (
"1244 1119 LINE",
"1244 1023 LINE",
"1347 1023 LINE",
"1347 1119 LINE",
"1244 1119 LINE"
);
},
{
closed = 1;
nodes = (
"1347 927 LINE",
"1347 831 LINE",
"1451 831 LINE",
"1451 927 LINE",
"1347 927 LINE"
);
},
{
closed = 1;
nodes = (
"1244 732 LINE",
"1244 636 LINE",
"1347 636 LINE",
"1347 732 LINE",
"1244 732 LINE"
);
},
{
closed = 1;
nodes = (
"1347 540 LINE",
"1347 444 LINE",
"1451 444 LINE",
"1451 540 LINE",
"1347 540 LINE"
);
},
{
closed = 1;
nodes = (
"1244 345 LINE",
"1244 249 LINE",
"1347 249 LINE",
"1347 345 LINE",
"1244 345 LINE"
);
},
{
closed = 1;
nodes = (
"1347 153 LINE",
"1347 56 LINE",
"1451 56 LINE",
"1451 153 LINE",
"1347 153 LINE"
);
},
{
closed = 1;
nodes = (
"1244 -42 LINE",
"1244 -136 LINE",
"1347 -136 LINE",
"1347 -42 LINE",
"1244 -42 LINE"
);
},
{
closed = 1;
nodes = (
"1347 -234 LINE",
"1347 -331 LINE",
"1451 -331 LINE",
"1451 -234 LINE",
"1347 -234 LINE"
);
},
{
closed = 1;
nodes = (
"1244 -427 LINE",
"1244 -523 LINE",
"1347 -523 LINE",
"1347 -427 LINE",
"1244 -427 LINE"
);
},
{
closed = 1;
nodes = (
"1244 1506 LINE",
"1244 1408 LINE",
"1347 1408 LINE",
"1347 1506 LINE",
"1244 1506 LINE"
);
},
{
closed = 1;
nodes = (
"1347 1699 LINE",
"1347 1603 LINE",
"1451 1603 LINE",
"1451 1699 LINE",
"1347 1699 LINE"
);
}
);
width = 1451;
}
);
note = shade;
unicode = 2592;
},
